<svg width="136" height="37" viewBox="0 0 136 37" fill="none" xmlns="http://www.w3.org/2000/svg">
<path d="M80.2993 13.3333C80.2993 12.5469 80.1953 11.7948 80.0218 11.111C79.8484 10.4273 79.5709 9.84608 79.1894 9.33326C78.8078 8.82044 78.3569 8.44437 77.8019 8.17086C77.2469 7.89736 76.5879 7.76061 75.8248 7.76061C75.2004 7.76061 74.6107 7.86317 74.0211 8.03411C73.4661 8.20505 72.9111 8.44437 72.4255 8.75206C71.9052 9.05975 71.4543 9.40163 71.0033 9.7777V2.9401C71.0033 2.32471 70.934 1.81189 70.7952 1.43582C70.6565 1.05975 70.4137 0.78625 70.0668 0.581121C69.7199 0.410181 69.269 0.307617 68.714 0.307617H67.0491L66.8409 0.546933V24.2051C67.1531 24.2392 67.5 24.3076 67.8469 24.3076C68.1937 24.3418 68.5753 24.3418 68.9221 24.3418C69.3037 24.3418 69.6852 24.3418 70.0321 24.3076C70.379 24.2734 70.7258 24.2392 71.038 24.2051V13.1623C71.3849 12.8204 71.7317 12.5127 72.1133 12.3076C72.4948 12.0683 72.8764 11.8974 73.258 11.7948C73.6395 11.6922 73.9864 11.6239 74.2985 11.6239C74.7495 11.6239 75.0963 11.7264 75.3391 11.8974C75.5819 12.1025 75.7554 12.376 75.8594 12.7521C75.9635 13.1281 75.9982 13.6409 75.9982 14.2563V21.8119C75.9982 22.3931 76.0676 22.8717 76.2063 23.2478C76.3451 23.6239 76.5879 23.9315 76.9347 24.1367C77.2816 24.3418 77.7325 24.4444 78.2875 24.4444C78.8078 24.4444 79.3281 24.3418 79.8137 24.1709C80.2993 23.9999 80.6809 23.7948 80.993 23.5213C80.7502 23.111 80.5421 22.6666 80.4381 22.1196C80.334 21.5726 80.2993 21.0256 80.2993 20.4102V13.3333Z" fill="#682DB3"/>
<path d="M16.9964 0.444348C15.8171 0.23922 14.499 0.23922 13.2849 0.341784C13.0421 0.375972 12.7646 0.41016 12.5565 0.444348V8.54691C12.5565 8.8546 12.5565 9.12811 12.5565 9.36742C12.5565 9.60674 12.5565 9.88024 12.5565 10.1196C12.5565 10.3589 12.5565 10.6324 12.5565 10.9401C12.4178 10.9401 12.2443 10.9401 12.0015 10.9401C11.7587 10.9401 11.5506 10.9401 11.3425 10.9401C11.0997 10.9401 10.9263 10.9401 10.7875 10.9401H6.1742C6.03546 10.9401 5.86202 10.9401 5.61922 10.9401C5.4111 10.9401 5.16829 10.9401 4.96017 10.9401C4.71737 10.9401 4.54394 10.9401 4.40519 10.9401C4.40519 8.99136 4.43988 5.50418 4.43988 3.55546C4.43988 1.23067 3.43397 0.375972 2.324 0.41016L0 0.478536V24.2392C0.242806 24.2734 0.485611 24.3076 0.763104 24.3418C1.0406 24.376 1.2834 24.376 1.56089 24.376C1.8037 24.376 2.04651 24.376 2.25462 24.376C2.46274 24.376 2.70555 24.376 2.94836 24.376C3.19116 24.376 3.46865 24.3418 3.71146 24.3418C3.98895 24.3076 4.23176 24.2734 4.43988 24.2392V16.9914C4.43988 16.6837 4.43988 16.4102 4.43988 16.1708C4.43988 15.9315 4.43988 15.658 4.43988 15.4187C4.43988 15.1794 4.43988 14.9059 4.43988 14.5982C4.57862 14.5982 4.78674 14.5982 4.99486 14.5982C5.23767 14.5982 5.44579 14.5982 5.6539 14.5982C5.89671 14.5982 6.07014 14.5982 6.20889 14.5982H10.8569C10.9956 14.5982 11.1691 14.5982 11.4119 14.5982C11.62 14.5982 11.8628 14.5982 12.0709 14.5982C12.279 14.5982 12.4872 14.5982 12.6259 14.5982C12.6259 14.8717 12.6259 15.1452 12.6259 15.4187C12.6259 15.658 12.6259 15.9315 12.6259 16.1708C12.6259 16.4102 12.6259 16.7179 12.6259 16.9914C12.6259 19.6238 12.6259 20.1708 12.6259 22.8033C12.6259 23.3845 12.6953 23.8973 12.8687 24.3076C13.0075 24.7179 13.2849 25.0255 13.6318 25.2307C13.9787 25.4358 14.4643 25.5384 15.054 25.5384C15.6089 25.5384 16.1292 25.4358 16.6149 25.2649C17.1005 25.0939 17.5167 24.8546 17.8636 24.5811C17.5861 24.1708 17.4126 23.6922 17.3086 23.1452C17.2045 22.5982 17.1351 22.017 17.1698 21.3674C17.0311 13.7093 16.9964 8.10247 16.9964 0.444348Z" fill="#682DB3"/>
<path d="M31.981 17.5386C32.085 17.1967 32.1544 16.889 32.1891 16.5813C32.2585 16.2736 32.2932 15.9659 32.2932 15.6582C32.3278 15.3163 32.3278 14.9745 32.3278 14.53C32.3278 13.5386 32.1891 12.6497 31.8769 11.795C31.5994 10.9745 31.1485 10.2223 30.5935 9.60693C30.0038 8.99155 29.3101 8.47872 28.4776 8.13684C27.6452 7.79496 26.6739 7.62402 25.5987 7.62402C24.3846 7.62402 23.3093 7.86334 22.4075 8.2736C21.5056 8.71804 20.7772 9.29924 20.1876 10.0856C19.5979 10.8719 19.1816 11.7608 18.9042 12.8206C18.6267 13.8462 18.4879 15.0086 18.4879 16.2394C18.4879 17.1283 18.5573 17.983 18.696 18.8035C18.8348 19.624 19.0776 20.4103 19.3898 21.0941C19.7019 21.8121 20.1529 22.4274 20.7079 22.9744C21.2628 23.5215 21.9219 23.9317 22.7197 24.2394C23.5175 24.5471 24.4887 24.6839 25.5987 24.6839C26.3618 24.6839 27.1595 24.6155 27.9227 24.4445C28.6858 24.3078 29.4142 24.1027 30.1079 23.8291C30.8016 23.5556 31.426 23.2138 31.981 22.8377C31.9463 22.5642 31.8769 22.2565 31.7382 21.9488C31.6341 21.6411 31.4954 21.3334 31.3219 21.0599C31.1485 20.7522 30.9751 20.5129 30.7323 20.2736C30.0385 20.5813 29.3101 20.8548 28.5817 21.0599C27.8533 21.265 27.0555 21.3676 26.2577 21.3676C25.4252 21.3676 24.7662 21.1967 24.2806 20.8548C23.795 20.5129 23.4481 20.0685 23.24 19.4873C23.0319 18.9061 22.8931 18.2565 22.8584 17.5044H31.981V17.5386ZM25.6333 10.7009C26.2924 10.7009 26.8127 10.8719 27.1942 11.1796C27.5758 11.4873 27.888 11.8975 28.0614 12.4103C28.2348 12.9232 28.3389 13.5044 28.3389 14.1539V14.53H22.8584C22.9278 13.2992 23.1706 12.342 23.6215 11.6924C24.0724 11.0428 24.7315 10.7009 25.6333 10.7009Z" fill="#682DB3"/>
<path d="M47.5552 22.2907C47.2084 22.0172 46.9656 21.7095 46.8268 21.2992C46.6881 20.889 46.6187 20.4103 46.6187 19.8975V13.1967C46.6187 12.2052 46.4453 11.3847 46.1678 10.7009C45.8556 10.0172 45.474 9.43597 44.9537 8.99153C44.4334 8.54708 43.8438 8.23939 43.15 8.00008C42.4563 7.79495 41.7626 7.69238 40.9995 7.69238C40.4445 7.69238 39.8548 7.72657 39.2305 7.79495C38.6061 7.86332 37.9817 7.96589 37.3227 8.10264C36.6637 8.23939 36.0393 8.37614 35.4496 8.58127C34.8253 8.75221 34.2703 8.95734 33.75 9.16247C33.7847 9.53854 33.8541 9.88042 33.9581 10.2907C34.0622 10.6667 34.1662 11.0086 34.3397 11.3505C34.5131 11.6924 34.6865 11.9659 34.8946 12.2052C35.4843 12.0001 36.0393 11.8291 36.629 11.6582C37.2186 11.4873 37.7736 11.3505 38.3286 11.2479C38.8836 11.1454 39.4039 11.077 39.9242 11.077C40.722 11.077 41.3463 11.2821 41.7626 11.6924C42.1788 12.1026 42.3869 12.718 42.3869 13.5727V14.4616C41.9013 14.4274 41.381 14.3932 40.8954 14.359C40.4098 14.359 39.9936 14.359 39.612 14.359C38.7449 14.359 37.9124 14.4616 37.1493 14.7009C36.3862 14.9061 35.6924 15.2479 35.1028 15.6924C34.5131 16.1368 34.0275 16.718 33.7153 17.4018C33.3684 18.0855 33.195 18.9061 33.195 19.8633C33.195 20.4445 33.2991 21.0257 33.5072 21.6069C33.7153 22.1881 34.0275 22.7009 34.4437 23.1796C34.86 23.6582 35.3803 24.0343 36.0046 24.3078C36.629 24.5813 37.3574 24.7522 38.1899 24.7522C38.9183 24.7522 39.5773 24.6496 40.167 24.4787C40.7567 24.3078 41.3117 24.0343 41.7973 23.7266C42.2829 23.4189 42.7338 23.077 43.1154 22.7009C43.3928 23.1796 43.8091 23.624 44.3294 23.9317C44.8497 24.2736 45.474 24.4787 46.2718 24.5471C46.4799 24.4103 46.6881 24.2052 46.8615 23.9659C47.0696 23.7266 47.2431 23.4531 47.3818 23.1796C47.3818 22.8377 47.4859 22.5642 47.5552 22.2907ZM39.2305 21.4702C38.8489 21.4702 38.502 21.3676 38.2246 21.1967C37.9471 21.0257 37.7389 20.7864 37.6002 20.5129C37.4615 20.2394 37.3921 19.8975 37.3921 19.5214C37.3921 18.7693 37.6002 18.1539 38.0511 17.7437C38.4674 17.2992 39.1264 17.0941 39.9936 17.0941C40.3404 17.0941 40.6873 17.0941 41.1382 17.1283C41.5545 17.1283 41.9707 17.1625 42.3869 17.1967V20.0343C41.9013 20.5129 41.381 20.8548 40.8607 21.0941C40.2711 21.3676 39.7508 21.4702 39.2305 21.4702Z" fill="#682DB3"/>
<path d="M54.215 21.1281C53.7294 21.1281 53.3826 20.9914 53.1398 20.7521C52.9316 20.5128 52.8276 20.1367 52.8276 19.6239V2.9401C52.8276 2.32472 52.7582 1.8119 52.6195 1.40164C52.4807 1.02557 52.2379 0.717882 51.891 0.546942C51.5442 0.376002 51.0933 0.273438 50.5036 0.273438H48.8386L48.5958 0.512754V20.4444C48.5958 21.7777 48.8733 22.8033 49.4977 23.4529C50.0873 24.1025 51.0239 24.4444 52.3073 24.4102C52.6541 24.4102 53.0357 24.4102 53.4173 24.376C53.7988 24.3418 54.1457 24.3076 54.5272 24.2734C54.8741 24.2392 55.221 24.1709 55.4984 24.1367C55.5331 23.9999 55.5678 23.8632 55.5678 23.6922C55.5678 23.5213 55.6025 23.3504 55.6025 23.2136C55.6025 22.8375 55.5678 22.4957 55.4984 22.1538C55.4291 21.8119 55.3597 21.47 55.221 21.1623H54.215V21.1281Z" fill="#682DB3"/>
<path d="M65.2107 8.06834L61.2217 8.13672V3.35039L60.9789 3.14526H59.314C58.7243 3.14526 58.2734 3.21364 57.9265 3.38458C57.5796 3.55552 57.3368 3.82902 57.1981 4.20509C57.0593 4.58116 56.9553 5.09398 56.99 5.70937V8.06834L54.4925 8.03415C54.4232 8.30766 54.3885 8.54697 54.3538 8.78629C54.3191 9.02561 54.3191 9.26492 54.3191 9.53843C54.3191 9.81193 54.3191 10.0854 54.3538 10.3248C54.3885 10.5641 54.4232 10.8376 54.4925 11.1111L56.99 11.0769V20.4102C56.99 21.7436 57.3368 22.7692 57.9959 23.4188C58.6549 24.0683 59.6608 24.4102 60.9789 24.376C61.4298 24.376 61.8808 24.376 62.3317 24.3418C62.7826 24.3077 63.2682 24.2735 63.7191 24.2393C64.1701 24.2051 64.5863 24.1367 64.9679 24.1025C65.0025 23.9658 65.0372 23.829 65.0719 23.6581C65.0719 23.4871 65.0719 23.3162 65.0719 23.1795C65.0719 22.8376 65.0372 22.4957 64.9679 22.1196C64.8985 21.7777 64.8291 21.4359 64.7251 21.1282H62.6785C62.1582 21.1282 61.8114 20.9914 61.5686 20.7179C61.3605 20.4444 61.2217 20.1025 61.2564 19.6239V11.0769L65.2454 11.1453C65.3147 10.8718 65.3494 10.6324 65.3841 10.3589C65.4188 10.1196 65.4188 9.84612 65.4188 9.57261C65.4188 9.3333 65.4188 9.09398 65.3841 8.82048C65.3147 8.58116 65.2453 8.34184 65.2107 8.06834Z" fill="#682DB3"/>
<path d="M82.3112 19.5214C81.6174 20.0684 81.6868 22.3248 82.2071 23.5897C86.8551 26.0513 92.8559 24.0684 93.8618 18.735C94.0699 17.6068 94.174 16.3761 94.174 15.0427V0.17094C93.9311 0.136752 93.6537 0.102564 93.3762 0.0683761C93.0987 0.034188 92.8212 0.034188 92.5437 0C92.2662 0 92.0234 0 91.7806 0C91.5725 0 91.3297 0 91.0522 0C90.7747 0 90.4972 0.034188 90.2197 0.0683761C89.9422 0.102564 89.6647 0.136752 89.4219 0.17094V15.5897C89.4566 18.9402 87.5835 21.9145 82.3112 19.5214Z" fill="#682DB3"/>
<path d="M110.026 16.2052C110.026 15.2821 109.956 14.4616 109.818 13.6411C109.679 12.8548 109.436 12.1368 109.089 11.453C108.742 10.7693 108.291 10.1539 107.736 9.60689C107.077 8.9915 106.349 8.54706 105.516 8.23937C104.684 7.93167 103.747 7.79492 102.776 7.79492C101.805 7.79492 100.903 7.93167 100.071 8.23937C99.2382 8.54706 98.5098 8.9915 97.8507 9.60689C97.2957 10.1881 96.8101 10.8035 96.4979 11.453C96.1511 12.1368 95.9083 12.8548 95.7695 13.6411C95.6308 14.4274 95.5614 15.2821 95.5614 16.2052C95.5614 17.1283 95.6308 17.9488 95.7695 18.7351C95.9083 19.5214 96.1511 20.2394 96.4979 20.9231C96.8448 21.6069 97.2957 22.2223 97.8507 22.7693C98.5098 23.3847 99.2382 23.8633 100.071 24.171C100.903 24.4787 101.805 24.6154 102.776 24.6154C103.782 24.6154 104.684 24.4787 105.516 24.171C106.349 23.8633 107.112 23.4189 107.736 22.7693C108.291 22.1881 108.777 21.5727 109.089 20.9231C109.436 20.2394 109.679 19.5214 109.818 18.7351C109.956 17.983 110.06 17.1283 110.026 16.2052ZM99.8625 16.2052C99.8625 15.4872 99.8972 14.8035 99.9666 14.1881C100.036 13.5727 100.209 12.9915 100.418 12.5129C100.626 12.0342 100.938 11.6582 101.319 11.3505C101.701 11.077 102.187 10.9402 102.811 10.9402C103.401 10.9402 103.886 11.077 104.268 11.3505C104.649 11.624 104.961 12 105.135 12.5129C105.343 12.9915 105.482 13.5727 105.586 14.1881C105.655 14.8035 105.725 15.4872 105.69 16.2052C105.69 16.8889 105.655 17.5727 105.586 18.1881C105.516 18.8035 105.343 19.3847 105.135 19.8633C104.927 20.3419 104.615 20.718 104.268 20.9915C103.886 21.265 103.401 21.4018 102.811 21.4018C102.221 21.4018 101.736 21.265 101.319 20.9915C100.938 20.718 100.626 20.3419 100.418 19.8633C100.209 19.3847 100.071 18.8035 99.9666 18.1881C99.8972 17.5727 99.8278 16.9231 99.8625 16.2052Z" fill="#682DB3"/>
<path fill-rule="evenodd" clip-rule="evenodd" d="M131.219 21.5044C132.19 21.5044 132.988 22.2907 132.988 23.248C132.988 24.2052 132.19 24.9916 131.219 24.9916C130.248 24.9916 129.45 24.2052 129.45 23.248C129.415 22.2907 130.213 21.5044 131.219 21.5044Z" fill="#682DB3"/>
<path fill-rule="evenodd" clip-rule="evenodd" d="M123.9 7.86331C130.421 8.27357 128.687 13.8804 126.363 17.9488L126.432 17.983C126.779 18.1881 126.745 18.9744 126.224 19.6582C124.282 22.0513 123.588 23.8975 122.097 25.0599C122.062 25.1283 122.027 25.1625 121.958 25.2308C124.178 24.889 125.704 24.6838 127.438 23.7949C127.404 23.624 127.404 23.4531 127.404 23.2821C127.404 21.2308 129.103 19.5214 131.219 19.5214C133.3 19.5214 135.035 21.1966 135.035 23.2821C135.035 25.3334 133.335 27.0428 131.219 27.0428C129.901 27.0428 128.722 26.359 128.028 25.3676C125.808 26.3932 124.004 26.6325 120.64 27.0428C117.067 31.7607 114.362 35.9659 111.17 36.0684C107.459 36.0343 106.661 32.5471 107.043 31.1112C108.083 26.4274 111.795 26.6325 116.824 26.1197C116.894 26.0172 116.963 25.9146 117.032 25.8462C115.749 24.4103 114.57 22.2907 113.078 19.5898C112.835 18.906 112.939 18.359 113.356 18.1539C110.754 13.983 108.499 8.34194 115.471 7.8975C116.616 7.86331 117.934 6.87186 118.073 7.82912C118.212 11.1796 117.761 9.81203 115.229 9.43596C110.477 9.12827 112.87 15.0086 114.917 17.3676C115.471 17.0257 116.061 17.436 116.131 17.6411C117.067 19.9317 118.593 22.8035 119.495 22.7351C120.64 22.906 121.993 19.7266 123.9 17.436C124.143 17.0599 124.594 16.9915 124.872 17.1966C126.641 14.4616 128.34 9.19664 124.074 9.47015C121.576 9.84622 121.16 11.2479 121.299 7.86331C121.472 6.83767 122.756 7.86331 123.9 7.86331ZM131.219 20.5129C129.693 20.5129 128.444 21.7437 128.444 23.2479C128.444 24.7522 129.693 25.983 131.219 25.983C132.745 25.983 133.994 24.7522 133.994 23.2479C133.994 21.7437 132.745 20.5129 131.219 20.5129ZM116.373 27.5898C112.107 27.7607 107.84 28.7522 109.159 31.9317C110.824 35.5556 114.292 30.3248 116.373 27.5898Z" fill="#682DB3"/>
</svg>
