<svg width="135" height="55" viewBox="0 0 135 55" fill="none" xmlns="http://www.w3.org/2000/svg">
<path d="M38.9306 38.8024V21.2024H40.8265L45.2547 32.0855V21.2024H47.7872V38.8024H45.9882L41.463 27.0943V38.8024H38.9306Z" fill="#3F9ACB"/>
<path d="M54.9832 38.9743C54.0906 38.9743 53.3295 38.8368 52.6929 38.5756C52.0563 38.3074 51.5512 37.9156 51.1776 37.3999C50.804 36.8843 50.5272 36.2724 50.3542 35.5781C50.1812 34.8837 50.0982 34.0724 50.0982 33.1443V26.7574C50.0982 25.8362 50.1812 25.0318 50.3542 24.3443C50.5272 23.6568 50.797 23.0587 51.1776 22.5499C51.5512 22.0412 52.0563 21.6631 52.6929 21.4087C53.3295 21.1543 54.0906 21.0237 54.9832 21.0237C56.706 21.0237 57.9515 21.5118 58.7195 22.4949C59.4875 23.4781 59.8681 24.9012 59.8681 26.7574V33.1443C59.8681 34.0518 59.7782 34.8562 59.6052 35.5574C59.4322 36.2518 59.1554 36.8637 58.7818 37.3862C58.4082 37.9087 57.9031 38.3006 57.2665 38.5756C56.6299 38.8437 55.8688 38.9743 54.9832 38.9743ZM53.1427 36.1212C53.4817 36.6506 54.0975 36.9187 54.9901 36.9187C55.8826 36.9187 56.4915 36.6574 56.8306 36.1212C57.1696 35.5918 57.3426 34.8081 57.3426 33.7768V26.1318C57.3426 25.1074 57.1765 24.3443 56.8375 23.8424C56.4985 23.3406 55.8826 23.0862 54.9901 23.0862C54.0906 23.0862 53.4748 23.3406 53.1427 23.8424C52.8105 24.3443 52.6375 25.1074 52.6375 26.1318V33.7699C52.6306 34.8081 52.8036 35.5918 53.1427 36.1212Z" fill="#3F9ACB"/>
<path d="M66.7458 38.9743C65.8532 38.9743 65.0921 38.8368 64.4555 38.5756C63.819 38.3074 63.3139 37.9156 62.9402 37.3999C62.5666 36.8843 62.2898 36.2724 62.1169 35.5781C61.9439 34.8837 61.8608 34.0724 61.8608 33.1443V26.7574C61.8608 25.8362 61.9439 25.0318 62.1169 24.3443C62.2898 23.6568 62.5597 23.0587 62.9402 22.5499C63.3139 22.0412 63.819 21.6631 64.4555 21.4087C65.0921 21.1543 65.8532 21.0237 66.7458 21.0237C68.4756 21.0237 69.721 21.5118 70.4822 22.4949C71.2502 23.4781 71.6307 24.9012 71.6307 26.7574V33.1443C71.6307 34.0518 71.5408 34.8562 71.3678 35.5574C71.1948 36.2518 70.9181 36.8637 70.5444 37.3862C70.1708 37.9087 69.6657 38.3006 69.0291 38.5756C68.3926 38.8437 67.6314 38.9743 66.7458 38.9743ZM64.9053 36.1212C65.2443 36.6506 65.8601 36.9187 66.7458 36.9187C67.6384 36.9187 68.2473 36.6574 68.5863 36.1212C68.9253 35.5918 69.0983 34.8081 69.0983 33.7768V26.1318C69.0983 25.1074 68.9323 24.3443 68.5932 23.8424C68.2611 23.3406 67.6453 23.0862 66.7458 23.0862C65.8532 23.0862 65.2305 23.3406 64.8984 23.8424C64.5662 24.3443 64.3933 25.1074 64.3933 26.1318V33.7699C64.3933 34.8081 64.5662 35.5918 64.9053 36.1212Z" fill="#3F9ACB"/>
<path d="M78.5637 38.9743C76.9723 38.9743 75.7545 38.5068 74.9104 37.5787C74.0732 36.6506 73.5957 35.3787 73.4989 33.7699L76.0313 33.1443C76.1558 35.6606 77 36.9118 78.5637 36.9118C79.8299 36.9118 80.4596 36.2862 80.4596 35.0281C80.4596 34.6568 80.4111 34.3062 80.3073 33.9899C80.2036 33.6737 80.0513 33.3849 79.8368 33.1168C79.6223 32.8487 79.4355 32.6356 79.2625 32.4774C79.0896 32.3193 78.8612 32.1199 78.5637 31.8862L75.4016 29.3699C74.8204 28.9162 74.3568 28.3456 74.0109 27.6443C73.6649 26.9499 73.4919 26.1524 73.4919 25.2656C73.4919 23.9662 73.9002 22.9349 74.7097 22.1718C75.5193 21.4087 76.5917 21.0237 77.9341 21.0237C79.3733 21.0237 80.5149 21.3743 81.3591 22.0687C82.2032 22.7631 82.7291 23.7531 82.9228 25.0318C82.9436 25.1693 82.9643 25.3618 82.992 25.6024L80.4596 26.2281C80.4527 26.1181 80.4388 25.9531 80.4111 25.7262C80.3004 24.9287 80.0513 24.2893 79.6569 23.8081C79.2625 23.3268 78.6883 23.0862 77.9341 23.0862C77.3252 23.0862 76.8616 23.2581 76.5295 23.5949C76.1973 23.9318 76.0313 24.3993 76.0313 25.0043C76.0313 25.9943 76.4534 26.8193 77.2975 27.4862L80.4596 30.0024C82.1479 31.3568 82.992 32.9793 82.992 34.8631C82.992 36.1556 82.5907 37.1593 81.795 37.8881C80.9923 38.6168 79.9129 38.9743 78.5637 38.9743Z" fill="#3F9ACB"/>
<path d="M84.9432 38.8024V21.2024H89.3715C92.326 21.2024 93.7998 22.8799 93.7998 26.228C93.7998 27.6649 93.4192 28.7511 92.6581 29.5005C91.897 30.2499 90.8038 30.628 89.3715 30.628H87.4757V38.7955H84.9432V38.8024ZM87.4687 28.7443H88.0984C88.6727 28.7443 89.1432 28.7099 89.5099 28.648C89.8766 28.5793 90.1949 28.4624 90.4786 28.2768C90.7554 28.098 90.956 27.8368 91.0806 27.5068C91.2051 27.1699 91.2674 26.7505 91.2674 26.228C91.2674 25.6024 91.2189 25.0868 91.129 24.7018C91.039 24.3099 90.8661 23.9936 90.617 23.7461C90.3679 23.4986 90.0496 23.3268 89.6552 23.2305C89.2608 23.1343 88.7488 23.0861 88.0984 23.0861H87.4687V28.7443Z" fill="#3F9ACB"/>
<path d="M95.3289 38.8024V21.2024H97.8613V28.7443H102.29V21.2024H104.822V38.8024H102.29V30.628H97.8613V38.7955H95.3289V38.8024Z" fill="#3F9ACB"/>
<path d="M107.451 38.8024V21.2024H114.412V23.0861H109.984V28.7443H113.146V30.628H109.984V36.9118H114.412V38.7955H107.451V38.8024Z" fill="#3F9ACB"/>
<path d="M116.066 38.8024V21.2024H119.228C121.11 21.2024 122.528 21.5668 123.49 22.2886C124.445 23.0174 124.922 24.2274 124.922 25.9118C124.922 26.9568 124.735 27.8368 124.362 28.5449C123.988 29.253 123.435 29.7343 122.708 29.9955L125.552 38.7955H123.04L120.487 30.628H118.591V38.7955H116.066V38.8024ZM118.591 28.7443H119.228C120.28 28.7443 121.068 28.5243 121.601 28.0843C122.127 27.6443 122.39 26.9224 122.39 25.9186C122.39 24.9149 122.127 24.193 121.601 23.753C121.075 23.313 120.28 23.093 119.228 23.093H118.591V28.7443Z" fill="#3F9ACB"/>
<path d="M127.116 38.8024V21.2024H134.076V23.0861H129.648V28.7443H132.81V30.628H129.648V36.9118H134.076V38.7955H127.116V38.8024Z" fill="#3F9ACB"/>
<path d="M41.0341 44.5225V45.0931H39.8855V49.665H39.2143V45.0931H38.0657V44.5225H41.0341Z" fill="#DCDBDB"/>
<path d="M42.1965 47.9051C42.2034 48.0907 42.2173 48.2626 42.2519 48.4207C42.2795 48.5789 42.328 48.7095 42.3972 48.8264C42.4664 48.9432 42.5563 49.0326 42.667 49.0945C42.7777 49.1564 42.923 49.1907 43.096 49.1907C43.2413 49.1907 43.3728 49.1701 43.4973 49.1289C43.6219 49.0876 43.7049 49.0532 43.7602 49.0189L43.8779 49.5276C43.8156 49.5757 43.7049 49.6239 43.5527 49.672C43.4004 49.727 43.2205 49.7476 43.013 49.7476C42.7362 49.7476 42.5079 49.6995 42.3211 49.5964C42.1342 49.5001 41.982 49.3557 41.8644 49.1839C41.7468 49.0051 41.6637 48.792 41.6153 48.5445C41.5669 48.297 41.5392 48.022 41.5392 47.7264C41.5392 47.0114 41.6568 46.482 41.899 46.152C42.1412 45.822 42.4525 45.657 42.8469 45.657C43.2897 45.657 43.6011 45.822 43.7879 46.152C43.9747 46.482 44.0647 46.9495 44.0647 47.5476C44.0647 47.6026 44.0647 47.6576 44.0647 47.7126C44.0647 47.7676 44.0647 47.8295 44.0578 47.8845H42.1965V47.9051ZM42.8469 46.2139C42.6324 46.2139 42.4802 46.317 42.3764 46.5301C42.2795 46.7432 42.2173 47.0251 42.2034 47.3826H43.3935C43.3935 47.0251 43.3589 46.7364 43.2828 46.5232C43.2067 46.317 43.0614 46.2139 42.8469 46.2139Z" fill="#DCDBDB"/>
<path d="M46.2511 49.7613C45.9813 49.7613 45.7599 49.7063 45.58 49.6032C45.4001 49.5 45.2548 49.3557 45.1441 49.1769C45.0334 48.9982 44.9503 48.785 44.9019 48.5375C44.8535 48.29 44.8327 48.0219 44.8327 47.7263C44.8327 47.08 44.9503 46.5782 45.1856 46.2138C45.4208 45.8494 45.7806 45.6707 46.2581 45.6707C46.4034 45.6707 46.5348 45.6913 46.6455 45.7257C46.7632 45.76 46.8669 45.8013 46.9638 45.8563L46.7978 46.3857C46.6455 46.2894 46.4726 46.2344 46.2788 46.2344C46.009 46.2344 45.8083 46.3582 45.6838 46.5988C45.5592 46.8394 45.49 47.2175 45.49 47.7263C45.49 47.9394 45.5039 48.1388 45.5246 48.3175C45.5523 48.4963 45.5938 48.6544 45.6561 48.785C45.7184 48.9157 45.8014 49.0119 45.9052 49.0875C46.009 49.1632 46.1404 49.1975 46.2996 49.1975C46.4103 49.1975 46.5071 49.1838 46.5971 49.1563C46.687 49.1288 46.7701 49.0944 46.8462 49.0463L46.9915 49.5413C46.9085 49.5963 46.8047 49.6444 46.6732 49.6925C46.5487 49.7407 46.4034 49.7613 46.2511 49.7613Z" fill="#DCDBDB"/>
<path d="M47.7319 49.6651V44.0138L48.3754 43.9038V45.7876C48.4722 45.7601 48.576 45.7326 48.6867 45.7119C48.7974 45.6913 48.9081 45.6844 49.0258 45.6844C49.1918 45.6844 49.344 45.7119 49.4893 45.7601C49.6347 45.8151 49.7592 45.8976 49.863 46.0213C49.9668 46.1451 50.0567 46.3101 50.119 46.5232C50.1813 46.7363 50.2159 46.9976 50.2159 47.3069V49.6582H49.5724V47.3551C49.5724 46.9701 49.5239 46.6882 49.4202 46.5094C49.3233 46.3307 49.1365 46.2413 48.8597 46.2413C48.7144 46.2413 48.5553 46.2688 48.3754 46.3169V49.6582H47.7319V49.6651Z" fill="#DCDBDB"/>
<path d="M51.3644 45.8839C51.5513 45.8289 51.745 45.7808 51.9595 45.7464C52.174 45.712 52.3677 45.6914 52.5476 45.6914C52.7414 45.6914 52.9213 45.7189 53.0804 45.767C53.2395 45.822 53.3779 45.9045 53.4886 46.0283C53.5993 46.152 53.6893 46.317 53.7516 46.5302C53.8138 46.7433 53.8484 47.0045 53.8484 47.3139V49.6652H53.2049V47.362C53.2049 46.977 53.1565 46.6952 53.0527 46.5164C52.9559 46.3377 52.769 46.2483 52.4923 46.2483C52.347 46.2483 52.1878 46.2758 52.0079 46.3239V49.6652H51.3644V45.8839Z" fill="#DCDBDB"/>
<path d="M57.5225 47.7194C57.5225 48.0288 57.4948 48.3038 57.4395 48.5582C57.3841 48.8057 57.3011 49.0257 57.1904 49.1975C57.0797 49.3763 56.9344 49.5138 56.7614 49.61C56.5884 49.7063 56.3877 49.7613 56.1525 49.7613C55.9172 49.7613 55.7166 49.7132 55.5367 49.61C55.3637 49.5138 55.2184 49.3694 55.1077 49.1975C54.997 49.0188 54.914 48.8057 54.8586 48.5582C54.8033 48.3107 54.7756 48.0288 54.7756 47.7194C54.7756 47.4169 54.8033 47.1419 54.8586 46.8875C54.914 46.6332 54.997 46.42 55.1077 46.2413C55.2184 46.0625 55.3637 45.9182 55.5367 45.8219C55.7097 45.7257 55.9172 45.6707 56.1525 45.6707C56.3877 45.6707 56.5884 45.7188 56.7614 45.8219C56.9344 45.9182 57.0727 46.0625 57.1904 46.2413C57.3011 46.42 57.3841 46.64 57.4395 46.8875C57.4948 47.135 57.5225 47.4169 57.5225 47.7194ZM56.8513 47.7194C56.8513 47.4994 56.8375 47.3 56.8167 47.1213C56.7891 46.9425 56.7545 46.7844 56.6991 46.6538C56.6438 46.5232 56.5746 46.42 56.4846 46.3513C56.3947 46.2757 56.2909 46.2413 56.1663 46.2413C56.0349 46.2413 55.9311 46.2757 55.8411 46.3513C55.7512 46.42 55.682 46.5232 55.6266 46.6538C55.5713 46.7844 55.5298 46.9425 55.5021 47.1213C55.4744 47.3 55.4675 47.4994 55.4675 47.7194C55.4675 47.9394 55.4813 48.1388 55.5021 48.3175C55.5298 48.4963 55.5644 48.6544 55.6266 48.785C55.682 48.9157 55.7581 49.0119 55.8411 49.0875C55.9311 49.1563 56.0349 49.1975 56.1663 49.1975C56.2909 49.1975 56.3947 49.1632 56.4846 49.0875C56.5746 49.0188 56.6438 48.9157 56.6991 48.785C56.7545 48.6544 56.796 48.5032 56.8167 48.3175C56.8375 48.1388 56.8513 47.9394 56.8513 47.7194Z" fill="#DCDBDB"/>
<path d="M59.5222 49.7406C59.1555 49.7338 58.8925 49.6375 58.7334 49.4725C58.5742 49.3006 58.4912 49.0325 58.4912 48.6613V44.0206L59.1347 43.9106V48.675C59.1347 48.8469 59.1693 48.9706 59.2385 49.0463C59.3077 49.1219 59.4322 49.1769 59.6052 49.2044L59.5222 49.7406Z" fill="#DCDBDB"/>
<path d="M62.878 47.7194C62.878 48.0288 62.8503 48.3038 62.7949 48.5582C62.7396 48.8057 62.6565 49.0257 62.5458 49.1975C62.4351 49.3763 62.2898 49.5138 62.1169 49.61C61.9439 49.7063 61.7432 49.7613 61.508 49.7613C61.2727 49.7613 61.0721 49.7132 60.8922 49.61C60.7192 49.5138 60.5739 49.3694 60.4632 49.1975C60.3525 49.0188 60.2694 48.8057 60.2141 48.5582C60.1587 48.3107 60.131 48.0288 60.131 47.7194C60.131 47.4169 60.1587 47.1419 60.2141 46.8875C60.2694 46.6332 60.3525 46.42 60.4632 46.2413C60.5808 46.0625 60.7192 45.9182 60.8991 45.8219C61.0721 45.7257 61.2796 45.6707 61.5149 45.6707C61.7501 45.6707 61.9508 45.7188 62.1238 45.8219C62.2968 45.9182 62.4351 46.0625 62.5528 46.2413C62.6635 46.42 62.7465 46.64 62.8019 46.8875C62.8572 47.135 62.878 47.4169 62.878 47.7194ZM62.2068 47.7194C62.2068 47.4994 62.193 47.3 62.1722 47.1213C62.1445 46.9425 62.1099 46.7844 62.0546 46.6538C61.9992 46.5232 61.93 46.42 61.8401 46.3513C61.7501 46.2757 61.6463 46.2413 61.5218 46.2413C61.3903 46.2413 61.2865 46.2757 61.1966 46.3513C61.1066 46.42 61.0375 46.5232 60.9821 46.6538C60.9268 46.7844 60.8852 46.9425 60.8576 47.1213C60.8299 47.3 60.823 47.4994 60.823 47.7194C60.823 47.9394 60.8368 48.1388 60.8576 48.3175C60.8852 48.4963 60.9198 48.6544 60.9821 48.785C61.0375 48.9157 61.1136 49.0119 61.1966 49.0875C61.2865 49.1563 61.3903 49.1975 61.5218 49.1975C61.6463 49.1975 61.7501 49.1632 61.8401 49.0875C61.93 49.0188 61.9992 48.9157 62.0546 48.785C62.1099 48.6544 62.1514 48.5032 62.1722 48.3175C62.193 48.1388 62.2068 47.9394 62.2068 47.7194Z" fill="#DCDBDB"/>
<path d="M66.1853 49.5551C66.1853 49.8301 66.1507 50.0638 66.0746 50.2563C66.0054 50.4488 65.9017 50.6001 65.7771 50.7238C65.6526 50.8407 65.5073 50.9301 65.3412 50.9851C65.1751 51.0401 64.9952 51.0676 64.8084 51.0676C64.6493 51.0676 64.4901 51.0469 64.331 51.0126C64.1719 50.9782 64.0266 50.9232 63.8882 50.8544L64.0196 50.3182C64.1096 50.3663 64.2203 50.4144 64.3518 50.4488C64.4832 50.4901 64.6147 50.5107 64.7531 50.5107C64.9952 50.5107 65.189 50.4419 65.3274 50.3044C65.4657 50.1669 65.5349 49.9263 65.5349 49.5894V49.4038C65.4519 49.4382 65.3689 49.4657 65.2789 49.4863C65.189 49.5069 65.0852 49.5207 64.9745 49.5207C64.504 49.5207 64.1649 49.3626 63.9504 49.0394C63.736 48.7232 63.6252 48.2694 63.6252 47.6851C63.6252 47.3757 63.6529 47.0938 63.7083 46.8394C63.7636 46.5919 63.8536 46.3788 63.9781 46.2001C64.1027 46.0213 64.2618 45.8907 64.4555 45.8013C64.6493 45.7119 64.8845 45.6638 65.1682 45.6638C65.355 45.6638 65.5349 45.6844 65.7079 45.7188C65.8878 45.7532 66.04 45.8013 66.1853 45.8632V49.5551ZM65.5419 46.2894C65.4727 46.2688 65.4035 46.2551 65.3412 46.2482C65.2789 46.2413 65.2167 46.2344 65.1613 46.2344C64.8638 46.2344 64.6424 46.3513 64.504 46.5782C64.3656 46.8051 64.2964 47.1763 64.2964 47.6919C64.2964 48.1594 64.3656 48.4826 64.4971 48.6751C64.6285 48.8676 64.8223 48.9638 65.0714 48.9638C65.1544 48.9638 65.2374 48.9569 65.3135 48.9363C65.3896 48.9157 65.4658 48.8882 65.5349 48.8538V46.2894H65.5419Z" fill="#DCDBDB"/>
<path d="M68.2888 48.8608C68.4341 48.3658 68.5655 47.8708 68.6831 47.3689C68.8008 46.8671 68.9184 46.3377 69.0291 45.7739H69.6657C69.5896 46.1383 69.5134 46.4889 69.4235 46.8464C69.3335 47.197 69.2505 47.5339 69.1537 47.8639C69.0637 48.1939 68.9668 48.4964 68.8769 48.7921C68.7869 49.0808 68.697 49.3421 68.6209 49.5827C68.524 49.8577 68.4341 50.0914 68.3441 50.2839C68.2542 50.4764 68.1642 50.6277 68.0604 50.7445C67.9566 50.8614 67.8459 50.9439 67.7283 50.9989C67.6107 51.0539 67.4654 51.0746 67.2993 51.0746C67.2094 51.0746 67.1194 51.0608 67.0295 51.0402C66.9395 51.0195 66.8634 50.992 66.808 50.9714L66.9257 50.4489C67.0571 50.5039 67.1748 50.5314 67.2924 50.5314C67.4377 50.5314 67.5553 50.4764 67.6453 50.3733C67.7352 50.2702 67.8252 50.112 67.9082 49.9058L67.9843 49.7202C67.8874 49.4658 67.7906 49.177 67.6937 48.8608C67.5968 48.5445 67.5 48.2214 67.41 47.8777C67.3201 47.5339 67.2301 47.1833 67.1471 46.8258C67.0641 46.4683 66.9879 46.1177 66.9118 45.7739H67.5899C67.6314 46.0077 67.6799 46.2621 67.7352 46.5371C67.7906 46.8121 67.8459 47.0939 67.9082 47.3689C67.9705 47.6439 68.0327 47.912 68.1019 48.1733C68.1642 48.4277 68.2265 48.6614 68.2888 48.8608Z" fill="#DCDBDB"/>
<path d="M76.3704 44.5225C76.2597 44.6875 76.1351 44.8731 76.0037 45.0793C75.8653 45.2856 75.7269 45.4918 75.5816 45.705C75.4363 45.9181 75.291 46.1312 75.1457 46.3375C75.0004 46.5437 74.8551 46.7362 74.7236 46.915C74.8758 47.0662 75.035 47.2518 75.208 47.4787C75.3809 47.7056 75.5539 47.9393 75.72 48.1937C75.893 48.4412 76.0521 48.6956 76.1974 48.9568C76.3496 49.2181 76.4673 49.4518 76.5572 49.6718H75.803C75.6992 49.445 75.5747 49.2112 75.4432 48.9706C75.3048 48.73 75.1595 48.5031 75.0073 48.2831C74.8551 48.0631 74.7029 47.8568 74.5437 47.6712C74.3846 47.4856 74.2324 47.3275 74.0871 47.1968V49.6718H73.4159V44.5293H74.0871V46.7981C74.2185 46.6331 74.35 46.4475 74.4953 46.2412C74.6406 46.035 74.7859 45.8287 74.9243 45.6156C75.0696 45.4093 75.201 45.21 75.3256 45.0175C75.4501 44.825 75.5539 44.66 75.637 44.5225H76.3704Z" fill="#DCDBDB"/>
<path d="M77.256 45.8839C77.4429 45.8289 77.6366 45.7808 77.8511 45.7464C78.0656 45.712 78.2593 45.6914 78.4392 45.6914C78.633 45.6914 78.8129 45.7189 78.972 45.767C79.1311 45.822 79.2695 45.9045 79.3802 46.0283C79.4909 46.152 79.5809 46.317 79.6432 46.5302C79.7054 46.7433 79.74 47.0045 79.74 47.3139V49.6652H79.0965V47.362C79.0965 46.977 79.0481 46.6952 78.9443 46.5164C78.8475 46.3377 78.6606 46.2483 78.3839 46.2483C78.2386 46.2483 78.0794 46.2758 77.8995 46.3239V49.6652H77.256V45.8839Z" fill="#DCDBDB"/>
<path d="M83.4141 47.7194C83.4141 48.0288 83.3864 48.3038 83.3311 48.5582C83.2757 48.8057 83.1927 49.0257 83.082 49.1975C82.9713 49.3763 82.826 49.5138 82.653 49.61C82.48 49.7063 82.2793 49.7613 82.0441 49.7613C81.8088 49.7613 81.6082 49.7132 81.4283 49.61C81.2553 49.5138 81.11 49.3694 80.9993 49.1975C80.8886 49.0188 80.8056 48.8057 80.7502 48.5582C80.6949 48.3107 80.6672 48.0288 80.6672 47.7194C80.6672 47.4169 80.6949 47.1419 80.7502 46.8875C80.8056 46.6332 80.8886 46.42 80.9993 46.2413C81.11 46.0625 81.2553 45.9182 81.4283 45.8219C81.6013 45.7257 81.8088 45.6707 82.0441 45.6707C82.2793 45.6707 82.48 45.7188 82.653 45.8219C82.826 45.9182 82.9643 46.0625 83.082 46.2413C83.1927 46.42 83.2757 46.64 83.3311 46.8875C83.3864 47.1419 83.4141 47.4169 83.4141 47.7194ZM82.736 47.7194C82.736 47.4994 82.7222 47.3 82.7014 47.1213C82.6737 46.9425 82.6391 46.7844 82.5838 46.6538C82.5284 46.5232 82.4592 46.42 82.3693 46.3513C82.2793 46.2757 82.1756 46.2413 82.051 46.2413C81.9195 46.2413 81.8158 46.2757 81.7258 46.3513C81.6359 46.42 81.5667 46.5232 81.5113 46.6538C81.456 46.7844 81.4144 46.9425 81.3868 47.1213C81.3591 47.3 81.3522 47.4994 81.3522 47.7194C81.3522 47.9394 81.366 48.1388 81.3868 48.3175C81.4144 48.4963 81.449 48.6544 81.5113 48.785C81.5667 48.9157 81.6428 49.0119 81.7258 49.0875C81.8158 49.1563 81.9195 49.1975 82.051 49.1975C82.1756 49.1975 82.2863 49.1632 82.3693 49.0875C82.4592 49.0188 82.5284 48.9157 82.5838 48.785C82.6391 48.6544 82.6807 48.5032 82.7014 48.3175C82.7291 48.1388 82.736 47.9394 82.736 47.7194Z" fill="#DCDBDB"/>
<path d="M85.4207 49.665H84.7703C84.6181 49.1563 84.4658 48.5719 84.3275 47.905C84.1891 47.245 84.0645 46.53 83.9469 45.7669H84.5835C84.6042 45.98 84.6319 46.2275 84.6734 46.5163C84.7149 46.7981 84.7564 47.0938 84.8049 47.3894C84.8533 47.6919 84.9018 47.9806 84.9502 48.2556C84.9986 48.5375 85.0471 48.7713 85.0955 48.9706C85.1439 48.7713 85.1924 48.5306 85.2477 48.2419C85.3031 47.9531 85.3653 47.6575 85.4207 47.355C85.476 47.0525 85.5314 46.7569 85.5798 46.475C85.6283 46.1931 85.6698 45.9525 85.6975 45.76H86.2994C86.3202 45.9525 86.3479 46.1931 86.3894 46.475C86.4309 46.7569 86.4793 47.0525 86.5208 47.355C86.5693 47.6575 86.6177 47.9531 86.6661 48.2419C86.7146 48.5306 86.763 48.7713 86.7976 48.9706C86.846 48.7713 86.8876 48.5306 86.936 48.2488C86.9844 47.9669 87.0329 47.6781 87.0813 47.3825C87.1297 47.0869 87.1712 46.7913 87.2128 46.5094C87.2543 46.2275 87.282 45.9731 87.3027 45.76H87.9185C87.8009 46.5231 87.6833 47.2381 87.5449 47.8981C87.4065 48.565 87.2612 49.1494 87.109 49.6581H86.4793C86.4378 49.5069 86.3963 49.3075 86.3479 49.0669C86.2994 48.8263 86.251 48.5719 86.2026 48.2969C86.1541 48.0219 86.1126 47.7538 86.0711 47.4788C86.0296 47.2038 85.995 46.9563 85.9673 46.7225C85.9396 46.9494 85.8981 47.2038 85.8497 47.4788C85.8012 47.7538 85.7459 48.0288 85.6905 48.2969C85.6352 48.5719 85.5798 48.8263 85.5314 49.0669C85.5037 49.3144 85.4553 49.5138 85.4207 49.665Z" fill="#DCDBDB"/>
<path d="M89.7244 49.7406C89.3577 49.7338 89.0948 49.6375 88.9356 49.4725C88.7765 49.3006 88.6935 49.0325 88.6935 48.6613V44.0206L89.337 43.9106V48.675C89.337 48.8469 89.3716 48.9706 89.4408 49.0463C89.5099 49.1219 89.6345 49.1769 89.8075 49.2044L89.7244 49.7406Z" fill="#DCDBDB"/>
<path d="M91.0045 47.9051C91.0114 48.0907 91.0252 48.2626 91.0598 48.4207C91.0875 48.5789 91.1359 48.7095 91.2051 48.8264C91.2743 48.9432 91.3643 49.0326 91.475 49.0945C91.5857 49.1564 91.731 49.1907 91.904 49.1907C92.0493 49.1907 92.1808 49.1701 92.3053 49.1289C92.4298 49.0876 92.5129 49.0532 92.5682 49.0189L92.6858 49.5276C92.6236 49.5757 92.5129 49.6239 92.3606 49.672C92.2084 49.727 92.0285 49.7476 91.8209 49.7476C91.5442 49.7476 91.3158 49.6995 91.129 49.5964C90.9422 49.5001 90.79 49.3557 90.6724 49.1839C90.5547 49.0051 90.4717 48.792 90.4233 48.5445C90.3748 48.297 90.3472 48.022 90.3472 47.7264C90.3472 47.0114 90.4648 46.482 90.707 46.152C90.9491 45.822 91.2605 45.657 91.6549 45.657C92.0977 45.657 92.4091 45.822 92.5959 46.152C92.7827 46.482 92.8727 46.9495 92.8727 47.5476C92.8727 47.6026 92.8727 47.6576 92.8727 47.7126C92.8727 47.7676 92.8727 47.8295 92.8658 47.8845H91.0045V47.9051ZM91.6549 46.2139C91.4404 46.2139 91.2813 46.317 91.1844 46.5301C91.0875 46.7432 91.0322 47.0251 91.0114 47.3826H92.2015C92.2015 47.0251 92.1669 46.7364 92.0908 46.5232C92.0147 46.317 91.8694 46.2139 91.6549 46.2139Z" fill="#DCDBDB"/>
<path d="M95.5435 44.0138L96.187 43.9038V49.5619C96.0486 49.6238 95.8894 49.6719 95.7095 49.7063C95.5296 49.7407 95.3497 49.7613 95.1629 49.7613C94.6232 49.7613 94.2358 49.5894 93.9936 49.2457C93.7514 48.9019 93.6338 48.3863 93.6338 47.6988C93.6338 47.3894 93.6615 47.1076 93.7099 46.8532C93.7653 46.6057 93.8414 46.3926 93.959 46.2138C94.0697 46.0351 94.215 45.9044 94.388 45.8082C94.561 45.7119 94.7685 45.6638 95.0107 45.6638C95.1283 45.6638 95.2252 45.6776 95.3082 45.6982C95.3913 45.7188 95.4743 45.7532 95.5504 45.7944V44.0138H95.5435ZM95.5435 46.3582C95.3982 46.2757 95.246 46.2413 95.0799 46.2413C94.9554 46.2413 94.8446 46.2688 94.7478 46.3169C94.6509 46.3651 94.5748 46.4476 94.5056 46.5644C94.4364 46.6813 94.388 46.8257 94.3534 47.0182C94.3188 47.2038 94.298 47.4376 94.298 47.7126C94.298 48.2488 94.3672 48.6269 94.5125 48.8607C94.6578 49.0944 94.8723 49.2044 95.156 49.2044C95.2114 49.2044 95.2736 49.1976 95.3359 49.1907C95.3982 49.1838 95.4674 49.1701 95.5366 49.1494V46.3582H95.5435Z" fill="#DCDBDB"/>
<path d="M99.7158 49.5551C99.7158 49.8301 99.6812 50.0638 99.605 50.2563C99.5359 50.4488 99.4321 50.6001 99.3075 50.7238C99.183 50.8407 99.0377 50.9301 98.8716 50.9851C98.7056 51.0401 98.5257 51.0676 98.3388 51.0676C98.1797 51.0676 98.0206 51.0469 97.8614 51.0126C97.7023 50.9782 97.557 50.9232 97.4186 50.8544L97.55 50.3182C97.64 50.3663 97.7507 50.4144 97.8822 50.4488C98.0136 50.4901 98.1451 50.5107 98.2835 50.5107C98.5257 50.5107 98.7194 50.4419 98.8578 50.3044C98.9962 50.1669 99.0654 49.9263 99.0654 49.5894V49.4038C98.9823 49.4382 98.8993 49.4657 98.8093 49.4863C98.7194 49.5069 98.6156 49.5207 98.5049 49.5207C98.0344 49.5207 97.6954 49.3626 97.4739 49.0394C97.2595 48.7232 97.1487 48.2694 97.1487 47.6851C97.1487 47.3757 97.1764 47.0938 97.2318 46.8394C97.2871 46.5919 97.3771 46.3788 97.5016 46.2001C97.6262 46.0213 97.7784 45.8907 97.979 45.8013C98.1728 45.7119 98.408 45.6638 98.6917 45.6638C98.8785 45.6638 99.0584 45.6844 99.2314 45.7188C99.4113 45.7532 99.5635 45.8013 99.7088 45.8632V49.5551H99.7158ZM99.0723 46.2894C99.0031 46.2688 98.9339 46.2551 98.8716 46.2482C98.8093 46.2413 98.7471 46.2344 98.6917 46.2344C98.3942 46.2344 98.1728 46.3513 98.0413 46.5782C97.9029 46.8051 97.8337 47.1763 97.8337 47.6919C97.8337 48.1594 97.9029 48.4826 98.0344 48.6751C98.1659 48.8676 98.3596 48.9638 98.6087 48.9638C98.6917 48.9638 98.7747 48.9569 98.8509 48.9363C98.927 48.9157 99.0031 48.8882 99.0723 48.8538V46.2894Z" fill="#DCDBDB"/>
<path d="M101.356 47.9051C101.362 48.0907 101.376 48.2626 101.411 48.4207C101.439 48.5789 101.487 48.7095 101.556 48.8264C101.625 48.9432 101.715 49.0326 101.826 49.0945C101.937 49.1564 102.082 49.1907 102.255 49.1907C102.4 49.1907 102.532 49.1701 102.656 49.1289C102.781 49.0876 102.864 49.0532 102.919 49.0189L103.037 49.5276C102.975 49.5757 102.864 49.6239 102.712 49.672C102.56 49.727 102.38 49.7476 102.172 49.7476C101.895 49.7476 101.667 49.6995 101.48 49.5964C101.293 49.5001 101.141 49.3557 101.023 49.1839C100.906 49.0051 100.823 48.792 100.774 48.5445C100.726 48.297 100.698 48.022 100.698 47.7264C100.698 47.0114 100.816 46.482 101.058 46.152C101.3 45.822 101.612 45.657 102.006 45.657C102.449 45.657 102.76 45.822 102.947 46.152C103.134 46.482 103.224 46.9495 103.224 47.5476C103.224 47.6026 103.224 47.6576 103.224 47.7126C103.224 47.7676 103.224 47.8295 103.217 47.8845H101.356V47.9051ZM102.006 46.2139C101.791 46.2139 101.639 46.317 101.542 46.5301C101.446 46.7432 101.383 47.0251 101.369 47.3826H102.56C102.56 47.0251 102.525 46.7364 102.449 46.5232C102.359 46.317 102.22 46.2139 102.006 46.2139Z" fill="#DCDBDB"/>
<path d="M109.617 44.5225H110.288V49.665H109.617V47.2725H107.915V49.665H107.244V44.5225H107.915V46.695H109.617V44.5225Z" fill="#DCDBDB"/>
<path d="M113.969 49.555C113.907 49.5825 113.824 49.6031 113.734 49.6237C113.644 49.6443 113.547 49.665 113.443 49.6856C113.34 49.7062 113.236 49.72 113.139 49.7268C113.035 49.7406 112.945 49.7475 112.855 49.7475C112.655 49.7475 112.468 49.7268 112.295 49.6787C112.129 49.6306 111.983 49.5481 111.859 49.4312C111.741 49.3143 111.644 49.1493 111.582 48.9431C111.52 48.7368 111.485 48.4756 111.485 48.1662V45.7668H112.129V48.1456C112.129 48.5237 112.191 48.7918 112.302 48.95C112.419 49.1081 112.599 49.1837 112.835 49.1837C112.911 49.1837 112.994 49.1768 113.077 49.17C113.153 49.1631 113.236 49.1493 113.326 49.1218V45.7668H113.969V49.555Z" fill="#DCDBDB"/>
<path d="M115.159 45.8839C115.332 45.8289 115.526 45.7808 115.727 45.7464C115.927 45.712 116.114 45.6914 116.287 45.6914C116.46 45.6914 116.619 45.712 116.765 45.7602C116.91 45.8083 117.034 45.877 117.138 45.9802C117.27 45.8977 117.408 45.8289 117.56 45.7739C117.713 45.7189 117.872 45.6914 118.052 45.6914C118.231 45.6914 118.398 45.7189 118.543 45.767C118.688 45.822 118.813 45.9045 118.923 46.0283C119.027 46.152 119.11 46.317 119.172 46.5302C119.235 46.7433 119.262 47.0045 119.262 47.3139V49.6652H118.619V47.362C118.619 46.977 118.571 46.6952 118.487 46.5164C118.398 46.3377 118.231 46.2483 117.975 46.2483C117.879 46.2483 117.782 46.2689 117.685 46.3033C117.588 46.3377 117.498 46.3858 117.415 46.4477C117.457 46.5645 117.484 46.6883 117.505 46.8327C117.526 46.977 117.533 47.1352 117.533 47.3139V49.6652H116.889V47.362C116.889 46.977 116.848 46.6952 116.758 46.5164C116.668 46.3377 116.502 46.2483 116.253 46.2483C116.121 46.2483 115.976 46.2758 115.81 46.3239V49.6652H115.166V45.8839H115.159Z" fill="#DCDBDB"/>
<path d="M120.473 45.8494C120.605 45.7944 120.736 45.7532 120.882 45.7188C121.027 45.6844 121.186 45.6707 121.352 45.6707C121.698 45.6707 121.982 45.7807 122.203 45.9938C122.425 46.2069 122.535 46.5438 122.535 46.9975V49.5825C122.355 49.6307 122.175 49.6719 121.989 49.6994C121.802 49.7269 121.615 49.7475 121.442 49.7475C121.262 49.7475 121.096 49.7269 120.937 49.6788C120.778 49.6307 120.646 49.5619 120.529 49.4657C120.411 49.3694 120.321 49.2388 120.252 49.0875C120.183 48.9363 120.148 48.7507 120.148 48.5375C120.148 48.3313 120.183 48.1594 120.238 48.0082C120.3 47.8569 120.383 47.7332 120.494 47.63C120.605 47.5269 120.729 47.4513 120.882 47.4032C121.034 47.3482 121.193 47.3275 121.366 47.3275C121.532 47.3275 121.712 47.3482 121.913 47.3894V47.025C121.913 46.7363 121.857 46.5369 121.746 46.4269C121.636 46.31 121.477 46.255 121.262 46.255C121.144 46.255 121.041 46.2688 120.937 46.2894C120.833 46.31 120.729 46.3513 120.612 46.3994L120.473 45.8494ZM120.785 48.5307C120.785 48.7575 120.847 48.9294 120.965 49.0325C121.082 49.1425 121.255 49.1975 121.47 49.1975C121.601 49.1975 121.753 49.1769 121.913 49.1425V47.905C121.76 47.8638 121.615 47.8432 121.47 47.8432C121.373 47.8432 121.283 47.8569 121.2 47.8775C121.117 47.8982 121.041 47.9394 120.978 47.9875C120.916 48.0425 120.868 48.1113 120.833 48.1938C120.799 48.29 120.785 48.4 120.785 48.5307Z" fill="#DCDBDB"/>
<path d="M123.698 45.8839C123.884 45.8289 124.078 45.7808 124.293 45.7464C124.507 45.712 124.701 45.6914 124.881 45.6914C125.075 45.6914 125.254 45.7189 125.414 45.767C125.573 45.822 125.711 45.9045 125.822 46.0283C125.933 46.152 126.022 46.317 126.085 46.5302C126.147 46.7433 126.182 47.0045 126.182 47.3139V49.6652H125.538V47.362C125.538 46.977 125.49 46.6952 125.386 46.5164C125.289 46.3377 125.102 46.2483 124.825 46.2483C124.68 46.2483 124.521 46.2758 124.341 46.3239V49.6652H123.698V45.8839Z" fill="#DCDBDB"/>
<path d="M127.655 45.0795C127.538 45.0795 127.441 45.0383 127.358 44.9627C127.275 44.8871 127.233 44.7839 127.233 44.6533C127.233 44.5227 127.275 44.4195 127.358 44.3439C127.441 44.2683 127.538 44.2271 127.655 44.2271C127.773 44.2271 127.87 44.2683 127.953 44.3439C128.036 44.4195 128.077 44.5227 128.077 44.6533C128.077 44.7839 128.036 44.8871 127.953 44.9627C127.87 45.0383 127.773 45.0795 127.655 45.0795ZM127.981 49.6652H127.337V45.767H127.981V49.6652Z" fill="#DCDBDB"/>
<path d="M129.78 45.7668H130.769V46.3168H129.78V48.4618C129.78 48.7299 129.828 48.9156 129.925 49.0256C130.022 49.1287 130.153 49.1837 130.319 49.1837C130.402 49.1837 130.485 49.1699 130.562 49.1493C130.638 49.1218 130.707 49.0943 130.762 49.0599L130.887 49.5687C130.686 49.6856 130.465 49.7474 130.236 49.7474C129.87 49.7474 129.593 49.6443 129.413 49.4381C129.233 49.2318 129.143 48.8949 129.143 48.4206V44.7218L129.787 44.6118V45.7668H129.78Z" fill="#DCDBDB"/>
<path d="M132.52 48.8608C132.665 48.3658 132.796 47.8708 132.914 47.3689C133.032 46.8671 133.149 46.3377 133.26 45.7739H133.897C133.82 46.1383 133.744 46.4889 133.654 46.8464C133.564 47.197 133.481 47.5339 133.385 47.8639C133.295 48.1939 133.198 48.4964 133.108 48.7921C133.018 49.0808 132.928 49.3421 132.852 49.5827C132.755 49.8577 132.665 50.0914 132.575 50.2839C132.485 50.4764 132.395 50.6277 132.291 50.7445C132.187 50.8614 132.077 50.9439 131.959 50.9989C131.842 51.0539 131.696 51.0746 131.53 51.0746C131.44 51.0746 131.35 51.0608 131.26 51.0402C131.17 51.0195 131.094 50.992 131.032 50.9714L131.15 50.4489C131.281 50.5039 131.399 50.5314 131.516 50.5314C131.662 50.5314 131.779 50.4764 131.869 50.3733C131.959 50.2702 132.049 50.112 132.132 49.9058L132.208 49.7202C132.111 49.4658 132.015 49.177 131.918 48.8608C131.821 48.5445 131.724 48.2214 131.634 47.8777C131.544 47.5339 131.454 47.1833 131.371 46.8258C131.288 46.4683 131.212 46.1177 131.136 45.7739H131.814C131.855 46.0077 131.904 46.2621 131.959 46.5371C132.015 46.8121 132.07 47.0939 132.132 47.3689C132.194 47.6439 132.257 47.912 132.326 48.1733C132.402 48.4277 132.464 48.6614 132.52 48.8608Z" fill="#DCDBDB"/>
<path d="M30.9528 0.735596C27.8737 0.735596 25.3759 3.22435 25.3759 6.2906C25.3759 9.35684 27.8737 11.8387 30.9528 11.8387C34.0318 11.8387 36.5297 9.35684 36.5297 6.2906C36.5297 3.22435 34.0318 0.735596 30.9528 0.735596ZM34.9798 2.9081C35.0143 2.94247 35.0489 2.98372 35.0835 3.0181C35.0559 2.9906 35.0213 2.9631 34.9936 2.94247C34.9867 2.92872 34.9798 2.91497 34.9728 2.90122C34.9728 2.90122 34.9798 2.90122 34.9798 2.9081ZM34.7583 2.69497C34.8275 2.76372 34.8967 2.83247 34.959 2.89435C34.8829 2.81872 34.7999 2.74997 34.7099 2.68122C34.7237 2.6881 34.7445 2.69497 34.7583 2.69497ZM33.8727 2.34435C34.0111 2.3856 34.1356 2.43372 34.2602 2.48185C34.2671 2.48872 34.2671 2.4956 34.274 2.50247C34.2048 2.47497 34.1356 2.45435 34.0595 2.43372C34.0318 2.4406 33.9972 2.44747 33.9696 2.46122C33.9834 2.48185 33.9903 2.50247 34.0041 2.5231C34.0387 2.5506 34.0733 2.57122 34.1079 2.59872C34.018 2.5506 33.928 2.50247 33.8381 2.44747C33.845 2.4131 33.8588 2.37872 33.8727 2.34435ZM33.8519 2.54372C33.8381 2.54372 33.8173 2.54372 33.8035 2.54372C33.8035 2.52997 33.8035 2.51622 33.7966 2.50247C33.8104 2.5231 33.8381 2.53685 33.8519 2.54372ZM33.7205 2.09685C33.7274 2.1106 33.7481 2.11747 33.7551 2.13122C33.7066 2.1106 33.6582 2.08997 33.6098 2.06935C33.6444 2.0831 33.6789 2.08997 33.7205 2.09685ZM32.2882 1.68435C32.392 1.71185 32.4888 1.73935 32.5926 1.77372C32.5511 1.76685 32.5096 1.76685 32.4681 1.76685C32.3989 1.74622 32.3159 1.71872 32.2398 1.70497C32.3366 1.73935 32.4335 1.7806 32.5304 1.82185C32.475 1.81497 32.4127 1.80122 32.3574 1.79435C32.3712 1.79435 32.3781 1.78747 32.392 1.78747C32.3643 1.77372 32.3435 1.76685 32.3228 1.7531C32.2813 1.76685 32.2328 1.7806 32.1913 1.79435C32.1429 1.77372 32.0944 1.7531 32.046 1.73935C32.0391 1.73247 32.0391 1.7256 32.0322 1.7256C32.0529 1.7256 32.0737 1.7256 32.0945 1.7256C32.046 1.71185 31.9907 1.6981 31.9422 1.68435C31.9284 1.6706 31.9215 1.66372 31.9076 1.64997C32.0322 1.64997 32.1636 1.66372 32.2882 1.68435ZM31.022 2.59872C30.9805 2.62622 30.9389 2.65372 30.9044 2.68122C30.932 2.6881 30.9597 2.69497 30.9943 2.70185C31.022 2.73622 31.0497 2.7706 31.0773 2.81185C31.0842 2.8531 31.0912 2.88747 31.0912 2.92872C31.1327 2.94247 31.1742 2.95622 31.2226 2.97685C31.188 2.99747 31.1534 3.02497 31.1188 3.0456C31.1396 3.05247 31.1604 3.05935 31.1811 3.05935C31.1673 3.06622 31.1534 3.07997 31.1327 3.08685C30.9666 3.09372 30.8006 3.09372 30.6345 3.10747C30.7175 3.0731 30.8006 3.03872 30.8836 3.00435C30.8213 2.99747 30.766 2.98372 30.7037 2.97685C30.7314 2.96997 30.759 2.9631 30.7867 2.94935C30.7867 2.92185 30.7798 2.89435 30.7798 2.86685C30.8144 2.87372 30.849 2.87372 30.8836 2.87372C30.8974 2.8531 30.9113 2.83247 30.9251 2.81185C30.9043 2.80497 30.8836 2.7981 30.8628 2.79122C30.8698 2.77747 30.8836 2.7706 30.8905 2.76372C30.8559 2.76372 30.8144 2.7706 30.7798 2.77747C30.7867 2.75685 30.7936 2.73622 30.8075 2.7156C30.7729 2.70872 30.7452 2.70185 30.7106 2.6881C30.7314 2.65372 30.7521 2.62622 30.7729 2.59872C30.7521 2.59185 30.7245 2.58497 30.7037 2.5781C30.7521 2.55747 30.7936 2.53685 30.8352 2.51622C30.8767 2.51622 30.9182 2.5231 30.9597 2.5231C30.932 2.54372 30.9044 2.55747 30.8767 2.5781C30.9182 2.5781 30.9666 2.59185 31.022 2.59872ZM29.9011 2.13122C29.8734 2.13122 29.8457 2.13122 29.818 2.13122C29.8596 2.11747 29.908 2.1106 29.9495 2.08997C29.908 2.08997 29.8665 2.08997 29.825 2.08997C29.8596 2.07622 29.9011 2.06247 29.9357 2.04872C29.9564 2.0556 29.9841 2.06247 30.0049 2.06247C29.9979 2.06935 29.991 2.0831 29.991 2.08997C30.0948 2.06935 30.2124 2.04872 30.3231 2.03497C30.3647 2.0556 30.3992 2.06935 30.4408 2.08997C30.4131 2.10372 30.3854 2.12435 30.3647 2.14497C30.2678 2.1656 30.1778 2.17935 30.081 2.19997C30.0049 2.1931 29.9287 2.18622 29.8596 2.17935C29.8803 2.17247 29.9011 2.1656 29.9149 2.15872C29.908 2.14497 29.9011 2.1381 29.9011 2.13122ZM30.4338 2.85997C30.4131 2.8531 30.3992 2.84622 30.3785 2.83247C30.3923 2.81185 30.3993 2.7981 30.4131 2.77747C30.4408 2.77747 30.4684 2.77747 30.4961 2.78435C30.51 2.76372 30.5169 2.74997 30.5307 2.72935C30.5791 2.72935 30.6345 2.73622 30.6829 2.73622C30.6899 2.74997 30.6968 2.7706 30.7037 2.79122C30.6691 2.83935 30.6414 2.89435 30.6068 2.94247C30.5238 2.95622 30.4408 2.96997 30.3577 2.98372C30.3439 2.96997 30.337 2.94935 30.3162 2.92872C30.3577 2.9081 30.3992 2.8806 30.4338 2.85997ZM27.8391 2.04872C27.8391 2.04872 27.8391 2.04185 27.8391 2.03497C27.8876 2.0006 27.9429 1.9731 27.9983 1.9456C28.019 1.9456 28.0398 1.95247 28.0606 1.95247C27.9706 2.0006 27.8807 2.04872 27.7976 2.09685C27.7907 2.09685 27.7838 2.09685 27.7838 2.09685C27.8046 2.07622 27.8253 2.06247 27.8391 2.04872ZM27.9568 2.0281C27.9429 2.0281 27.9291 2.03497 27.9153 2.04185C27.9568 2.02122 27.9983 1.99372 28.0467 1.9731C28.0606 1.96622 28.0744 1.95247 28.0882 1.93872C28.0813 1.93872 28.0675 1.9456 28.0606 1.9456C28.0813 1.93185 28.1021 1.9181 28.1228 1.91122C28.0952 1.9181 28.0813 1.92497 28.0606 1.93185C28.0536 1.93185 28.0536 1.92497 28.0467 1.92497C28.1989 1.85622 28.365 1.78747 28.5311 1.7256C28.6833 1.68435 28.8355 1.6431 29.0016 1.6156C28.794 1.67747 28.5864 1.7531 28.3996 1.82872C28.2474 1.89747 28.109 1.9731 27.9637 2.0556C27.8945 2.07622 27.8322 2.10372 27.763 2.12435C27.8322 2.09685 27.8945 2.06247 27.9568 2.0281ZM27.7284 2.17247C27.8046 2.1381 27.8876 2.10372 27.9706 2.07622C27.9222 2.10372 27.8807 2.12435 27.8391 2.15185C27.763 2.17935 27.6869 2.21372 27.6177 2.2481C27.6039 2.25497 27.5901 2.25497 27.5762 2.26185C27.6039 2.24122 27.6247 2.2206 27.6523 2.1931C27.6316 2.20685 27.6108 2.21372 27.5831 2.22747C27.597 2.21372 27.6039 2.20685 27.6108 2.19997C27.6454 2.18622 27.68 2.17247 27.7146 2.15185C27.7215 2.1656 27.7284 2.1656 27.7284 2.17247ZM27.9499 2.13122C27.936 2.1381 27.9222 2.15185 27.9153 2.1656C27.8876 2.17935 27.8599 2.18622 27.8322 2.19997C27.8184 2.19997 27.8115 2.20685 27.7976 2.20685C27.8115 2.1931 27.8253 2.17935 27.8391 2.1656C27.8737 2.15185 27.9083 2.14497 27.9499 2.13122ZM27.5209 2.2206C27.5555 2.19997 27.597 2.17935 27.6316 2.15872C27.6385 2.15872 27.6385 2.15872 27.6454 2.15872C27.6316 2.1656 27.6177 2.17935 27.6039 2.1931C27.6316 2.17247 27.6662 2.15185 27.6938 2.13122C27.7008 2.13122 27.7077 2.13122 27.7215 2.13122C27.6731 2.15872 27.6247 2.18622 27.5762 2.2206C27.5555 2.22747 27.5347 2.23435 27.5139 2.2481C27.5278 2.24122 27.5347 2.22747 27.5485 2.2206C27.5416 2.21372 27.5278 2.2206 27.5209 2.2206ZM27.4378 2.29622C27.4448 2.28935 27.4586 2.28247 27.4586 2.28247C27.4517 2.28935 27.4448 2.29622 27.4378 2.30997C27.4309 2.31685 27.424 2.31685 27.4102 2.32372C27.424 2.30997 27.4309 2.3031 27.4378 2.29622ZM27.3825 2.34435C27.3894 2.33747 27.4032 2.33747 27.4171 2.33747C27.4378 2.32372 27.4586 2.3031 27.4794 2.28935C27.4932 2.28247 27.5139 2.2756 27.5347 2.26185C27.507 2.28935 27.4794 2.30997 27.4448 2.33747C27.424 2.34435 27.4102 2.3581 27.3894 2.37185C27.3894 2.36497 27.3963 2.3581 27.4032 2.35122C27.3894 2.36497 27.3686 2.37185 27.3548 2.3856C27.3686 2.36497 27.3756 2.3581 27.3825 2.34435ZM27.3617 2.41997C27.341 2.4406 27.3202 2.46122 27.3064 2.48185C27.2787 2.50247 27.251 2.5231 27.2164 2.54372C27.2164 2.53685 27.2164 2.5231 27.2233 2.51622C27.2856 2.4681 27.341 2.42685 27.4102 2.37872C27.3825 2.39935 27.3686 2.41997 27.341 2.43372C27.3479 2.42685 27.3548 2.42685 27.3617 2.41997ZM27.2441 2.4406C27.2649 2.41997 27.2856 2.40622 27.3064 2.3856C27.3064 2.39247 27.2995 2.39935 27.2995 2.40622C27.3064 2.39935 27.3202 2.39935 27.334 2.39247C27.3133 2.4131 27.2925 2.42685 27.2718 2.44747C27.2164 2.48872 27.1611 2.52997 27.1126 2.5781C27.1057 2.5781 27.0988 2.58497 27.0988 2.58497C27.1057 2.57122 27.1196 2.56435 27.1334 2.5506C27.1126 2.56435 27.0919 2.58497 27.0711 2.59872C27.0988 2.56435 27.1334 2.53685 27.1749 2.50247C27.1957 2.48872 27.2164 2.48185 27.2372 2.4681C27.2372 2.45435 27.2441 2.44747 27.2441 2.4406ZM27.0365 2.61247C27.0919 2.55747 27.1541 2.50247 27.2233 2.44747C27.1611 2.50247 27.1057 2.5506 27.0504 2.6056C27.0434 2.61247 27.0365 2.61935 27.0296 2.61935C27.0296 2.61247 27.0365 2.61247 27.0365 2.61247ZM26.822 2.86685C26.8289 2.8531 26.8359 2.84622 26.8428 2.83935C26.8566 2.8256 26.8705 2.80497 26.8843 2.79122C26.8843 2.79122 26.8912 2.79122 26.8912 2.78435C26.9189 2.74997 26.9466 2.7156 26.9742 2.68122C26.9881 2.67435 27.0019 2.6606 27.0158 2.65372C26.9743 2.69497 26.9327 2.73622 26.8912 2.78435C26.9327 2.7431 26.9673 2.70185 27.0088 2.66747C27.0158 2.6606 27.0227 2.65372 27.0296 2.64685C27.0227 2.65372 27.0088 2.66747 27.0019 2.67435C27.0296 2.64685 27.0642 2.62622 27.0988 2.59872C27.1265 2.57122 27.1541 2.5506 27.1818 2.5231C27.1887 2.51622 27.2026 2.50935 27.2164 2.50247C27.1957 2.5231 27.168 2.54372 27.1472 2.56435C27.1265 2.59185 27.0988 2.61247 27.078 2.63997C27.0919 2.6331 27.1057 2.62622 27.1196 2.62622C27.085 2.6606 27.0504 2.69497 27.0158 2.72247C27.0019 2.73622 26.9812 2.7431 26.9742 2.74997C26.912 2.7981 26.8566 2.8531 26.8082 2.9081C26.8082 2.89435 26.822 2.88747 26.822 2.86685ZM26.7736 2.92872C26.7805 2.92185 26.7805 2.92185 26.7874 2.91497C26.7736 2.92872 26.7598 2.94935 26.7528 2.9631C26.7528 2.95622 26.7667 2.94247 26.7736 2.92872ZM26.8843 9.74185C26.8705 9.72122 26.8497 9.70059 26.8359 9.67997C26.8497 9.69372 26.8566 9.70747 26.8705 9.72122C26.8774 9.73497 26.8843 9.74872 26.8981 9.76247C26.8912 9.74872 26.8843 9.74185 26.8843 9.74185ZM27.4932 9.39122C27.4794 9.40497 27.4655 9.41185 27.4586 9.4256C27.4171 9.40497 27.3686 9.38435 27.3271 9.36372C27.2995 9.37059 27.2718 9.37747 27.251 9.39122C27.2372 9.41185 27.2233 9.43247 27.2095 9.4531C27.2233 9.50122 27.251 9.55622 27.2649 9.60435C27.2441 9.67997 27.2303 9.74185 27.2233 9.8106C27.1957 9.79685 27.1749 9.7831 27.1472 9.76935C27.1126 9.73497 27.078 9.70747 27.0434 9.67309C27.085 9.7281 27.1334 9.7831 27.1749 9.83122C27.1818 9.85872 27.1957 9.87934 27.2026 9.89997C27.1749 9.88622 27.1472 9.87934 27.1265 9.8656C27.1057 9.85185 27.085 9.83122 27.0573 9.8106C27.085 9.84497 27.1126 9.87934 27.1334 9.91372C27.1057 9.8931 27.078 9.86559 27.0504 9.84497C27.0642 9.86559 27.078 9.87934 27.0919 9.89997C27.1126 9.9206 27.1334 9.93435 27.1472 9.96185C27.1472 9.96185 27.1472 9.96872 27.1403 9.96872C27.1541 9.98247 27.1611 9.99622 27.1749 10.01C27.168 10.0168 27.168 10.0168 27.1611 10.0237C27.1957 10.0581 27.2372 10.0993 27.2718 10.1337C27.2718 10.1406 27.2718 10.1475 27.2718 10.1543C27.2787 10.1681 27.2925 10.175 27.2995 10.1887C27.1818 10.0718 27.0711 9.95497 26.9604 9.82434C26.9673 9.83122 26.9742 9.84497 26.9742 9.85184C26.9673 9.83809 26.9535 9.82435 26.9466 9.8106C26.9397 9.80372 26.9327 9.78997 26.9189 9.78309C26.9189 9.77622 26.912 9.76935 26.912 9.76935C26.9189 9.77622 26.9258 9.78309 26.9258 9.78309C26.9327 9.78997 26.9397 9.79685 26.9466 9.8106C26.9466 9.81747 26.9535 9.81747 26.9604 9.81747C26.9535 9.80372 26.9397 9.79684 26.9327 9.78309C26.912 9.7556 26.8912 9.72122 26.8705 9.69372C26.8635 9.68685 26.8497 9.67997 26.8428 9.66622C26.8359 9.65247 26.822 9.63872 26.8151 9.62497C26.7805 9.56997 26.7459 9.52185 26.7113 9.46685C26.6836 9.41872 26.6629 9.36372 26.6352 9.30872C26.5868 9.22622 26.5453 9.14372 26.5037 9.05435C26.4484 8.9306 26.4 8.7931 26.3584 8.6556C26.3308 8.58685 26.31 8.5181 26.2892 8.44935C26.2201 8.33935 26.1578 8.22247 26.0955 8.11247C26.0471 7.9681 25.9986 7.82372 25.9571 7.67935C25.9295 7.6106 25.9087 7.54185 25.8879 7.46622C25.881 7.42497 25.8741 7.39059 25.8672 7.34935C25.8672 7.32872 25.8672 7.3081 25.8741 7.28747C25.8672 7.26685 25.8603 7.24622 25.8533 7.23247C25.8464 7.20497 25.8464 7.1706 25.8395 7.1431C25.8464 7.12247 25.8464 7.10872 25.8464 7.0881C25.8533 7.01935 25.8672 6.94372 25.881 6.87497C25.8672 6.7581 25.8603 6.6481 25.8533 6.5381C25.8464 6.51747 25.8395 6.49685 25.8326 6.4831C25.8257 6.49685 25.8187 6.51747 25.8118 6.53122C25.8118 6.54497 25.8187 6.5656 25.8187 6.57935C25.8118 6.58622 25.8118 6.5931 25.8049 6.59997C25.8049 6.58622 25.8049 6.57247 25.8049 6.55872C25.7911 6.53122 25.7772 6.5106 25.7634 6.4831C25.7565 6.44872 25.7565 6.40747 25.7565 6.3731H25.7496C25.7496 6.3456 25.7496 6.3181 25.7496 6.2906C25.7496 6.2356 25.7357 6.1806 25.7288 6.13247C25.7219 6.13247 25.715 6.1256 25.708 6.1256C25.7011 6.06372 25.6873 6.00185 25.6804 5.93997C25.6734 5.94685 25.6665 5.95372 25.6665 5.9606C25.6596 5.94685 25.6596 5.93997 25.6596 5.92622C25.6596 5.91247 25.6596 5.90559 25.6596 5.89184C25.6665 5.80247 25.6734 5.7131 25.6804 5.62372C25.7911 4.64747 26.1785 3.71935 26.739 2.9631C26.7459 2.95622 26.7528 2.94935 26.7598 2.94247C26.7805 2.91497 26.8082 2.89435 26.8359 2.87372C26.8428 2.86685 26.8497 2.8531 26.8566 2.84622H26.8497C26.8774 2.81872 26.9051 2.79122 26.9397 2.76372C26.9466 2.76372 26.9535 2.7706 26.9604 2.7706C26.9812 2.75685 26.995 2.7431 27.0158 2.73622C27.0365 2.7156 27.0573 2.69497 27.078 2.67435C27.0711 2.67435 27.0711 2.67435 27.0711 2.67435C27.0988 2.65372 27.1196 2.62622 27.1472 2.6056C27.1472 2.61247 27.1472 2.61935 27.1403 2.6331C27.1265 2.64685 27.1057 2.6606 27.0919 2.67435C27.085 2.68122 27.0711 2.69497 27.0642 2.70185C27.0642 2.70185 27.0642 2.70872 27.0711 2.70872C27.1196 2.6606 27.168 2.61935 27.2164 2.57122C27.2164 2.56435 27.2095 2.56435 27.2095 2.55747C27.251 2.5231 27.2856 2.48872 27.3271 2.46122C27.3548 2.43372 27.3894 2.39935 27.4171 2.37185C27.4448 2.35122 27.4794 2.3306 27.507 2.30997C27.5278 2.3031 27.5485 2.28935 27.5624 2.28935C27.5001 2.3306 27.4448 2.36497 27.3894 2.40622C27.3756 2.41997 27.3617 2.43372 27.3479 2.44747C27.341 2.4681 27.3271 2.48185 27.3202 2.50247C27.3064 2.51622 27.2856 2.52997 27.2718 2.54372C27.2718 2.55747 27.2718 2.56435 27.2718 2.57122C27.2925 2.5506 27.3133 2.53685 27.334 2.51622C27.3133 2.54372 27.2856 2.57122 27.2718 2.6056C27.2995 2.5781 27.334 2.55747 27.3686 2.52997C27.3963 2.50247 27.424 2.4681 27.4586 2.4406C27.4794 2.43372 27.5001 2.41997 27.5278 2.4131C27.5347 2.4131 27.5416 2.4131 27.5485 2.4131C27.5139 2.44747 27.4724 2.47497 27.4378 2.50247C27.4448 2.50247 27.4517 2.50247 27.4586 2.50247C27.4102 2.54372 27.3548 2.5781 27.3064 2.61935C27.2856 2.62622 27.2649 2.6331 27.2441 2.64685V2.65372C27.2164 2.68122 27.1818 2.70872 27.1541 2.73622C27.0227 2.84622 26.8981 2.9631 26.7874 3.0731C26.7528 3.11435 26.7182 3.1556 26.6836 3.19685C26.6906 3.19685 26.6975 3.19685 26.7044 3.19685C26.6836 3.23122 26.6629 3.2656 26.6421 3.29997C26.656 3.28622 26.6698 3.27247 26.6836 3.25872C26.7044 3.27247 26.7113 3.28622 26.7321 3.29997C26.7528 3.2931 26.7736 3.28622 26.7943 3.27935C26.7598 3.32747 26.7321 3.3756 26.6975 3.41685C26.6906 3.44435 26.6836 3.47872 26.6836 3.50622C26.7113 3.47185 26.739 3.44435 26.7667 3.40997C26.7944 3.36185 26.822 3.30685 26.8428 3.2656C26.8912 3.22435 26.9397 3.17622 26.9881 3.13497C27.0158 3.09372 27.0434 3.0456 27.078 2.99747C27.0711 2.9906 27.0711 2.9906 27.0642 2.98372C27.0919 2.9631 27.1196 2.9356 27.1403 2.91497C27.1818 2.86685 27.2233 2.81185 27.2579 2.76372C27.3064 2.7431 27.3548 2.7156 27.4102 2.69497C27.4171 2.70185 27.4309 2.70872 27.4378 2.7156C27.4309 2.72247 27.4171 2.72935 27.4102 2.73622C27.4309 2.73622 27.4448 2.72935 27.4655 2.72935C27.4378 2.76372 27.4102 2.7981 27.3825 2.83247C27.3825 2.84622 27.3825 2.86685 27.3894 2.8806C27.4655 2.81872 27.5416 2.76372 27.6177 2.70185C27.6039 2.75685 27.5901 2.81185 27.5831 2.86685C27.5624 2.88747 27.5416 2.9081 27.5209 2.92872C27.5278 2.94247 27.5278 2.9631 27.5278 2.97685C27.5555 2.98372 27.5831 2.9906 27.6108 2.99747C27.5901 3.01122 27.5762 3.0181 27.5555 3.03185C27.5762 3.0456 27.597 3.05935 27.6177 3.0731C27.6039 3.1006 27.5901 3.12122 27.5762 3.14872C27.4793 3.2106 27.3894 3.27247 27.2995 3.33435C27.2095 3.36185 27.1196 3.38247 27.0365 3.41685C26.9397 3.50622 26.8428 3.60247 26.7528 3.69872C26.8013 3.6506 26.8497 3.60247 26.8981 3.56122C26.9466 3.52685 27.0019 3.49247 27.0504 3.4581C27.0504 3.47185 27.0504 3.4856 27.0573 3.49935C27.0227 3.5131 26.995 3.53372 26.9604 3.55435C26.9742 3.55435 26.9881 3.55435 27.0019 3.56122C26.9812 3.5956 26.9673 3.62997 26.9535 3.67122C26.9743 3.67122 26.995 3.67122 27.0158 3.6781C27.0019 3.66435 26.995 3.6506 26.9812 3.63685C27.0088 3.62997 27.0365 3.62997 27.0642 3.6231C27.0504 3.64372 27.0365 3.65747 27.0227 3.67122C27.0296 3.67122 27.0434 3.67122 27.0504 3.67122C27.078 3.63685 27.1057 3.60247 27.1403 3.5681C27.1403 3.58872 27.1403 3.60935 27.1334 3.62997C27.0227 3.71247 26.9189 3.79497 26.8151 3.87747C26.8151 3.86372 26.8151 3.84997 26.8151 3.83622C26.8566 3.80185 26.8981 3.7606 26.9327 3.72622C26.9258 3.71935 26.9258 3.71935 26.9189 3.71247C26.8289 3.78122 26.739 3.84997 26.656 3.91872C26.6283 3.9531 26.6075 3.98747 26.5799 4.02872C26.5868 4.04247 26.5868 4.05622 26.5868 4.06997C26.5522 4.0906 26.5037 4.12497 26.4553 4.15935C26.4346 4.2006 26.3584 4.23497 26.3377 4.27622C26.3308 4.2831 26.2892 4.28997 26.2685 4.29685C26.2823 4.3106 26.3031 4.33122 26.2962 4.34497C26.2754 4.37247 26.2892 4.40685 26.2685 4.43435C26.2754 4.41372 26.2823 4.39997 26.2892 4.38622C26.2892 4.37935 26.2892 4.37935 26.2892 4.37247C26.3031 4.34497 26.3169 4.31747 26.3308 4.28997C26.3377 4.2831 26.3377 4.27622 26.3377 4.26935C26.3238 4.30372 26.3031 4.34497 26.2823 4.37935C26.2685 4.43435 26.2616 4.48247 26.2477 4.53747H26.2408C26.2339 4.55122 26.2339 4.56497 26.227 4.57185C26.1647 4.65435 26.1094 4.72997 26.0609 4.81247C26.0402 4.84685 26.0263 4.88809 26.0125 4.92247C25.9986 5.01872 25.9848 5.11497 25.971 5.20435C25.9571 5.25247 25.9433 5.29372 25.9295 5.33497C25.9295 5.29372 25.9295 5.2456 25.9295 5.20435C25.9364 5.15622 25.9502 5.11497 25.9571 5.06684C25.9571 5.04622 25.9571 5.0256 25.9571 5.00497C25.9502 5.01872 25.9364 5.0256 25.9295 5.03935C25.9295 5.0256 25.9295 5.00497 25.9295 4.99122C25.9225 4.9981 25.9087 5.01185 25.9018 5.01872C25.8949 5.01185 25.8879 5.01185 25.881 5.00497C25.8741 5.01185 25.8741 5.0256 25.8672 5.03247C25.8741 5.03247 25.881 5.0256 25.881 5.0256C25.8741 5.0531 25.8672 5.07372 25.8603 5.09435C25.8533 5.09435 25.8464 5.09435 25.8395 5.09435C25.8395 5.0806 25.8464 5.06684 25.8464 5.0531C25.8326 5.06684 25.8257 5.0806 25.8118 5.09435C25.8187 5.08747 25.8187 5.07372 25.8187 5.06684C25.798 5.11497 25.7841 5.16309 25.7703 5.21122C25.7426 5.32122 25.7288 5.43122 25.708 5.54122C25.7011 5.6031 25.6942 5.67185 25.6873 5.7406C25.6873 5.76122 25.6873 5.78872 25.6873 5.80935C25.7011 5.80247 25.708 5.7956 25.7219 5.78872C25.7288 5.73372 25.7426 5.67872 25.7565 5.61685C25.7634 5.61685 25.7841 5.60997 25.7911 5.6031C25.7634 5.71997 25.7426 5.84372 25.7219 5.9606C25.7219 5.96747 25.7219 5.98122 25.7288 5.9881C25.7426 5.98122 25.7565 5.98122 25.7703 5.97434C25.7772 5.99497 25.7841 6.0156 25.7841 6.02935C25.7772 6.11872 25.7703 6.2081 25.7634 6.29747C25.7703 6.35247 25.7772 6.4006 25.7841 6.4556C25.798 6.44872 25.8187 6.44872 25.8326 6.44185C25.8464 6.48997 25.8603 6.5381 25.881 6.58622C25.8879 6.51747 25.9018 6.44872 25.9156 6.37997C25.9295 6.3731 25.9433 6.3731 25.9502 6.36622C25.964 6.33872 25.9779 6.31122 25.9986 6.28372C25.9986 6.2906 26.0056 6.30435 26.0056 6.31122C25.9986 6.33872 25.9917 6.3456 25.9848 6.36622C25.9848 6.4281 25.9848 6.48997 25.9848 6.55185C25.9848 6.55185 25.9917 6.54497 25.9986 6.54497C25.9986 6.50372 25.9986 6.4556 25.9917 6.41435C26.0056 6.38685 26.0194 6.35935 26.0332 6.33185C26.0471 6.37997 26.0609 6.4281 26.0748 6.4831C26.1024 6.49685 26.137 6.51747 26.1647 6.5381C26.1855 6.53122 26.2062 6.52435 26.227 6.52435C26.2339 6.51747 26.2477 6.51747 26.2547 6.51747C26.2477 6.51747 26.2339 6.52435 26.227 6.52435C26.2339 6.54497 26.2408 6.5656 26.2477 6.5931C26.2616 6.59997 26.2754 6.61372 26.2892 6.6206C26.2892 6.6481 26.2892 6.68247 26.2892 6.70997C26.2962 6.70997 26.31 6.70997 26.3169 6.7031C26.3377 6.73747 26.3515 6.76497 26.3723 6.80622C26.3723 6.82685 26.3723 6.85435 26.3723 6.87497C26.393 6.90247 26.4138 6.92997 26.4346 6.96435C26.4761 6.98497 26.5245 7.01247 26.5729 7.03309C26.6145 7.09497 26.656 7.15685 26.6906 7.21872C26.6975 7.27372 26.7113 7.3356 26.7182 7.3906C26.7252 7.39747 26.739 7.40435 26.7459 7.41122C26.7252 7.48685 26.7113 7.56247 26.6906 7.63122C26.6975 7.63122 26.7044 7.62435 26.7182 7.61747C26.7252 7.6381 26.7252 7.65872 26.7321 7.67935C26.7321 7.64497 26.7321 7.6106 26.7321 7.5831C26.7528 7.5831 26.7736 7.5831 26.7943 7.5831C26.8013 7.58997 26.8151 7.59685 26.822 7.60372C26.822 7.6381 26.822 7.67247 26.8289 7.70685C26.8289 7.68622 26.8359 7.67247 26.8359 7.64497C26.8497 7.64497 26.8705 7.64497 26.8843 7.64497C26.9258 7.67935 26.9673 7.7206 27.0158 7.75497C27.0227 7.79622 27.0296 7.8306 27.0365 7.87185C27.0573 7.87185 27.0711 7.86497 27.0919 7.8581C27.1541 7.89247 27.2233 7.91997 27.2856 7.95435C27.3479 8.03685 27.4171 8.11935 27.4794 8.20185C27.5139 8.2156 27.5416 8.22935 27.5762 8.24309C27.597 8.33247 27.6177 8.41497 27.6385 8.49747C27.5693 8.61435 27.5139 8.72435 27.4586 8.82747C27.4724 8.9306 27.4863 9.03372 27.507 9.13685C27.5001 9.22622 27.4932 9.30872 27.4932 9.39122ZM27.2026 2.73622C27.168 2.76372 27.1334 2.78435 27.1057 2.81185C27.1126 2.80497 27.1196 2.79122 27.1265 2.78435C27.1126 2.79122 27.1057 2.7981 27.0919 2.80497C27.1541 2.74997 27.2164 2.6881 27.2787 2.6331C27.2787 2.65372 27.2856 2.67435 27.2925 2.69497C27.2787 2.70872 27.2579 2.72247 27.2441 2.73622C27.2233 2.73622 27.2095 2.73622 27.2026 2.73622ZM27.2372 2.77747C27.2164 2.7981 27.1957 2.81185 27.1818 2.83247C27.1957 2.81872 27.2026 2.80497 27.2164 2.79122C27.2233 2.78435 27.2303 2.77747 27.2372 2.77747ZM26.8981 3.18997C26.912 3.17622 26.9258 3.16247 26.9397 3.1556C26.9327 3.16247 26.9258 3.16247 26.9189 3.16935C26.9327 3.1556 26.9466 3.14872 26.9604 3.13497C26.9466 3.1556 26.9327 3.16935 26.9189 3.18997C26.9258 3.1831 26.9327 3.17622 26.9397 3.16247C26.9189 3.16935 26.9051 3.17622 26.8981 3.18997ZM26.7459 3.38247C26.739 3.38935 26.739 3.4031 26.7321 3.40997C26.7252 3.40997 26.7182 3.40997 26.7113 3.40997C26.7182 3.4031 26.7321 3.38935 26.7459 3.38247ZM27.4724 3.2931C27.4724 3.30685 27.4724 3.3206 27.4724 3.34122C27.5001 3.33435 27.5209 3.33435 27.5485 3.33435C27.5347 3.35497 27.5209 3.36872 27.507 3.38935C27.5209 3.38247 27.5347 3.38247 27.5485 3.3756C27.5209 3.39622 27.5001 3.42372 27.4655 3.44435C27.4863 3.4306 27.507 3.42372 27.5209 3.40997C27.5001 3.44435 27.4794 3.47872 27.4586 3.51997C27.4448 3.51997 27.4309 3.51997 27.4171 3.5131C27.424 3.49935 27.4378 3.49247 27.4448 3.47872C27.424 3.49247 27.3894 3.50622 27.3686 3.52685C27.3617 3.52685 27.3548 3.52685 27.3479 3.52685C27.3617 3.5131 27.3756 3.49247 27.3963 3.47872C27.341 3.49247 27.2856 3.49935 27.2303 3.5131C27.2372 3.49935 27.2441 3.49247 27.2441 3.47872C27.334 3.38935 27.4171 3.2931 27.5139 3.20372C27.5347 3.19685 27.5555 3.1831 27.5762 3.17622C27.5278 3.22435 27.4794 3.27247 27.4309 3.3206C27.4378 3.31372 27.4517 3.29997 27.4724 3.2931ZM26.2062 5.87122C26.1924 5.8781 26.1785 5.8781 26.1578 5.88497C26.1578 5.87122 26.1578 5.85747 26.1647 5.84372C26.1785 5.85059 26.1924 5.86435 26.2062 5.87122ZM25.9225 5.71997C25.9295 5.69935 25.9295 5.67872 25.9364 5.65809C25.9364 5.65809 25.9295 5.65809 25.9225 5.65809C25.9225 5.63747 25.9225 5.61685 25.9225 5.59622C25.9087 5.58247 25.8879 5.56872 25.8741 5.55497C25.881 5.5481 25.881 5.53435 25.881 5.52747C25.8741 5.52747 25.8672 5.5206 25.8672 5.51372C25.8533 5.53435 25.8395 5.55497 25.8257 5.57559C25.8326 5.54809 25.8464 5.52747 25.8533 5.50685C25.8672 5.49997 25.881 5.49309 25.8879 5.47934C25.9156 5.55497 25.9502 5.6306 25.9986 5.70622C25.971 5.7131 25.9502 5.71997 25.9225 5.71997ZM25.9364 5.87122C25.9225 5.86435 25.9087 5.85059 25.9018 5.84372C25.9087 5.83684 25.9087 5.82997 25.9156 5.8231C25.9156 5.83685 25.9225 5.85059 25.9364 5.87122ZM26.0263 5.8231C26.0263 5.7956 26.0194 5.7681 26.0125 5.7406C26.0194 5.73372 26.0194 5.72685 26.0194 5.72685C26.0471 5.73372 26.0748 5.74059 26.1024 5.74747C26.1093 5.78185 26.1232 5.80935 26.1301 5.84372C26.1232 5.85747 26.1232 5.86435 26.1163 5.8781C26.0955 5.86435 26.0817 5.85747 26.0678 5.84372C26.0609 5.86435 26.0471 5.88497 26.0402 5.9056C26.0332 5.89185 26.0332 5.8781 26.0332 5.86435C26.0125 5.85747 25.9917 5.84372 25.9779 5.83684C25.9917 5.83684 26.0056 5.82997 26.0263 5.8231ZM27.6454 10.4775C27.6316 10.4637 27.6177 10.45 27.597 10.4431C27.5901 10.4362 27.5831 10.4225 27.5762 10.4156C27.5831 10.4225 27.5901 10.4293 27.6039 10.4293C27.6316 10.45 27.6592 10.4706 27.6869 10.4912C27.6731 10.4912 27.6593 10.4843 27.6454 10.4775ZM27.9083 2.41997C27.8945 2.40622 27.8737 2.39247 27.8599 2.37872C27.8461 2.39247 27.8322 2.40622 27.8115 2.41997C27.8115 2.44747 27.8115 2.47497 27.8115 2.50247C27.7769 2.5231 27.7492 2.53685 27.7146 2.56435C27.6938 2.55747 27.6731 2.5506 27.6523 2.5506C27.6592 2.57122 27.6662 2.59185 27.6662 2.6056C27.6385 2.61935 27.6177 2.62622 27.5901 2.63997C27.5693 2.61935 27.5416 2.6056 27.5278 2.59185C27.4794 2.6056 27.424 2.61935 27.3756 2.6331C27.4032 2.61247 27.4309 2.59185 27.4517 2.57122C27.4932 2.5506 27.5416 2.52997 27.5831 2.50935C27.5831 2.50247 27.5831 2.4956 27.5831 2.48872C27.6316 2.46122 27.6731 2.43372 27.7146 2.39935C27.7215 2.3856 27.7354 2.37185 27.7423 2.3581C27.7354 2.35122 27.7284 2.34435 27.7215 2.33747C27.7008 2.35122 27.68 2.3581 27.6662 2.37185C27.68 2.3581 27.7008 2.34435 27.7146 2.3306C27.7077 2.32372 27.7008 2.31685 27.6938 2.30997C27.6593 2.3306 27.6316 2.35122 27.6039 2.37185C27.5555 2.39247 27.507 2.40622 27.4586 2.42685C27.4517 2.4131 27.4448 2.40622 27.4378 2.39247C27.507 2.34435 27.5693 2.29622 27.6385 2.2481C27.6662 2.23435 27.6938 2.2206 27.7215 2.20685C27.68 2.23435 27.6316 2.26185 27.5901 2.28935C27.5762 2.3031 27.5624 2.31685 27.5485 2.3306C27.5485 2.3306 27.5555 2.3306 27.5555 2.33747C27.5831 2.31685 27.6039 2.28935 27.6316 2.26872C27.6731 2.2481 27.7077 2.2206 27.7492 2.19997C27.763 2.1931 27.7769 2.1931 27.7907 2.18622C27.763 2.20685 27.7354 2.23435 27.7077 2.26185C27.7838 2.22747 27.8599 2.1931 27.9429 2.15872C27.9291 2.17247 27.9153 2.17935 27.9083 2.1931C27.9291 2.18622 27.9568 2.17935 27.9845 2.17935C27.9983 2.18622 28.0121 2.19997 28.0329 2.20685C28.019 2.21372 28.0052 2.2206 27.9983 2.23435C28.0052 2.23435 28.0121 2.24122 28.0121 2.24122C27.9845 2.25497 27.9568 2.2756 27.9291 2.28935C27.9568 2.28247 27.9845 2.28247 28.0121 2.2756C28.0329 2.28247 28.0536 2.29622 28.0744 2.30997C28.0329 2.33747 27.9706 2.37872 27.9083 2.41997ZM27.5693 2.4681C27.5762 2.46122 27.5831 2.45435 27.5831 2.44747C27.6039 2.43372 27.6177 2.41997 27.6385 2.40622C27.6523 2.40622 27.6592 2.40622 27.6731 2.40622C27.6523 2.41997 27.6316 2.4406 27.6108 2.45435C27.6039 2.45435 27.5901 2.46122 27.5693 2.4681ZM28.8632 2.28247C28.8217 2.3031 28.7802 2.32372 28.7386 2.33747C28.7386 2.35122 28.7317 2.36497 28.7317 2.37185C28.6625 2.41997 28.5933 2.4681 28.5241 2.51622C28.4688 2.4956 28.4065 2.48185 28.3581 2.4681C28.365 2.39247 28.3788 2.32372 28.3858 2.25497C28.4273 2.21372 28.4688 2.17935 28.5034 2.1381C28.5587 2.1106 28.621 2.0831 28.6764 2.0556C28.6833 2.04872 28.6833 2.04185 28.6902 2.03497C28.6349 2.04872 28.5795 2.06247 28.5241 2.07622C28.5518 2.06247 28.5795 2.04185 28.6141 2.02122C28.6487 2.01435 28.6833 2.01435 28.7179 2.00747C28.711 1.99372 28.704 1.97997 28.6971 1.96622C28.6625 1.9731 28.6279 1.98685 28.5933 1.99372C28.6279 1.96622 28.6695 1.93185 28.704 1.90435C28.704 1.88372 28.711 1.8631 28.7179 1.84247C28.6003 1.8631 28.4896 1.8906 28.3788 1.9181C28.3719 1.9181 28.365 1.9181 28.3581 1.9181C28.3719 1.91122 28.3788 1.91122 28.3927 1.90435C28.3788 1.90435 28.3581 1.91122 28.3373 1.91122C28.3788 1.89747 28.4134 1.88372 28.448 1.86997C28.4134 1.86997 28.3788 1.87685 28.3512 1.88372C28.455 1.84247 28.5518 1.80122 28.6625 1.76685C28.6902 1.7531 28.711 1.73935 28.7386 1.7256C28.711 1.73247 28.6764 1.73935 28.6487 1.74622C28.7456 1.71185 28.8424 1.67747 28.9393 1.6431C29.1746 1.58122 29.4167 1.5331 29.6658 1.49185C29.8803 1.46435 30.1017 1.4506 30.3301 1.43685C30.42 1.44372 30.51 1.4506 30.5999 1.45747C30.5722 1.45747 30.5446 1.46435 30.5169 1.47122C30.5861 1.47122 30.6553 1.4781 30.7314 1.4781C30.7936 1.48497 30.8559 1.49185 30.9251 1.49872C30.7867 1.51247 30.6483 1.5331 30.5169 1.55372C30.51 1.57435 30.503 1.59497 30.503 1.62247C30.4546 1.62247 30.4062 1.62247 30.3577 1.62935C30.3785 1.6431 30.3992 1.64997 30.42 1.65685C30.3992 1.6706 30.3785 1.68435 30.3508 1.6981C30.3716 1.6981 30.3923 1.6981 30.4131 1.6981C30.3647 1.70497 30.3093 1.71185 30.2609 1.7256C30.2747 1.73247 30.2885 1.73935 30.3024 1.74622C30.2678 1.7531 30.2332 1.75997 30.1986 1.76685C30.1917 1.7806 30.1778 1.78747 30.1709 1.80122C30.1294 1.79435 30.0948 1.79435 30.0533 1.78747C30.0879 1.80122 30.1225 1.81497 30.164 1.82872C30.1571 1.82872 30.1432 1.84247 30.1363 1.85622C30.081 1.84935 30.0256 1.84247 29.9703 1.8356C29.9426 1.84935 29.9149 1.8631 29.8872 1.87685C29.9357 1.88372 29.991 1.88372 30.0395 1.8906C29.8596 1.92497 29.6727 1.95935 29.4998 2.0006C29.4098 2.03497 29.3199 2.07622 29.2368 2.1106C29.133 2.13122 29.0292 2.15872 28.9324 2.18622C28.9047 2.2206 28.8839 2.2481 28.8632 2.28247ZM34.0803 9.54935C34.0664 9.5631 34.0595 9.57685 34.0457 9.58372C34.0387 9.57685 34.0387 9.56997 34.0318 9.5631C33.9004 9.77622 33.762 9.9756 33.6236 10.1681C33.6098 10.1818 33.6028 10.1887 33.589 10.2025C33.5406 10.2162 33.499 10.23 33.4506 10.2437C33.4437 10.23 33.4368 10.2162 33.4299 10.2093C33.4437 10.1612 33.4575 10.1131 33.4783 10.0581C33.5198 10.0168 33.5613 9.96872 33.6028 9.92747C33.6167 9.87247 33.6305 9.81747 33.6444 9.76247C33.672 9.73497 33.6928 9.70747 33.7205 9.67309C33.7966 9.63184 33.8727 9.58372 33.9419 9.54247C33.9557 9.51497 33.9696 9.48747 33.9834 9.45997C34.0041 9.4531 34.0249 9.43935 34.0457 9.43247C34.0664 9.3981 34.0872 9.36372 34.1149 9.32934C34.101 9.3981 34.0941 9.4806 34.0803 9.54935ZM35.7616 7.70685C35.7547 7.71372 35.7409 7.71372 35.7339 7.72059C35.7409 7.67247 35.7478 7.62435 35.7478 7.56935C35.7547 7.5281 35.7685 7.48685 35.7755 7.43872C35.7755 7.4456 35.7824 7.45247 35.7824 7.45935C35.7824 7.50747 35.7824 7.54872 35.7893 7.59685C35.7824 7.63122 35.7755 7.67247 35.7616 7.70685ZM36.2183 6.6756C36.2114 6.77185 36.1975 6.8681 36.1906 6.96435C36.1699 7.10872 36.1491 7.2531 36.1145 7.39747C36.0937 7.48685 36.0453 7.57622 36.0038 7.65872C36.0038 7.65872 36.0107 7.65872 36.0107 7.6656C36.0107 7.72059 36.0038 7.7756 35.9969 7.82372C35.9969 7.83747 35.9969 7.85122 35.9969 7.8581C35.9692 7.9406 35.9484 8.01622 35.9138 8.09185C35.9346 8.01622 35.9554 7.93372 35.9692 7.85122C35.9761 7.79622 35.983 7.73435 35.99 7.67935C35.9761 7.70685 35.9623 7.73435 35.9554 7.76872C35.9484 7.78247 35.8792 7.79622 35.8792 7.80997C35.8792 7.79622 35.8792 7.78247 35.8792 7.7756C35.8792 7.70685 35.9761 7.63122 35.99 7.56247C35.99 7.53497 36.0246 7.51435 36.0246 7.48685C36.0453 7.39747 36.073 7.30122 36.0937 7.21185C36.1007 7.12935 36.1145 7.05372 36.1214 6.97122C36.1214 6.95747 36.1214 6.94372 36.1214 6.92997C36.1145 6.95747 36.1076 6.98497 36.1007 7.0056C36.1007 6.99872 36.0937 6.99185 36.0937 6.98497C36.1007 6.9231 36.1076 6.86122 36.1076 6.79935C36.1076 6.70997 36.0937 6.61372 36.0868 6.52435C36.0799 6.54497 36.073 6.5656 36.0661 6.58622C36.0591 6.5931 36.0453 6.59997 36.0384 6.60685C36.0384 6.5931 36.0384 6.57935 36.0384 6.5656C36.0315 6.57935 36.0246 6.59997 36.0176 6.61372C36.0107 6.6481 36.0038 6.68247 36.0038 6.71685C35.9692 6.79935 35.9346 6.88872 35.9 6.97122C35.8862 6.98497 35.8723 6.99872 35.8654 7.0056C35.8447 7.1431 35.8239 7.2806 35.8031 7.4181C35.7755 7.4731 35.7478 7.5281 35.7201 7.5831C35.7132 7.56247 35.7132 7.54184 35.7063 7.52122C35.7132 7.3356 35.6993 7.14997 35.6924 6.95059C35.6717 6.79247 35.6717 6.64122 35.6717 6.4831C35.6648 6.51747 35.6509 6.55185 35.6371 6.57935C35.6232 6.58622 35.6163 6.58622 35.6025 6.58622C35.5886 6.54497 35.5748 6.49685 35.554 6.4556C35.5679 6.43497 35.5817 6.42122 35.5956 6.4006C35.5817 6.4006 35.5679 6.40747 35.554 6.40747C35.5264 6.33185 35.4918 6.25622 35.4641 6.17372C35.4018 6.16684 35.3396 6.15997 35.2773 6.15309C35.215 6.1256 35.1458 6.08435 35.0766 6.05685C35.0628 6.0156 35.0559 5.98122 35.0489 5.93997C35.0005 5.93997 34.9521 5.94685 34.9036 5.94685C34.8621 5.89872 34.8206 5.85059 34.7791 5.80247C34.7514 5.73372 34.7307 5.66497 34.703 5.6031C34.6753 5.57559 34.6476 5.54809 34.62 5.5206C34.5992 5.55497 34.5784 5.58247 34.5577 5.61685C34.62 5.76122 34.6822 5.9056 34.7376 6.04997C34.7445 6.02247 34.7514 6.00184 34.7583 5.97434C34.7722 5.98122 34.7791 5.99497 34.786 6.00184C34.7791 6.04997 34.7722 6.09122 34.7653 6.13935C34.8206 6.1531 34.869 6.15997 34.9244 6.17372C34.959 6.11872 34.9936 6.06372 35.0213 6.00872C35.0213 6.04997 35.0282 6.09122 35.0282 6.13935C35.0835 6.21497 35.1389 6.29747 35.1873 6.3731C35.1527 6.44185 35.1251 6.5106 35.0905 6.57935C35.0905 6.60685 35.0905 6.63435 35.0905 6.66185C35.0351 6.72372 34.9867 6.7856 34.9244 6.84747C34.8898 6.86122 34.8552 6.8681 34.8206 6.88185C34.8068 6.90935 34.7929 6.93685 34.7791 6.96435C34.6753 7.0331 34.5715 7.09497 34.4608 7.16372C34.3847 7.17747 34.3086 7.19122 34.2256 7.20497C34.2186 7.06747 34.2048 6.9231 34.191 6.7856C34.1287 6.6481 34.0664 6.5106 33.9972 6.3731C33.9903 6.28372 33.9765 6.18747 33.9626 6.08435C33.8796 5.92622 33.7897 5.7681 33.6997 5.60997C33.7066 5.56184 33.7135 5.50684 33.7205 5.45872C33.6997 5.51372 33.6789 5.56872 33.6582 5.63059C33.6236 5.54809 33.5821 5.4656 33.5406 5.3831C33.6236 5.64435 33.6928 5.9056 33.7689 6.15997C33.8035 6.18747 33.8242 6.21497 33.8519 6.24247C33.8588 6.35935 33.8727 6.4831 33.8796 6.59997C33.9004 6.62747 33.9211 6.6481 33.9488 6.6756C33.9626 6.7581 33.9765 6.8406 33.9903 6.9231C34.0664 7.0331 34.1425 7.1431 34.2117 7.24622C34.1979 7.27372 34.191 7.29434 34.1771 7.32185C34.2117 7.3631 34.2463 7.41122 34.2809 7.45247C34.4124 7.40435 34.5369 7.35622 34.6476 7.3081C34.6615 7.31497 34.6684 7.32185 34.6822 7.32872C34.6753 7.36997 34.6684 7.41122 34.6546 7.45247C34.5646 7.64497 34.4677 7.83747 34.3709 8.0231C34.184 8.22935 33.9834 8.42872 33.7758 8.6281C33.7135 8.7381 33.6513 8.84122 33.589 8.94435C33.5959 9.06122 33.6028 9.1781 33.6098 9.2881C33.5752 9.40497 33.5406 9.52184 33.499 9.63185C33.333 9.76247 33.16 9.88622 32.9801 10.01C32.9732 10.0581 32.9732 10.1131 32.9663 10.1612C32.9455 10.2025 32.9248 10.2437 32.8971 10.285C32.8417 10.3125 32.7795 10.34 32.7172 10.3606C32.6757 10.4225 32.6411 10.4775 32.6065 10.5393C32.4888 10.6218 32.3712 10.6975 32.2536 10.7731C32.1636 10.8006 32.0668 10.835 31.9768 10.8625C31.9353 10.8625 31.8869 10.8625 31.8454 10.8625C31.79 10.8762 31.7277 10.89 31.6655 10.8968C31.6309 10.89 31.5893 10.8831 31.5548 10.8762C31.5478 10.8556 31.5478 10.835 31.534 10.8075C31.5478 10.7937 31.5617 10.78 31.5755 10.7662C31.5271 10.6906 31.4786 10.615 31.4302 10.5325C31.4302 10.4362 31.4371 10.3331 31.4371 10.23C31.3818 10.1268 31.3333 10.0237 31.278 9.91372C31.3195 9.80372 31.361 9.69372 31.4025 9.57685C31.451 9.52185 31.4925 9.46684 31.5409 9.41185C31.5132 9.24685 31.4856 9.0681 31.4648 8.88935C31.3818 8.74497 31.2918 8.59372 31.2088 8.4356C31.2296 8.4081 31.2503 8.3806 31.2711 8.35997C31.2987 8.25684 31.3264 8.15372 31.361 8.0506C31.3472 8.0231 31.3333 7.98872 31.3195 7.96122C31.3057 7.9406 31.2918 7.91997 31.278 7.89934C31.188 7.89934 31.0981 7.89934 31.0081 7.89934C30.9528 7.81684 30.8974 7.73435 30.849 7.65185C30.759 7.65872 30.676 7.65872 30.5861 7.65872C30.4823 7.6931 30.3716 7.73435 30.2678 7.76872C30.1917 7.7481 30.1294 7.71372 30.0533 7.6931C29.9564 7.72059 29.8526 7.74122 29.7627 7.76185C29.735 7.75497 29.7142 7.74122 29.6866 7.72747C29.5551 7.58997 29.4236 7.45934 29.2991 7.32185C29.2922 7.27372 29.2853 7.22559 29.2783 7.17747C29.223 7.07435 29.1607 6.96434 29.1054 6.86122C29.0708 6.8406 29.0362 6.82685 29.0016 6.80622C29.0085 6.75122 29.0154 6.68935 29.0223 6.62747C29.0016 6.59997 28.9877 6.5656 28.967 6.5381C29.0016 6.50372 29.0362 6.46935 29.0638 6.43497C29.0846 6.35934 29.1054 6.27685 29.1261 6.20122C29.1192 6.04997 29.1192 5.90559 29.1123 5.75434C29.2576 5.55497 29.396 5.36247 29.5482 5.1631C29.5897 5.15622 29.6312 5.14934 29.6797 5.13559C29.735 5.08747 29.7904 5.03935 29.8526 4.99122C29.8872 4.89497 29.9218 4.79872 29.9564 4.70247C30.0325 4.66122 30.1156 4.6131 30.1917 4.56497C30.2263 4.5031 30.2678 4.4481 30.3024 4.3931C30.3993 4.4206 30.4961 4.45497 30.593 4.48247C30.7037 4.44122 30.8075 4.40685 30.9182 4.3656C31.1673 4.3656 31.4164 4.35872 31.6655 4.3656C31.6862 4.38622 31.707 4.41372 31.7277 4.43435C31.7485 4.42747 31.7692 4.4206 31.7831 4.41372C31.7692 4.43435 31.7485 4.45497 31.7347 4.46872C31.7485 4.50997 31.7623 4.55122 31.7692 4.59247C31.7416 4.6406 31.7139 4.68185 31.6793 4.7231C31.8315 4.79185 31.9768 4.86747 32.129 4.93622C32.136 4.96372 32.1429 4.99122 32.1498 5.01872C32.2398 5.07372 32.3297 5.12185 32.4127 5.17685C32.4473 5.16997 32.4888 5.16309 32.5234 5.15622C32.5304 5.1081 32.5373 5.0531 32.5442 4.9981C32.5926 4.98435 32.6411 4.96372 32.6895 4.94997C32.7795 5.01185 32.8763 5.06685 32.9663 5.12872C33.0701 5.16997 33.1669 5.20435 33.2707 5.2456C33.3261 5.23185 33.3814 5.2181 33.4368 5.20435C33.4645 5.23185 33.4921 5.25247 33.5129 5.27997C33.5682 5.26622 33.6236 5.25935 33.672 5.2456C33.6997 5.14935 33.7343 5.05997 33.762 4.9706C33.762 4.8881 33.762 4.81247 33.762 4.73685C33.6859 4.7506 33.6167 4.76435 33.5406 4.78497C33.499 4.7506 33.4644 4.71622 33.4299 4.68872C33.3953 4.70247 33.3607 4.71622 33.3261 4.72997C33.2569 4.68872 33.1946 4.65435 33.1254 4.6131C33.1254 4.57872 33.1254 4.55122 33.1254 4.51685C33.0977 4.5031 33.077 4.48935 33.0562 4.4756C33.0701 4.4756 33.0908 4.46872 33.1047 4.46872C33.0839 4.4206 33.0631 4.3656 33.0355 4.31747C33.0562 4.3106 33.077 4.28997 33.0977 4.2831C33.1462 4.28997 33.1946 4.30372 33.243 4.3106C33.25 4.30372 33.2638 4.29685 33.2707 4.28997C33.2638 4.27622 33.25 4.26247 33.2361 4.2556C33.2361 4.24872 33.2361 4.24185 33.2361 4.2281C33.25 4.24185 33.2707 4.24872 33.2915 4.2556C33.416 4.2556 33.5267 4.2556 33.6444 4.24872C33.6997 4.28997 33.7551 4.33122 33.8035 4.37935C33.8588 4.3931 33.9211 4.40685 33.9765 4.4206C34.0041 4.39997 34.0941 4.37935 34.1287 4.35872C34.018 4.24185 33.8519 4.12497 33.8519 4.0081C33.8519 4.00122 33.8519 3.99435 33.8519 3.98747C33.8519 3.98747 33.8035 3.99435 33.8104 3.99435C33.8243 3.97372 33.8173 3.9531 33.8243 3.93247C33.8104 3.91872 33.7827 3.8981 33.7689 3.88435C33.8035 3.88435 33.8243 3.87747 33.8588 3.87747C33.8243 3.8706 33.7827 3.85685 33.7481 3.84997C33.6859 3.86372 33.6236 3.88435 33.5613 3.8981C33.589 3.9256 33.6167 3.94622 33.6444 3.97372C33.6651 3.97372 33.6928 3.98747 33.7135 3.98747C33.7135 3.99435 33.7135 4.00122 33.7135 4.0081C33.6582 4.0081 33.5959 4.01497 33.5406 4.02185C33.5129 3.98747 33.4852 3.9531 33.4506 3.91185C33.4714 3.90497 33.4921 3.89122 33.5129 3.87747C33.4783 3.84997 33.4368 3.82247 33.4022 3.79497C33.3745 3.7881 33.3468 3.78122 33.3191 3.77435C33.2915 3.79497 33.2638 3.80872 33.243 3.82935C33.2015 3.91185 33.16 4.00122 33.1185 4.08372C33.1462 4.12497 33.1808 4.16622 33.2084 4.20747C33.2154 4.21435 33.2223 4.21435 33.2292 4.21435C33.2292 4.22122 33.2223 4.2281 33.2223 4.23497C33.1946 4.23497 33.16 4.22122 33.1254 4.22122C33.0977 4.24872 33.0631 4.26935 33.0355 4.29685C33.0424 4.27622 33.0562 4.26247 33.0631 4.24185C33.0424 4.2281 33.0216 4.21435 33.0009 4.2006C32.9663 4.19372 32.9248 4.18685 32.8902 4.1731C32.8763 4.19372 32.8625 4.21435 32.8417 4.23497C32.814 4.21435 32.7864 4.2006 32.7656 4.17997C32.821 4.26935 32.8694 4.3656 32.9248 4.45497C32.904 4.4756 32.8902 4.46872 32.8763 4.45497C32.8763 4.4756 32.8763 4.48935 32.8763 4.50997C32.8002 4.4756 32.7241 4.44122 32.648 4.39997C32.5996 4.33122 32.558 4.2556 32.5096 4.18685C32.5096 4.13872 32.5165 4.0906 32.5165 4.04935C32.4058 3.95997 32.2882 3.87747 32.1775 3.7881C32.1706 3.7606 32.1636 3.72622 32.1567 3.69185C32.1429 3.6781 32.129 3.66435 32.1083 3.65747C32.0944 3.67122 32.0875 3.68497 32.0737 3.69872C32.0599 3.67122 32.0391 3.63685 32.0183 3.60935C31.9976 3.60935 31.9699 3.61622 31.9491 3.61622C31.9491 3.65747 31.9491 3.69185 31.9491 3.72622C31.9976 3.7881 32.046 3.85685 32.0945 3.9256C32.1498 3.94622 32.1982 3.97372 32.2536 3.99435C32.3159 4.05622 32.3781 4.1181 32.4404 4.17997C32.3989 4.15935 32.3574 4.1456 32.3159 4.13185C32.3159 4.17997 32.3228 4.2281 32.3228 4.26935C32.2951 4.30372 32.2674 4.33122 32.2398 4.3656C32.2328 4.29685 32.2259 4.2281 32.219 4.15935C32.0944 4.06997 31.9699 3.97372 31.8454 3.88435C31.8246 3.82935 31.8038 3.77435 31.7831 3.71935C31.7485 3.7056 31.7139 3.69185 31.6724 3.67122C31.6101 3.69872 31.5478 3.7331 31.4786 3.7606C31.4164 3.73997 31.3472 3.71935 31.2849 3.69872C31.2572 3.71247 31.2226 3.72622 31.195 3.73997C31.195 3.77435 31.195 3.80185 31.195 3.83622C31.1327 3.85685 31.0704 3.88435 31.0012 3.91185C30.9597 3.9531 30.9113 3.99435 30.8698 4.04247C30.8836 4.06997 30.8905 4.09747 30.9113 4.1181C30.8282 4.17997 30.7521 4.23497 30.6691 4.29685C30.5722 4.3106 30.4754 4.32435 30.3785 4.34497C30.3439 4.30372 30.3024 4.26247 30.2678 4.22122C30.2124 4.22122 30.1571 4.22122 30.1017 4.2281C30.1432 4.02872 30.1917 3.82935 30.2332 3.64372C30.2609 3.62997 30.2885 3.61622 30.3162 3.60247C30.4892 3.61622 30.6691 3.62997 30.8421 3.6506C30.8628 3.57497 30.8767 3.49935 30.8974 3.42372C30.8213 3.3481 30.7452 3.27935 30.6691 3.21747C30.7521 3.21747 30.8352 3.22435 30.9182 3.23122C30.9113 3.20372 30.9044 3.16935 30.9044 3.14185C30.9528 3.1556 31.0012 3.16935 31.0427 3.1831C31.1742 3.1006 31.3057 3.0181 31.4371 2.9356C31.4648 2.94935 31.4925 2.95622 31.5202 2.96997C31.5132 2.94935 31.5063 2.92872 31.4925 2.9081C31.5686 2.91497 31.6378 2.91497 31.7139 2.92185C31.7277 2.89435 31.7416 2.87372 31.7554 2.8531C31.7347 2.80497 31.7208 2.75685 31.7001 2.70185C31.7139 2.6881 31.7277 2.68122 31.7416 2.66747C31.7831 2.6606 31.8246 2.65372 31.8661 2.64685C31.873 2.68122 31.88 2.7156 31.88 2.7431C31.8454 2.76372 31.8108 2.79122 31.7762 2.81185C31.8108 2.83935 31.8384 2.87372 31.8661 2.9081C31.9284 2.89435 31.9907 2.88747 32.0529 2.8806C32.0529 2.89435 32.046 2.90122 32.046 2.91497C32.0668 2.92185 32.0875 2.9356 32.1152 2.94935C32.2121 2.9631 32.2951 2.95622 32.392 2.94935C32.4127 2.9631 32.4335 2.98372 32.4612 2.99747C32.4888 2.98372 32.5234 2.96997 32.5511 2.95622C32.565 2.90122 32.5857 2.8531 32.5996 2.7981C32.6549 2.81872 32.7103 2.83935 32.7725 2.85997C32.7449 2.81185 32.7241 2.7706 32.6964 2.72247C32.8279 2.73622 32.9593 2.75685 33.0839 2.7706C33.0355 2.74997 33.0009 2.72247 32.9594 2.69497C32.8694 2.6881 32.7725 2.67435 32.6826 2.66747C32.6341 2.63997 32.5926 2.61935 32.5442 2.59872C32.5442 2.5506 32.5442 2.50935 32.5442 2.46122C32.6065 2.4406 32.6687 2.4131 32.731 2.39247C32.7103 2.37185 32.6964 2.35122 32.6757 2.33747C32.6411 2.3306 32.5996 2.32372 32.558 2.30997C32.5373 2.32372 32.5096 2.33747 32.4888 2.35122C32.5027 2.3581 32.5165 2.36497 32.5304 2.37185C32.4542 2.39935 32.3712 2.41997 32.2882 2.44747C32.2882 2.47497 32.2882 2.50247 32.2882 2.52997C32.3228 2.55747 32.3643 2.58497 32.3989 2.61247C32.3574 2.6331 32.3159 2.64685 32.2744 2.66747C32.2605 2.7156 32.2398 2.76372 32.219 2.81872C32.1498 2.8256 32.0875 2.83247 32.0253 2.83935C31.9699 2.74997 31.9215 2.65372 31.8661 2.56435C31.7969 2.5781 31.7347 2.6056 31.6655 2.61935C31.6239 2.6056 31.5893 2.59872 31.5548 2.58497C31.5478 2.55747 31.534 2.52997 31.5271 2.50247C31.5617 2.48872 31.5963 2.48185 31.6309 2.47497C31.6309 2.4681 31.6309 2.45435 31.6239 2.44747C31.5963 2.45435 31.5617 2.4681 31.534 2.47497C31.534 2.46122 31.5271 2.4406 31.5202 2.42685C31.5617 2.43372 31.6032 2.43372 31.6378 2.4406C31.6447 2.43372 31.6516 2.41997 31.6516 2.4131C31.6032 2.4131 31.5617 2.4131 31.5132 2.4131C31.5132 2.39935 31.5063 2.3856 31.5063 2.36497C31.6032 2.34435 31.707 2.32372 31.8038 2.30997C31.8592 2.28935 31.9076 2.26185 31.963 2.24122C32.0391 2.19997 32.1152 2.15872 32.1844 2.12435C32.1221 2.12435 32.0668 2.11747 32.0045 2.11747C32.046 2.1106 32.0806 2.1106 32.1221 2.1106C32.1083 2.10372 32.1014 2.09685 32.0875 2.08997C32.1152 2.08997 32.1498 2.0831 32.1775 2.07622C32.1844 2.08997 32.1982 2.09685 32.2052 2.1106C32.2398 2.09685 32.2813 2.0831 32.3159 2.06935C32.3851 2.06935 32.4612 2.07622 32.5373 2.07622C32.6341 2.09685 32.731 2.12435 32.8279 2.14497C32.8625 2.1656 32.904 2.17935 32.9455 2.19997C32.904 2.1931 32.8694 2.18622 32.8279 2.17935C33.0493 2.2756 33.2638 2.37872 33.4714 2.48185C33.4852 2.50247 33.499 2.51622 33.5129 2.53685C33.4714 2.52997 33.4299 2.52997 33.3883 2.5231C33.2846 2.4681 33.1669 2.41997 33.0562 2.37185C33.1047 2.40622 33.1531 2.4406 33.2084 2.4681C33.2154 2.4956 33.2292 2.51622 33.2361 2.54372C33.2984 2.5781 33.3607 2.6056 33.4229 2.6331C33.3953 2.61247 33.3399 2.59185 33.3399 2.57122C33.3399 2.56435 33.3399 2.55747 33.3399 2.54372C33.3399 2.57122 33.4714 2.6056 33.5406 2.6331C33.5198 2.61247 33.499 2.58497 33.4714 2.56435C33.506 2.56435 33.5406 2.55747 33.5821 2.55747C33.6167 2.5781 33.6513 2.59872 33.6859 2.62622C33.6859 2.61247 33.6859 2.6056 33.6789 2.59185C33.6374 2.54372 33.6028 2.4956 33.5613 2.45435C33.6098 2.47497 33.6582 2.50247 33.7066 2.52997C33.7135 2.53685 33.7274 2.54372 33.7343 2.55747C33.7135 2.55747 33.6928 2.55747 33.672 2.55747C33.7066 2.5781 33.7412 2.6056 33.7758 2.62622C33.7897 2.61247 33.8035 2.6056 33.8173 2.59185C33.8865 2.59872 33.9557 2.6056 34.018 2.61247C34.0387 2.6331 34.0664 2.65372 34.0872 2.67435C34.1356 2.68122 34.1771 2.69497 34.2256 2.70185C34.2463 2.7156 34.2602 2.73622 34.2809 2.74997C34.274 2.75685 34.2809 2.74997 34.2878 2.74997C34.274 2.73622 34.2602 2.7156 34.2394 2.70185C34.2117 2.68122 34.1771 2.6606 34.1495 2.63997L34.1564 2.6331C34.3017 2.72935 34.447 2.83247 34.5784 2.9356C34.5784 2.92872 34.5784 2.92185 34.5784 2.91497C34.5438 2.88747 34.5092 2.8531 34.4747 2.8256C34.4608 2.7981 34.4331 2.7706 34.4193 2.73622C34.4262 2.72247 34.4331 2.70872 34.4401 2.69497C34.4747 2.7156 34.5092 2.7431 34.5438 2.76372C34.5508 2.77747 34.5577 2.79122 34.5577 2.81185C34.613 2.87372 34.6615 2.92185 34.7168 2.97685C34.703 2.95622 34.6891 2.92872 34.6753 2.9081C34.6476 2.8806 34.6269 2.8531 34.5992 2.83247C34.6061 2.83247 34.62 2.8256 34.6269 2.8256C34.6407 2.84622 34.6546 2.86685 34.6684 2.88747C34.703 2.91497 34.7376 2.9356 34.7791 2.9631C34.7445 2.92872 34.7099 2.90122 34.6753 2.86685C34.6961 2.8806 34.7099 2.88747 34.7307 2.90122C34.7376 2.90122 34.7445 2.90122 34.7514 2.90122C34.786 2.9356 34.8206 2.9631 34.8621 2.99747C34.869 2.99747 34.876 3.00435 34.876 3.00435C34.8414 2.9631 34.7999 2.92185 34.7583 2.88747C34.7583 2.8806 34.7583 2.87372 34.7514 2.87372C34.7999 2.90122 34.8483 2.9356 34.8967 2.9631C34.8829 2.94935 34.869 2.9356 34.8552 2.92185C34.8621 2.92185 34.869 2.92185 34.876 2.91497C34.9521 2.9631 35.0143 3.01122 35.0766 3.05935C35.0697 3.05247 35.0628 3.03872 35.0489 3.03185C35.0628 3.0456 35.0766 3.05935 35.0905 3.06622C35.0835 3.05935 35.0766 3.0456 35.0697 3.03872C35.0766 3.03872 35.0835 3.0456 35.0974 3.05247C35.1251 3.07997 35.1527 3.10747 35.1804 3.13497C35.1873 3.14185 35.1943 3.1556 35.1943 3.16247L35.2012 3.16935C35.9138 4.1731 36.3082 5.40372 36.2321 6.65497C36.2183 6.6481 36.2183 6.66185 36.2183 6.6756ZM31.6862 3.9806C31.6931 3.99435 31.707 4.0081 31.7139 4.02185C31.707 4.07685 31.6931 4.13185 31.6862 4.18685C31.6655 4.19372 31.6378 4.2006 31.6239 4.21435C31.6101 4.1456 31.6032 4.07685 31.5963 4.0081C31.6239 3.99435 31.6516 3.99435 31.6862 3.9806ZM31.6447 3.86372C31.6655 3.85685 31.6931 3.83622 31.707 3.82935C31.7001 3.87747 31.6862 3.93247 31.6724 3.9806C31.6655 3.93935 31.6516 3.8981 31.6447 3.86372ZM31.9215 4.3381C32.0183 4.3381 32.1083 4.34497 32.2052 4.34497C32.1913 4.3931 32.1706 4.4481 32.1567 4.49622C32.0737 4.44122 31.9976 4.38622 31.9215 4.3381ZM32.6411 4.48247C32.6618 4.46872 32.6757 4.45497 32.6964 4.44122C32.7241 4.45497 32.7518 4.4756 32.7725 4.48935C32.7795 4.53747 32.7864 4.5856 32.7933 4.63372C32.7587 4.61997 32.7241 4.59935 32.6826 4.5856C32.6687 4.55122 32.6549 4.51685 32.6411 4.48247ZM32.8348 4.7506C32.8348 4.73685 32.8417 4.7231 32.8417 4.70935C32.9109 4.72997 32.987 4.7506 33.0493 4.7781C33.0493 4.78497 33.0424 4.79184 33.0355 4.80559C32.987 4.79872 32.9317 4.79185 32.8832 4.78497C32.8694 4.77122 32.8556 4.75747 32.8348 4.7506ZM33.506 4.88122C33.5613 4.87435 33.6098 4.8606 33.6651 4.85372C33.6443 4.88122 33.6236 4.90185 33.6028 4.92935C33.5682 4.90872 33.5406 4.89497 33.506 4.88122ZM31.8938 2.80497C31.9076 2.7981 31.9146 2.7981 31.9215 2.7981C31.9284 2.80497 31.9422 2.80497 31.9561 2.80497C31.963 2.7981 31.9768 2.7981 31.9907 2.7981C31.9976 2.80497 31.9976 2.81185 32.0045 2.81872C31.9837 2.83247 31.9699 2.83935 31.9491 2.8531C31.9284 2.83935 31.9076 2.8256 31.8938 2.80497ZM32.3643 2.7981C32.3643 2.78435 32.3643 2.77747 32.3643 2.76372C32.3851 2.75685 32.4127 2.74997 32.4335 2.7431C32.4266 2.75685 32.4127 2.7706 32.4058 2.78435C32.392 2.78435 32.3781 2.79122 32.3643 2.7981ZM32.5926 2.75685C32.6203 2.75685 32.648 2.75685 32.6757 2.76372C32.6687 2.7706 32.6687 2.7706 32.6687 2.77747C32.6549 2.78435 32.6341 2.78435 32.6203 2.78435C32.6134 2.7706 32.5996 2.76372 32.5926 2.75685Z" fill="#3F9ACB"/>
<path d="M26.2547 4.29683C26.2547 4.29683 26.2616 4.28995 26.2685 4.28995C26.2616 4.28308 26.2547 4.2762 26.2547 4.26245C26.2547 4.28308 26.2547 4.28995 26.2547 4.29683Z" fill="#3F9ACB"/>
<path d="M26.3377 4.28987C26.3239 4.31737 26.31 4.34487 26.2962 4.37237C26.2962 4.37925 26.2962 4.37925 26.2962 4.38612C26.317 4.34487 26.3308 4.3105 26.3516 4.27612C26.3377 4.27612 26.3446 4.28987 26.3377 4.28987Z" fill="#3F9ACB"/>
<path fill-rule="evenodd" clip-rule="evenodd" d="M9.102 31.343C6.88094 32.773 4.72907 34.6636 3.1169 36.8499C2.40422 37.4136 1.31099 38.273 0.660584 38.823C0.632907 38.8436 0.60523 38.8643 0.584473 38.8849L1.65003 39.2355C1.64311 39.2561 1.62927 39.2699 1.62235 39.2905C1.62235 39.2974 1.62927 39.3043 1.62927 39.3111L1.10341 39.8268L1.8576 39.7099L1.86452 39.703C1.95447 39.7786 2.0721 39.8268 2.22432 39.8611C2.23816 39.8543 2.252 39.8405 2.26584 39.8336L2.77094 40.8511C2.79169 40.8236 2.80553 40.7961 2.82629 40.7618C3.28296 40.033 4.00255 38.8093 4.45922 38.0255C5.4625 37.0493 6.34816 35.9493 7.13695 34.8011C8.2371 33.1855 9.102 31.343 9.102 31.343ZM2.80553 40.308L2.4319 39.758L2.80553 40.0468L4.07175 38.2661L2.80553 40.308ZM5.71159 36.018C4.72907 37.3586 3.69811 38.5136 2.21048 39.538L2.16897 39.5655L2.11361 39.5449C2.07902 39.5243 2.05134 39.5036 2.0375 39.4899L1.97523 39.428L4.61144 36.4649L2.5426 38.5274L2.41114 38.4174C4.05099 36.1624 5.03351 34.8905 7.61437 32.9449L8.03644 32.6218L7.73892 33.0549C7.65589 33.1786 7.57978 33.2955 7.49675 33.4124C7.18538 33.8318 6.80483 34.3474 6.41043 34.8905C5.40715 36.2655 3.39366 38.3418 3.39366 38.3418C4.19629 37.7299 4.99892 36.8843 5.71159 36.018Z" fill="#3F9ACB"/>
<path d="M33.6928 11.7013C33.6513 11.6807 33.5752 11.6944 33.5129 11.7219C33.5129 11.7219 33.5129 11.7219 33.5129 11.715C33.4991 11.66 33.3607 11.6119 33.1946 11.6944C33.0908 11.7494 32.9525 11.8319 32.8279 11.9007C31.451 12.6844 29.5413 11.6532 29.2161 12.3888C28.0883 14.8294 25.7427 16.7819 24.0613 18.6244C23.66 19.0644 23.3348 19.6694 22.9196 20.0269C22.3177 20.5425 21.4943 20.7557 20.9823 21.34C20.6501 21.725 20.3526 22.1307 20.1035 22.3025C19.9651 22.1719 19.7852 21.8763 19.7022 21.6769C19.6884 21.6494 19.6814 21.6219 19.6745 21.6013C19.6676 21.5875 19.6676 21.5738 19.6607 21.5669C19.6261 21.2988 19.7645 21.0857 19.7645 21.0857C19.7645 21.0857 20.5325 19.8069 20.5671 19.7519C20.657 19.5869 20.657 19.4907 20.657 19.4907C20.657 19.25 20.4287 19.1882 20.3526 19.0782C20.2765 18.9682 20.3457 18.7825 20.3457 18.7825C20.3664 18.6794 20.3318 18.6175 20.2973 18.59C20.2419 18.5488 20.1243 18.5488 20.1243 18.5488C20.1243 18.5488 20.1658 18.4732 20.145 18.3425C20.1381 18.2875 20.1035 18.2463 20.062 18.2119C19.9928 18.1569 19.7645 18.1157 19.716 18.0332C19.7091 17.9988 19.7991 17.8544 19.7714 17.6C19.7437 17.3732 19.5431 17.3663 19.5431 17.3663C19.5431 17.3663 19.0795 17.4075 18.7128 17.3525C18.5052 17.3182 18.4291 17.2013 18.4291 17.2013C17.7787 16.0738 16.8446 15.8332 16.8446 15.8332C16.8031 15.6544 16.8031 15.2832 16.4848 15.1732C16.1596 15.0632 15.7583 15.29 15.7583 15.29C15.7583 15.29 15.267 15.565 14.6858 16.0738C14.4436 16.335 14.236 16.5825 14.0561 16.8163L14.0492 16.8232C13.8832 17.0432 13.7379 17.2425 13.6202 17.4213C13.385 17.7582 13.122 18.1638 13.0044 18.4182C12.7761 18.9269 12.9214 19.8413 13.1013 20.3432C13.2812 20.845 13.5718 21.5257 14.1461 21.9932C14.7204 22.4607 15.1563 22.4813 15.5645 22.5088C16.2011 22.5569 16.72 22.7563 16.72 22.7563C16.72 22.7563 16.9691 22.8594 17.2251 23.1757C17.232 23.1825 17.239 23.1963 17.2459 23.2032C17.4465 23.8632 17.2597 24.4957 16.8515 24.8463C14.9141 26.29 14.7411 29.0057 13.1566 30.7175C11.9873 31.9757 10.8733 33.055 9.81468 34.3132L8.58306 35.2069C8.2371 35.365 7.89114 35.5369 7.55902 35.7225C7.30993 35.86 7.06776 36.0113 6.83942 36.1694C6.70796 36.2588 6.58341 36.355 6.46579 36.4513C6.36892 36.5269 6.27897 36.6094 6.17518 36.6782C6.0368 36.7675 5.88458 36.8294 5.74619 36.9188C5.55245 37.0563 5.37947 37.2144 5.23417 37.4C5.13038 37.5307 5.04735 37.6682 4.97124 37.8194C4.85362 38.0188 4.72215 38.2113 4.70831 38.5207C6.07831 39.9644 6.78407 37.9982 7.61437 37.2075C8.47235 36.3894 9.95998 35.915 11.1362 35.0144C12.2018 34.1963 13.3781 33.3507 14.3052 32.3813C15.6476 30.9857 15.9935 29.0469 17.2113 27.7407C17.9862 29.2119 20.408 30.0575 19.9375 32.12C19.6053 33.5982 19.0103 35.3032 18.9688 36.7675C18.9618 36.9807 18.9618 37.1938 18.9688 37.4C18.9688 37.4 18.948 39.9919 18.948 40.7C18.948 41.4082 18.4222 42.2607 18.4222 42.2607C18.3045 42.4463 17.8755 43.0238 17.5642 43.4432C17.3843 43.6838 17.066 44.0619 16.9899 44.1513C15.9312 45.4507 15.4261 47.9394 15.267 48.6063C15.1009 49.3144 14.8726 49.5619 14.8726 49.5619C14.5197 49.7475 14.2222 50.4763 14.0769 50.9094C13.9316 51.3425 13.6617 52.03 13.6617 52.03C13.6617 52.03 13.1636 52.9444 12.9629 53.5563C12.7623 54.1682 13.0598 54.3125 13.0598 54.3125C13.1428 54.56 13.468 54.6013 13.468 54.6013C13.5303 54.7182 13.8416 54.78 13.8416 54.78H14.7204C15.0733 54.7663 15.1978 54.78 15.2739 54.5188C15.35 54.2575 15.2186 53.9275 15.3915 52.91C15.5576 51.8925 15.7029 51.4732 16.0004 50.5725C16.291 49.665 16.5955 49.4313 17.6818 47.8913C18.7681 46.3513 18.8857 45.925 19.1002 45.54C19.3147 45.155 19.3839 45.1138 20.2903 44.1375C21.1967 43.1613 21.2798 42.8382 21.3974 42.57C21.515 42.3019 21.7641 41.635 21.7641 41.635C21.7641 41.635 22.1654 41.965 22.0616 42.515C22.0478 42.5975 21.7641 43.78 21.5842 44.5294C21.3213 45.6363 21.7434 46.97 21.9648 47.8569C22.1862 48.7369 22.3384 49.6307 22.3592 50.2013C22.3799 50.7719 22.0962 51.3288 22.0962 51.3288C21.8472 51.8719 21.8956 52.195 21.8956 52.195C22.0201 52.8207 22.8574 52.7244 22.8574 52.7244C22.8574 52.7244 24.0405 52.745 24.255 52.7244C24.4764 52.7038 25.0577 53.075 25.2998 53.2125C25.542 53.35 25.971 53.3638 25.971 53.3638C25.971 53.3638 26.6283 53.3569 26.8428 53.3363C27.0573 53.3088 27.1057 53.1782 27.1334 53.0819C27.168 52.9375 27.1127 52.8069 27.1127 52.8069H27.1749C27.2095 52.8069 27.2095 52.7588 27.2095 52.7588V52.6969C27.2095 52.5594 27.1196 52.5319 27.1196 52.5319C27.1057 52.4563 26.9328 52.4494 26.9051 52.4494C26.8843 52.3875 26.7805 52.3807 26.7183 52.3807C26.7252 52.3807 26.7875 52.415 26.8082 52.4838H26.8843C26.8843 52.4838 27.0642 52.4769 27.0711 52.5663C27.0711 52.5663 27.1542 52.5732 27.168 52.6419C27.168 52.6419 27.1749 52.6763 27.1403 52.6763C27.1057 52.6763 27.0573 52.6763 27.0573 52.6763C27.0573 52.6763 27.0365 52.58 26.9466 52.5869C26.9397 52.5869 26.7598 52.5594 26.7598 52.5594C26.7598 52.5594 26.8013 52.4219 26.4346 52.3394C26.5245 52.3394 26.5868 52.3532 26.6352 52.36C26.5522 52.3188 26.3723 52.2775 26.2408 52.2775C26.0817 52.2775 25.971 52.14 25.971 52.14C25.971 52.14 24.9331 51.0744 24.5595 50.7444C24.0613 50.3113 24.0267 50.1875 24.0267 50.105C24.0267 50.0225 23.9921 44.055 24.2689 43.3469C24.3934 43.0375 24.7048 42.1232 24.7878 41.91C24.8708 41.7038 24.9124 40.1294 24.9124 39.7375C24.9124 39.3457 25.0923 38.6169 25.0923 38.6169C25.2652 37.8332 25.4175 37.1113 25.4866 36.6919C25.6043 36.2175 25.7081 35.75 25.7703 35.2894C26.0263 33.3507 25.2445 31.9275 24.8916 30.3807C24.6287 29.2463 24.4488 27.9607 24.0129 26.8744C23.6185 25.8844 22.7605 24.585 22.6913 23.8082C22.5667 22.4194 24.1028 21.5738 24.8916 20.7419C25.5282 20.0682 26.1163 19.2913 26.739 18.6382C28.1575 17.1738 28.9255 15.4688 29.908 13.9082C30.9736 12.21 31.7485 13.9357 33.5752 12.2307C33.762 11.9832 33.8243 11.7769 33.6928 11.7013ZM16.7062 16.3763C16.547 16.5894 16.2495 16.6375 15.9797 16.885C15.7098 17.1394 15.8897 17.3732 15.8897 17.3732C16.0419 17.545 16.3533 17.9232 15.9243 18.1432C15.6476 18.2875 14.8449 18.1844 14.8449 18.1844C15.9036 18.0332 15.7513 17.7513 15.6822 17.6482C15.613 17.545 15.4953 17.5588 15.1079 17.8132C14.7204 18.0675 14.3883 18.095 14.3883 18.095C14.8242 17.9163 15.177 17.6413 15.4884 17.2219C15.5784 17.105 15.696 16.9057 15.696 16.9057C15.696 16.9057 15.5507 16.8713 15.0871 17.2769C14.838 17.49 14.3883 17.6344 14.3883 17.6344C14.3883 17.6344 14.6512 17.4832 15.0525 17.0157C15.4884 16.5069 16.0765 16.4725 16.0765 16.4725C16.0765 16.4725 15.8828 16.3694 15.3431 16.555C15.1217 16.6307 14.7757 16.8713 14.7757 16.8713C15.1632 16.3557 15.4746 16.2044 15.9243 16.2182C16.8169 16.2388 16.7131 15.9707 16.7131 15.9707C16.7823 16.0394 16.8653 16.17 16.7062 16.3763ZM6.98473 37.565C6.60417 37.5375 6.52114 37.8057 6.45195 38.0875C6.20286 37.675 6.99857 37.3863 6.5419 36.9463C6.13367 37.5238 6.15442 38.0875 5.57321 38.2594C5.76003 37.5925 6.47271 36.4444 7.39988 36.4238C7.10927 36.4994 6.73564 37.125 6.98473 37.565ZM12.444 33.2682C12.3263 33.2407 12.3056 33.1169 12.181 33.0963C11.9596 33.1582 12.3471 33.33 12.271 33.5294C12.1603 33.495 12.0911 33.4194 12.098 33.2682C11.586 33.495 11.3231 33.9625 11.0394 34.4094C11.1293 34.3544 11.1293 34.21 11.3023 34.2307C11.1639 34.4438 11.0601 34.6913 10.7764 34.7532C10.818 34.5675 10.6519 34.5882 10.5135 34.5744C10.9079 33.3369 12.3748 33.1582 12.6239 31.7694C13.1082 31.6388 12.9491 30.8688 13.5926 30.8963C13.5372 30.8069 13.3919 30.8069 13.4127 30.635C13.4818 30.5594 13.6548 30.5869 13.6756 30.4563C13.6894 30.7657 13.8347 31.3088 14.2014 31.5082C14.0215 32.505 12.7623 32.4225 12.444 33.2682ZM18.602 25.1213C18.0347 25.3894 17.2805 25.3688 16.6647 25.9119C15.4261 27.005 15.2739 29.2807 13.8486 30.47C15.3154 29.0125 15.2116 25.9875 17.2805 25.1213C17.5503 25.2107 17.0867 25.2657 17.1006 25.3825C17.3843 25.5475 17.4881 24.7775 17.9793 24.8532C18.0347 24.4544 17.9862 24.2138 18.5951 24.2413C18.5605 24.4682 18.4429 24.7913 18.2423 24.5919C18.2768 24.8669 18.4983 24.9357 18.602 25.1213ZM14.6028 54.3538C14.5889 54.2644 14.499 54.2782 14.499 54.2782H14.2153C14.2084 54.2094 14.153 54.23 14.153 54.23C14.153 54.23 13.8555 54.23 13.8416 54.23C13.8555 54.1269 13.7379 54.1063 13.7379 54.1063H13.4542C13.468 53.9482 13.2535 53.9207 13.2535 53.9207C13.2535 53.9207 13.3435 53.9207 13.3573 53.9207C13.5372 53.9138 13.5234 54.01 13.5234 54.01C13.5234 54.01 13.6825 54.0169 13.7932 54.01C13.9039 54.0032 13.8901 54.1132 13.8901 54.1132C13.8901 54.1132 14.07 54.12 14.153 54.1132C14.236 54.1132 14.236 54.1888 14.236 54.1888C14.236 54.1888 14.4367 54.1819 14.5197 54.1888C14.6028 54.1957 14.5958 54.2988 14.5958 54.2988V54.3538H14.6028ZM14.6789 51.1775C14.3467 51.1294 14.4159 50.6413 14.4159 50.6413C14.4229 50.5725 14.4644 50.5175 14.4851 50.6138C14.5059 50.7032 14.5336 50.7582 14.6235 50.8132C14.7065 50.8682 14.8242 50.6963 14.9626 50.5313C15.1009 50.3663 15.1148 50.49 15.1148 50.49C15.1148 50.49 15.011 51.2257 14.6789 51.1775ZM15.1494 54.285C15.1494 54.285 15.1286 54.2438 14.9833 54.2369C14.8311 54.2369 14.7411 54.2507 14.7065 54.2988V54.2782C14.7065 54.2782 14.7065 54.1063 14.8588 54.1063C15.011 54.1063 15.0317 54.1063 15.0317 54.1063C15.0317 54.1063 15.1425 54.1132 15.1494 54.2025V54.285ZM18.865 42.295C18.8027 42.4463 18.4637 43.0444 18.2492 43.4363C17.9516 43.9863 17.7441 44.7769 17.1905 44.7494C17.7856 44.0207 18.2907 42.5425 19.038 41.6832C19.0449 41.8069 19.0034 41.965 19.0864 42.02C18.9688 42.0338 18.692 42.4325 18.865 42.295ZM26.7875 52.9032C26.8359 52.8963 26.8428 52.8757 26.8636 52.8413C26.9189 52.7519 26.9743 52.7244 26.9743 52.7244C26.9743 52.7244 26.9051 52.8413 26.8982 52.9582C26.8082 52.9719 26.5038 52.8825 26.5038 52.8825C26.5038 52.8825 26.7321 52.91 26.7875 52.9032ZM20.8923 24.9425C20.6847 25.3069 20.6778 25.0663 20.2765 25.0319C20.4287 24.5025 19.5223 24.7157 19.4808 24.0694C19.2455 24.0625 19.3009 24.2138 19.1279 24.0694C18.9618 24.0075 19.2248 23.9319 19.2179 24.0694C19.2801 23.8425 19.4185 23.3957 19.4808 22.9282C19.6607 22.9557 19.6538 23.1619 19.7437 23.2788C19.806 23.2032 19.723 22.825 19.9167 22.6669C20.3249 22.7082 20.4426 22.7838 20.9753 22.8457C20.8024 22.9075 20.6916 23.2444 20.9753 23.2857C20.9061 23.4438 20.8162 23.2994 20.7055 23.2857C20.6155 23.5813 20.9823 23.4232 21.1483 23.4644C21.2452 23.1344 20.9338 23.2169 20.9753 22.9419C21.2313 22.8663 21.0722 22.8113 21.0584 22.5913C21.3766 22.3782 21.6465 22.3988 21.9371 22.33C22.0063 22.5294 22.0201 23.1 21.5842 23.21C21.8679 23.3132 21.6465 23.9113 22.117 23.8219C21.8679 24.255 22.5045 24.2275 22.3799 24.7844C21.8195 24.4957 21.7088 23.76 20.9753 23.6432C21.0376 23.7257 21.1345 23.7807 21.2383 23.8219C20.9684 25.1213 21.3144 25.685 21.7641 26.7163C21.2106 26.3794 20.9823 25.7332 20.8923 24.9425ZM22.5529 51.7344C22.5529 51.7344 22.373 51.7207 22.2277 51.6382C22.0824 51.5557 22.1654 51.4044 22.1724 51.3907C22.2277 51.2944 22.2692 51.3425 22.3315 51.425C22.3938 51.5007 22.5183 51.6038 22.5944 51.6657C22.6775 51.7344 22.5529 51.7344 22.5529 51.7344ZM23.0926 26.4344C23.0718 27.005 23.6531 27.2594 23.4455 27.7475C23.1618 27.6925 23.0373 27.8094 22.8297 27.8369C22.6359 27.6513 22.9058 27.555 22.7397 27.3969C22.6705 27.445 22.5944 27.4932 22.4768 27.4863C22.4768 27.7407 22.885 27.7819 22.6498 28.0088C22.5252 27.9194 22.1862 27.6032 22.3868 27.4863C22.3523 27.3557 22.2761 27.5207 22.1239 27.4863C22.0686 27.3007 21.9025 27.2388 21.944 26.9569C22.1862 26.895 22.1239 27.1288 22.2969 27.1288C22.2208 26.9432 22.0686 26.8332 22.1239 26.5169C22.373 26.6475 22.7259 26.675 22.9127 26.8675C22.9542 27.1425 22.6775 27.1013 22.6498 27.3075C23.0788 27.3419 22.7397 27.1219 23.0027 26.9569C22.8712 26.7644 22.8297 26.4894 22.6498 26.345C22.6636 26.18 22.9819 26.4138 23.0926 26.4344ZM26.0886 17.3182C26.0471 17.3663 26.1371 17.5382 26.0886 17.5794C25.5766 18.0675 24.8155 18.3288 24.3035 18.7894C24.2827 18.8582 24.2274 18.92 24.2274 18.9888C24.2274 18.9338 24.2274 18.8719 24.2274 18.81C24.2274 18.8032 24.2896 18.7963 24.3035 18.7894C24.4557 18.2463 25.2652 17.6344 25.798 17.6688C25.798 17.5863 25.7011 17.6 25.6389 17.5794C26.6352 16.1494 28.199 14.8088 28.9047 13.3719C29.4029 13.3788 29.5482 12.9869 29.9772 12.65C28.877 14.2932 27.5762 15.7575 26.0886 17.3182Z" fill="#3F9ACB"/>
</svg>
