<svg width="136" height="19" viewBox="0 0 136 19" fill="none" xmlns="http://www.w3.org/2000/svg">
<path d="M59.2019 11.712H68.1084L63.4039 3.91198L54.7545 18H50.8214L61.3409 1.09798C61.5702 0.760706 61.8749 0.484765 62.2295 0.293274C62.5841 0.101783 62.9782 0.000318046 63.3788 -0.00261987C63.7794 -0.00555779 64.1749 0.0901166 64.5321 0.276388C64.8893 0.46266 65.1978 0.734104 65.4318 1.06798L75.9805 18H72.0474L70.1948 14.85H61.1831L59.2195 11.712M100.088 14.85V0.167981H96.7448V16.296C96.7442 16.5201 96.7879 16.742 96.8733 16.9483C96.9587 17.1546 97.084 17.3409 97.2415 17.496C97.3997 17.6622 97.5889 17.794 97.7977 17.8837C98.0065 17.9734 98.2308 18.019 98.4571 18.018H113.652L115.633 14.868H100.07M44.8195 12.228C46.3772 12.228 47.8711 11.5927 48.9726 10.4618C50.074 9.33099 50.6928 7.79724 50.6928 6.19798C50.6928 4.59872 50.074 3.06497 48.9726 1.93413C47.8711 0.803282 46.3772 0.167981 44.8195 0.167981H30.2091V18H33.5461V3.32398H44.6149C45.3605 3.32398 46.0755 3.62804 46.6026 4.16927C47.1298 4.7105 47.426 5.44457 47.426 6.20998C47.426 6.9754 47.1298 7.70946 46.6026 8.25069C46.0755 8.79192 45.3605 9.09598 44.6149 9.09598H35.2L45.1701 18H50.0149L43.3175 12.228H44.8195ZM9.6844 18H19.7773C22.0407 17.9397 24.1918 16.9742 25.7719 15.3092C27.3521 13.6443 28.2364 11.4116 28.2364 9.08698C28.2364 6.76236 27.3521 4.52966 25.7719 2.86472C24.1918 1.19978 22.0407 0.234279 19.7773 0.173981H9.6844C8.52538 0.143104 7.37207 0.35081 6.29248 0.784848C5.21289 1.21889 4.22889 1.87047 3.39849 2.70117C2.5681 3.53188 1.90813 4.52488 1.4575 5.62162C1.00688 6.71837 0.774719 7.89665 0.774719 9.08698C0.774719 10.2773 1.00688 11.4556 1.4575 12.5523C1.90813 13.6491 2.5681 14.6421 3.39849 15.4728C4.22889 16.3035 5.21289 16.9551 6.29248 17.3891C7.37207 17.8232 8.52538 18.0309 9.6844 18ZM19.5493 14.862H9.90648C8.44755 14.8137 7.06412 14.1847 6.04874 13.1081C5.03336 12.0315 4.46564 10.5916 4.46564 9.09298C4.46564 7.59437 5.03336 6.15451 6.04874 5.07789C7.06412 4.00126 8.44755 3.37229 9.90648 3.32398H19.5493C20.3025 3.29904 21.0529 3.4298 21.7558 3.7085C22.4588 3.98719 23.1 4.40813 23.6414 4.9463C24.1827 5.48446 24.6132 6.12887 24.9072 6.84122C25.2012 7.55357 25.3527 8.31933 25.3527 9.09298C25.3527 9.86663 25.2012 10.6324 24.9072 11.3447C24.6132 12.0571 24.1827 12.7015 23.6414 13.2397C23.1 13.7778 22.4588 14.1988 21.7558 14.4775C21.0529 14.7562 20.3025 14.8869 19.5493 14.862ZM82.9526 18H93.2558L95.2078 14.862H83.1805C82.4273 14.8869 81.677 14.7562 80.974 14.4775C80.271 14.1988 79.6298 13.7778 79.0885 13.2397C78.5471 12.7015 78.1166 12.0571 77.8227 11.3447C77.5287 10.6324 77.3772 9.86663 77.3772 9.09298C77.3772 8.31933 77.5287 7.55357 77.8227 6.84122C78.1166 6.12887 78.5471 5.48446 79.0885 4.9463C79.6298 4.40813 80.271 3.98719 80.974 3.7085C81.677 3.4298 82.4273 3.29904 83.1805 3.32398H92.9695L94.9448 0.173981H82.9526C81.7936 0.143104 80.6403 0.35081 79.5607 0.784848C78.4811 1.21889 77.4971 1.87047 76.6667 2.70117C75.8363 3.53188 75.1763 4.52488 74.7257 5.62162C74.2751 6.71837 74.0429 7.89665 74.0429 9.08698C74.0429 10.2773 74.2751 11.4556 74.7257 12.5523C75.1763 13.6491 75.8363 14.6421 76.6667 15.4728C77.4971 16.3035 78.4811 16.9551 79.5607 17.3891C80.6403 17.8232 81.7936 18.0309 82.9526 18ZM123.786 14.862C122.561 14.8625 121.37 14.4525 120.393 13.6944C119.417 12.9363 118.707 11.8716 118.374 10.662H132.645L134.609 7.51798H118.374C118.707 6.30787 119.415 5.24255 120.392 4.48432C121.369 3.72609 122.561 3.31651 123.786 3.31798H133.581L135.538 0.167981H123.558C121.294 0.228279 119.143 1.19378 117.563 2.85872C115.983 4.52366 115.099 6.75636 115.099 9.08098C115.099 11.4056 115.983 13.6383 117.563 15.3032C119.143 16.9682 121.294 17.9337 123.558 17.994H133.861L135.819 14.856H123.78" fill="#C74634"/>
</svg>
