<svg width="134" height="47" viewBox="0 0 134 47" fill="none" xmlns="http://www.w3.org/2000/svg">
<path d="M55.7643 18.575H52.0349V21.2638H55.7643V18.575ZM55.4267 43.7108H51.6974V46.3997H55.4267V43.7108ZM63.4864 22.353L60.4704 20.1607L58.887 22.3345L61.903 24.528L63.4864 22.353ZM48.4041 42.6494L45.3882 40.457L43.8048 42.6309L46.8208 44.8233L48.4041 42.6494ZM61.3439 40.6902L58.3024 42.8466L59.8591 45.039L62.9017 42.8826L61.3439 40.6902ZM47.0388 20.1514L43.9973 22.309L45.554 24.5014L48.5967 22.3438L47.0388 20.1514ZM41.2516 26.0998L40.0684 29.6343L42.6204 30.4881L43.8036 26.9536L41.2516 26.0998ZM64.557 34.4054L63.3738 37.9399L65.9258 38.7936L67.109 35.2591L64.557 34.4054ZM39.7692 34.7719L40.8085 38.3517L43.393 37.6023L42.3536 34.0226L39.7692 34.7719ZM63.4852 27.2911L64.5246 30.8709L67.109 30.1215L66.0697 26.5418L63.4852 27.2911Z" fill="#3E96F7"/>
<path fill-rule="evenodd" clip-rule="evenodd" d="M65.1498 32.504C65.1498 38.8492 60.0018 43.9926 53.652 43.9926C47.3022 43.9926 42.1541 38.8492 42.1541 32.504C42.1541 26.1588 47.3022 21.0166 53.652 21.0166C60.0018 21.0166 65.1498 26.16 65.1498 32.504ZM53.652 39.4814C54.5686 39.4818 55.4764 39.3017 56.3235 38.9513C57.1706 38.6009 57.9403 38.087 58.5888 37.4391C59.2372 36.7912 59.7517 36.0219 60.1028 35.1751C60.4539 34.3283 60.6348 33.4207 60.6351 32.504C60.6348 31.5873 60.4539 30.6797 60.1028 29.8329C59.7517 28.9861 59.2372 28.2168 58.5888 27.5689C57.9403 26.921 57.1706 26.4071 56.3235 26.0567C55.4764 25.7063 54.5686 25.5262 53.652 25.5267C52.7353 25.5262 51.8275 25.7063 50.9804 26.0567C50.1334 26.4071 49.3636 26.921 48.7152 27.5689C48.0667 28.2168 47.5522 28.9861 47.2011 29.8329C46.85 30.6797 46.6691 31.5873 46.6688 32.504C46.6691 33.4207 46.85 34.3283 47.2011 35.1751C47.5522 36.0219 48.0667 36.7912 48.7152 37.4391C49.3636 38.087 50.1334 38.6009 50.9804 38.9513C51.8275 39.3017 52.7353 39.4818 53.652 39.4814Z" fill="#3E96F7"/>
<path d="M53.652 38.1579C54.3947 38.1583 55.1303 38.0123 55.8167 37.7283C56.503 37.4443 57.1267 37.028 57.6521 36.5029C58.1776 35.9779 58.5945 35.3546 58.879 34.6685C59.1635 33.9824 59.3101 33.2469 59.3104 32.5041C59.3101 31.7614 59.1635 31.0259 58.879 30.3398C58.5945 29.6537 58.1776 29.0303 57.6521 28.5053C57.1267 27.9803 56.503 27.564 55.8167 27.28C55.1303 26.996 54.3947 26.85 53.652 26.8503C52.9092 26.85 52.1736 26.996 51.4873 27.28C50.8009 27.564 50.1772 27.9803 49.6518 28.5053C49.1264 29.0303 48.7095 29.6537 48.425 30.3398C48.1404 31.0259 47.9938 31.7614 47.9935 32.5041C47.9938 33.2469 48.1404 33.9824 48.425 34.6685C48.7095 35.3546 49.1264 35.9779 49.6518 36.5029C50.1772 37.028 50.8009 37.4443 51.4873 37.7283C52.1736 38.0123 52.9092 38.1583 53.652 38.1579Z" fill="#3E96F7"/>
<path d="M47.5574 0.738915L44.1493 0L43.6726 2.19239L47.0806 2.93246L47.5562 0.740075L47.5574 0.738915ZM53.5998 6.46928L51.5419 3.6563L49.7289 4.98101L51.7867 7.79399L53.5998 6.46928ZM37.4144 17.4973L35.3566 14.6855L33.5435 16.0102L35.6013 18.8232L37.4144 17.4973ZM37.4144 4.80353L40.3561 2.93246L39.1497 1.03935L36.2092 2.91042L37.4144 4.80353ZM48.4494 21.1443L51.3146 19.1561L50.0328 17.3129L47.1676 19.3011L48.4494 21.1443ZM54.0359 14.9546L54.6345 11.521L52.4212 11.1371L51.8227 14.5707L54.0359 14.9546ZM34.7186 11.2264L35.316 7.79283L33.1027 7.40887L32.5053 10.8413L34.7186 11.2264ZM43.5693 20.04L40.1613 19.3011L39.6857 21.4935L43.0926 22.2336L43.5693 20.0412V20.04Z" fill="#646BF6"/>
<path fill-rule="evenodd" clip-rule="evenodd" d="M52.5291 11.136C52.5291 16.081 48.5179 20.0888 43.5693 20.0888C38.622 20.0888 34.6107 16.0799 34.6107 11.136C34.6107 6.1921 38.622 2.18433 43.5693 2.18433C48.5179 2.18433 52.5291 6.1921 52.5291 11.136ZM43.5693 16.0288C44.212 16.029 44.8485 15.9026 45.4423 15.6567C46.0361 15.4109 46.5757 15.0506 47.0303 14.5962C47.4848 14.1419 47.8454 13.6025 48.0915 13.0088C48.3376 12.415 48.4644 11.7787 48.4645 11.136C48.4645 8.43437 46.2733 6.2443 43.5693 6.2443C42.2716 6.24399 41.0268 6.75916 40.1088 7.67649C39.1908 8.59383 38.6748 9.83822 38.6742 11.136C38.6742 13.8388 40.8666 16.0288 43.5693 16.0288Z" fill="#646BF6"/>
<path d="M3.78158 19.9193V13.6112H8.31019C12.1463 13.6112 14.276 10.9769 14.276 7.88899C14.276 4.77557 12.1718 2.16675 8.31019 2.16675H0V19.9193H3.78158ZM7.80443 10.2844H3.78158V5.49361H7.80327C9.29502 5.49361 10.4133 6.3984 10.4133 7.88899C10.4133 9.3529 9.29618 10.2844 7.80443 10.2844ZM31.0043 19.9193L27.0093 13.1588C28.9267 12.7064 30.8976 11.0303 30.8976 7.88899C30.8976 4.58881 28.6344 2.16675 24.9317 2.16675H16.6215V19.9193H20.4031V13.6112H23.1732L26.6624 19.9193H31.0043ZM24.3726 10.2844H20.4031V5.49361H24.3726C25.891 5.49361 27.0359 6.3984 27.0359 7.88899C27.0359 9.37958 25.891 10.2844 24.3726 10.2844ZM30.5333 42.5588C34.4495 42.5588 36.6871 40.4036 37.9654 38.1938L34.7151 36.6232C33.9692 38.0871 32.3719 39.2053 30.5333 39.2053C27.3109 39.2053 24.9665 36.7299 24.9665 33.3763C24.9665 30.024 27.3109 27.5485 30.5345 27.5485C32.3719 27.5485 33.9692 28.6923 34.7151 30.1295L37.9654 28.5334C36.7126 26.3236 34.4495 24.195 30.5333 24.195C25.2066 24.195 21.0782 27.9209 21.0782 33.3763C21.0782 38.833 25.2066 42.5588 30.5333 42.5588ZM75.8183 42.6412C81.3862 42.6412 85.2478 39.1264 85.2478 33.7789C85.2478 28.4278 81.3851 24.8887 75.8183 24.8887H68.8131V42.64H75.8194L75.8183 42.6412ZM75.8183 39.3132H72.5958V28.2155H75.8183C79.4676 28.2155 81.3862 30.6376 81.3862 33.7777C81.3862 36.7856 79.3342 39.3132 75.8183 39.3132ZM100.503 42.64V39.3132H91.7136V35.295H100.317V31.9681H91.7136V28.2155H100.504V24.8887H87.9321V42.64H100.503ZM117.844 42.64L113.849 35.8808C115.766 35.4284 117.737 33.751 117.737 30.6109C117.737 27.3107 115.473 24.8887 111.771 24.8887H103.46V42.64H107.241V36.3332H110.011L113.501 42.64H117.844ZM111.212 33.0063H107.241V28.2155H111.211C112.728 28.2155 113.874 29.1203 113.874 30.6109C113.874 32.1015 112.729 33.0063 111.212 33.0063ZM126.888 42.959C131.682 42.959 134 40.5115 134 37.2635C134 30.6376 123.799 32.5272 123.799 29.7061C123.799 28.6413 124.704 27.9232 126.329 27.9232C128.141 27.9232 130.058 28.5345 131.497 29.865L133.601 27.0973C131.842 25.4733 129.499 24.623 126.676 24.623C122.494 24.623 119.936 27.0706 119.936 30.0251C119.936 36.7055 130.165 34.5491 130.165 37.6904C130.165 38.7019 129.152 39.66 127.075 39.66C126.021 39.6635 124.976 39.453 124.006 39.0413C123.035 38.6296 122.158 38.0251 121.428 37.2646L119.377 40.1391C121.029 41.8153 123.479 42.959 126.888 42.959Z" fill="#0B0C21"/>
</svg>
