<svg width="136" height="36" viewBox="0 0 136 36" fill="none" xmlns="http://www.w3.org/2000/svg">
<path fill-rule="evenodd" clip-rule="evenodd" d="M14.5193 18.604H22.6123C23.6126 18.604 24.34 19.4094 24.34 20.3042V21.736C24.34 22.7203 23.5217 23.4362 22.6123 23.4362H14.5193C13.5191 23.4362 12.7916 22.6308 12.7916 21.736V20.3937C12.7007 19.4094 13.5191 18.604 14.5193 18.604Z" fill="#253D98"/>
<path fill-rule="evenodd" clip-rule="evenodd" d="M1.65519 31.1677H9.40845C10.3667 31.1677 11.0637 31.9731 11.0637 32.868V34.2997C11.0637 35.2841 10.2796 36 9.40845 36H1.65519C0.696925 36 0 35.1946 0 34.2997V32.9574C0 31.9731 0.784038 31.1677 1.65519 31.1677Z" fill="#F16025"/>
<path fill-rule="evenodd" clip-rule="evenodd" d="M27.4761 18.604H35.2247C36.1824 18.604 36.8789 19.4094 36.8789 20.3042V21.736C36.8789 22.7203 36.0954 23.4362 35.2247 23.4362H27.4761C26.5184 23.4362 25.8219 22.6308 25.8219 21.736V20.3937C25.7348 19.4094 26.5184 18.604 27.4761 18.604Z" fill="#F16025"/>
<path fill-rule="evenodd" clip-rule="evenodd" d="M8.04763 24.886H15.8009C16.7592 24.886 17.4561 25.6914 17.4561 26.5862V28.018C17.4561 29.0023 16.672 29.7182 15.8009 29.7182H8.04763C7.08935 29.7182 6.39246 28.9128 6.39246 28.018V26.5862C6.39246 25.6914 7.08935 24.886 8.04763 24.886Z" fill="#FAAA43"/>
<path fill-rule="evenodd" clip-rule="evenodd" d="M20.8323 24.886H28.5856C29.5439 24.886 30.2408 25.6914 30.2408 26.5862V28.018C30.2408 29.0023 29.4568 29.7182 28.5856 29.7182H20.8323C19.8741 29.7182 19.1771 28.9128 19.1771 28.018V26.5862C19.1771 25.6914 19.8741 24.886 20.8323 24.886Z" fill="#00A9E2"/>
<path fill-rule="evenodd" clip-rule="evenodd" d="M1.65519 12.3223H9.40845C10.3667 12.3223 11.0637 13.1276 11.0637 14.0225V15.4542C11.0637 16.4386 10.2796 17.1545 9.40845 17.1545H1.65519C0.696925 17.1545 0 16.3491 0 15.4542V14.0225C0 13.0381 0.784038 12.3223 1.65519 12.3223Z" fill="#00A9E2"/>
<path fill-rule="evenodd" clip-rule="evenodd" d="M31.9617 9.3253V1.62551C31.9617 0.769977 32.6902 0 33.6919 0H35.1488C36.1504 0 36.8789 0.769977 36.8789 1.62551V9.23976C36.8789 10.1808 36.0594 10.8652 35.1488 10.8652H33.6919C32.6902 10.9508 31.9617 10.2664 31.9617 9.3253Z" fill="#852990"/>
<path fill-rule="evenodd" clip-rule="evenodd" d="M19.1771 9.3253V1.62551C19.1771 0.684427 19.9967 0 20.9073 0H22.3642C23.3658 0 24.0943 0.769977 24.0943 1.62551V9.23976C24.0943 10.1808 23.2748 10.8652 22.3642 10.8652H20.9073C19.9056 10.9508 19.1771 10.2664 19.1771 9.3253Z" fill="#00A99D"/>
<path fill-rule="evenodd" clip-rule="evenodd" d="M25.5693 15.5223V7.90761C25.5693 6.96648 26.3889 6.28198 27.2994 6.28198H28.7564C29.758 6.28198 30.4865 7.05202 30.4865 7.90761V15.5223C30.4865 16.4635 29.667 17.148 28.7564 17.148H27.2994C26.3889 17.2335 25.5693 16.4635 25.5693 15.5223Z" fill="#00A9E2"/>
<path fill-rule="evenodd" clip-rule="evenodd" d="M12.7847 15.5223V7.90761C12.7847 6.96648 13.6042 6.28198 14.5148 6.28198H15.9717C16.9734 6.28198 17.7019 7.05202 17.7019 7.90761V15.5223C17.7019 16.4635 16.8823 17.148 15.9717 17.148H14.5148C13.6042 17.2335 12.7847 16.4635 12.7847 15.5223Z" fill="#CCDC35"/>
<path fill-rule="evenodd" clip-rule="evenodd" d="M20.8323 31.1677H28.5856C29.5439 31.1677 30.2408 31.9731 30.2408 32.868V34.2997C30.2408 35.2841 29.4568 36 28.5856 36H20.8323C19.8741 36 19.1771 35.1946 19.1771 34.2997V32.9574C19.1771 31.9731 19.8741 31.1677 20.8323 31.1677Z" fill="#CCDC35"/>
<path fill-rule="evenodd" clip-rule="evenodd" d="M1.83189 18.604H3.08529C4.14586 18.604 4.9172 19.4094 4.9172 20.3042V21.736C4.9172 22.7203 4.04944 23.4362 3.08529 23.4362H1.83189C0.771321 23.4362 0 22.6308 0 21.736V20.3937C0 19.4094 0.867739 18.604 1.83189 18.604Z" fill="#852990"/>
<path fill-rule="evenodd" clip-rule="evenodd" d="M1.83189 24.886H3.08529C4.14586 24.886 4.9172 25.6914 4.9172 26.5862V28.018C4.9172 29.0023 4.04944 29.7182 3.08529 29.7182H1.83189C0.771321 29.7182 0 28.9128 0 28.018V26.5862C0 25.6914 0.867739 24.886 1.83189 24.886Z" fill="#253D98"/>
<path fill-rule="evenodd" clip-rule="evenodd" d="M33.7936 12.3223H35.0471C36.1076 12.3223 36.8789 13.1276 36.8789 14.0225V15.4542C36.8789 16.4386 36.0112 17.1545 35.0471 17.1545H33.7936C32.7331 17.1545 31.9617 16.3491 31.9617 15.4542V14.0225C31.9617 13.1276 32.7331 12.3223 33.7936 12.3223Z" fill="#253D98"/>
<path fill-rule="evenodd" clip-rule="evenodd" d="M14.6212 0H15.8727C16.9317 0 17.7019 0.80537 17.7019 1.70022V3.13199C17.7019 4.11633 16.8354 4.83224 15.8727 4.83224H14.6212C13.5621 4.83224 12.792 4.02684 12.792 3.13199V1.70022C12.6957 0.80537 13.5621 0 14.6212 0Z" fill="#81C34A"/>
<path fill-rule="evenodd" clip-rule="evenodd" d="M21.0136 12.3223H22.2651C23.3241 12.3223 24.0943 13.1276 24.0943 14.0225V15.4542C24.0943 16.4386 23.2279 17.1545 22.2651 17.1545H21.0136C19.9546 17.1545 19.1844 16.3491 19.1844 15.4542V14.0225C19.0881 13.1276 19.9546 12.3223 21.0136 12.3223Z" fill="#C0162E"/>
<path fill-rule="evenodd" clip-rule="evenodd" d="M27.4058 0H28.6573C29.7163 0 30.4865 0.80537 30.4865 1.70022V3.13199C30.4865 4.11633 29.6201 4.83224 28.6573 4.83224H27.4058C26.3468 4.83224 25.5767 4.02684 25.5767 3.13199V1.70022C25.4804 0.80537 26.3468 0 27.4058 0Z" fill="#FAAA43"/>
<path fill-rule="evenodd" clip-rule="evenodd" d="M33.7936 31.1677H35.0471C36.1076 31.1677 36.8789 31.9731 36.8789 32.868V34.2997C36.8789 35.2841 36.0112 36 35.0471 36H33.7936C32.7331 36 31.9617 35.1946 31.9617 34.2997V32.9574C31.9617 31.9731 32.7331 31.1677 33.7936 31.1677Z" fill="#C0162E"/>
<path fill-rule="evenodd" clip-rule="evenodd" d="M14.6212 31.1677H15.8727C16.9317 31.1677 17.7019 31.9731 17.7019 32.868V34.2997C17.7019 35.2841 16.8354 36 15.8727 36H14.6212C13.5621 36 12.792 35.1946 12.792 34.2997V32.9574C12.6957 31.9731 13.5621 31.1677 14.6212 31.1677Z" fill="#00A9E2"/>
<path fill-rule="evenodd" clip-rule="evenodd" d="M0 9.3253V1.62551C0 0.769977 0.819531 0 1.73012 0H3.18706C4.18871 0 4.9172 0.769977 4.9172 1.62551V9.23976C4.9172 10.1808 4.09765 10.8652 3.18706 10.8652H1.73012C0.819531 10.9508 0 10.2664 0 9.3253Z" fill="#81C34C"/>
<path fill-rule="evenodd" clip-rule="evenodd" d="M8.22889 0H9.48041C10.5394 0 11.3096 0.80537 11.3096 1.70022V3.13199C11.3096 4.11633 10.4431 4.83224 9.48041 4.83224H8.22889C7.16992 4.83224 6.39971 4.02684 6.39971 3.13199V1.70022C6.30346 0.80537 7.16992 0 8.22889 0Z" fill="#852990"/>
<path fill-rule="evenodd" clip-rule="evenodd" d="M8.22889 6.04028H9.48041C10.5394 6.04028 11.3096 6.84565 11.3096 7.74047V9.17224C11.3096 10.1566 10.4431 10.8725 9.48041 10.8725H8.22889C7.16992 10.8725 6.39971 10.0671 6.39971 9.17224V7.74047C6.30346 6.84565 7.16992 6.04028 8.22889 6.04028Z" fill="#00A99D"/>
<path fill-rule="evenodd" clip-rule="evenodd" d="M8.22889 18.604H9.48041C10.5394 18.604 11.3096 19.4094 11.3096 20.3042V21.736C11.3096 22.7203 10.4431 23.4362 9.48041 23.4362H8.22889C7.16992 23.4362 6.39971 22.6308 6.39971 21.736V20.3937C6.30346 19.4094 7.16992 18.604 8.22889 18.604Z" fill="#852990"/>
<path fill-rule="evenodd" clip-rule="evenodd" d="M33.7936 24.886H35.0471C36.1076 24.886 36.8789 25.6914 36.8789 26.5862V28.018C36.8789 29.0023 36.0112 29.7182 35.0471 29.7182H33.7936C32.7331 29.7182 31.9617 28.9128 31.9617 28.018V26.5862C31.9617 25.6914 32.7331 24.886 33.7936 24.886Z" fill="#253D98"/>
<path d="M48.4975 6.46739C48.4975 6.74365 48.6875 7.01986 48.9733 7.20404C49.3543 7.38818 49.7352 7.57232 50.211 7.66444C50.6872 7.75651 51.2587 7.94065 51.8297 8.12479C52.4012 8.30897 52.9722 8.58518 53.4485 8.86144C53.9247 9.13765 54.4005 9.59804 54.6862 10.2426C55.0672 10.8871 55.1624 11.5316 55.1624 12.3604C55.1624 13.5574 54.6862 14.4781 53.7342 15.3068C52.7822 16.0434 51.4488 16.5038 49.7352 16.5038C47.926 16.5038 46.3073 15.9514 44.9743 14.7544C44.6887 14.5702 44.6887 14.2019 44.8791 13.9256L45.9263 12.6366C46.0216 12.5445 46.2121 12.4524 46.3073 12.3604C46.4978 12.3604 46.6883 12.3604 46.7835 12.4524C47.8308 13.2811 48.7828 13.6494 49.7352 13.6494C50.973 13.6494 51.6392 13.189 51.6392 12.3604C51.6392 11.992 51.4488 11.7158 51.1635 11.5316C50.7825 11.3475 50.4015 11.1634 49.9257 11.0713C49.4495 10.9792 48.878 10.795 48.307 10.6109C47.7355 10.4267 47.1641 10.1505 46.6883 9.87425C46.2121 9.59804 45.7361 9.22972 45.4504 8.58518C45.0696 8.03272 44.9743 7.29611 44.9743 6.55951C44.9743 5.45458 45.4504 4.44171 46.3073 3.61302C47.1641 2.78433 48.4023 2.41602 49.9257 2.41602C50.973 2.41602 51.925 2.60017 52.7822 2.8764C53.4485 3.15263 54.0199 3.52094 54.6862 3.98133C54.9719 4.16549 54.9719 4.53379 54.7814 4.81004L53.7342 6.19118C53.6389 6.28325 53.4485 6.37532 53.3532 6.46739C53.1627 6.46739 53.0675 6.46739 52.877 6.37532C51.925 5.63872 50.8777 5.36251 49.9257 5.36251C49.3543 5.36251 48.9733 5.45458 48.7828 5.63872C48.5923 5.82286 48.4975 6.09911 48.4975 6.46739ZM65.0648 12.7286H64.779C64.5886 12.7286 64.3981 12.6366 64.3028 12.4524L61.9226 9.13765C61.7321 8.95351 61.4464 8.86144 61.2563 8.86144C60.9706 8.95351 60.7801 9.13765 60.7801 9.4139V15.491C60.7801 15.8593 60.4944 16.1355 60.1134 16.1355H58.3046C57.9236 16.1355 57.6379 15.8593 57.6379 15.491V3.33679C57.6379 2.96848 57.9236 2.69225 58.3046 2.69225H60.2086C60.3991 2.69225 60.5896 2.78432 60.6848 2.96848L64.3028 7.94065C64.3981 8.12479 64.5886 8.2169 64.779 8.2169C64.9695 8.2169 65.16 8.12479 65.2553 7.94065L68.8732 2.96848C68.9685 2.78432 69.159 2.69225 69.3495 2.69225H71.2535C71.6345 2.69225 71.9202 2.96848 71.9202 3.33679V15.491C71.9202 15.8593 71.6345 16.1355 71.2535 16.1355H69.4447C69.0637 16.1355 68.778 15.8593 68.778 15.491V9.4139C68.778 9.13765 68.5875 8.95351 68.3022 8.86144C68.0165 8.76932 67.7307 8.86144 67.6355 9.13765L65.0648 12.7286ZM79.3471 2.78433H82.2988C82.5841 2.78433 82.7746 2.96848 82.8698 3.15263L87.4402 15.3068C87.5355 15.491 87.4402 15.6752 87.345 15.8593C87.2497 16.0434 87.0592 16.1355 86.8687 16.1355H84.7743C84.4885 16.1355 84.298 15.9514 84.2028 15.7672L83.727 14.4781C83.6318 14.2019 83.4413 14.1098 83.1555 14.1098H78.5851C78.2998 14.1098 78.1093 14.294 78.0141 14.4781L77.5379 15.7672C77.4426 16.0434 77.2521 16.1355 76.9664 16.1355H74.8719C74.6814 16.1355 74.4909 16.0434 74.3957 15.8593C74.3004 15.6752 74.2052 15.491 74.3004 15.3068C74.8719 13.7415 75.7286 11.6237 76.6811 8.95351C77.7284 6.19118 78.3946 4.25756 78.8708 3.06055C78.8708 2.8764 79.0613 2.78433 79.3471 2.78433ZM80.2038 8.2169L79.2518 10.6109C79.1566 10.795 79.2518 10.9792 79.3471 11.1634C79.4423 11.3475 79.6328 11.4396 79.8228 11.4396H81.6321C81.8226 11.4396 82.013 11.3475 82.1083 11.1634C82.2035 10.9792 82.2988 10.795 82.2035 10.6109L81.2511 8.2169C81.1558 7.94065 80.9658 7.84858 80.6801 7.84858C80.4896 7.75651 80.2991 7.94065 80.2038 8.2169ZM96.9616 15.8593L94.6766 12.2683C94.5814 12.0841 94.3909 11.992 94.1051 11.992H93.5341C93.1531 11.992 92.8674 12.2683 92.8674 12.6366V15.583C92.8674 15.9514 92.5817 16.2276 92.2011 16.2276H90.0109C89.63 16.2276 89.3447 15.9514 89.3447 15.583V3.33679C89.3447 2.96848 89.63 2.69225 90.0109 2.69225H95.4381C96.7711 2.69225 97.9141 3.15263 98.8661 4.07341C99.8181 4.99418 100.294 6.09911 100.294 7.38818C100.294 8.30897 100.009 9.13765 99.5328 9.87425C99.1518 10.4267 98.6756 10.8871 98.1045 11.1634C97.9141 11.2554 97.8188 11.3475 97.8188 11.5316C97.8188 11.7158 97.8188 11.9 97.9141 11.992L99.9133 15.1227C100.009 15.3068 100.009 15.583 99.9133 15.7672C99.8181 15.9514 99.6276 16.0434 99.3423 16.0434H97.3426C97.3426 16.1355 97.1521 16.0434 96.9616 15.8593ZM92.9626 6.37532V8.49311C92.9626 8.86144 93.2484 9.13765 93.6294 9.13765H95.3429C95.8191 9.13765 96.2953 8.95351 96.5811 8.67725C96.9616 8.40104 97.0568 7.94065 97.0568 7.48025C97.0568 7.01986 96.8663 6.65158 96.4858 6.28325C96.1048 5.91497 95.7239 5.82286 95.2481 5.82286H93.5341C93.2484 5.73079 92.9626 6.00704 92.9626 6.37532ZM109.625 6.37532V15.583C109.625 15.9514 109.34 16.2276 108.959 16.2276H106.769C106.388 16.2276 106.102 15.9514 106.102 15.583V6.37532C106.102 6.00704 105.817 5.73079 105.436 5.73079H102.579C102.199 5.73079 101.913 5.45458 101.913 5.08625V3.33679C101.913 2.96848 102.199 2.69225 102.579 2.69225H112.863C113.244 2.69225 113.529 2.96848 113.529 3.33679V5.08625C113.529 5.45458 113.244 5.73079 112.863 5.73079H110.006C109.911 5.73079 109.625 6.00704 109.625 6.37532ZM51.1635 28.0135H49.0685C48.6875 28.0135 48.4023 28.2897 48.4023 28.658V31.6045C48.4023 31.9728 48.1165 32.249 47.7355 32.249H45.5456C45.1648 32.249 44.8791 31.9728 44.8791 31.6045V19.3582C44.8791 18.9899 45.1648 18.7137 45.5456 18.7137H50.973C52.306 18.7137 53.4485 19.1741 54.4005 20.0948C55.3529 21.0156 55.8287 22.1206 55.8287 23.4096C55.8287 24.6987 55.3529 25.8036 54.4005 26.6323C53.639 27.5531 52.4965 28.0135 51.1635 28.0135ZM48.4975 22.3047V24.4225C48.4975 24.7908 48.7828 25.067 49.1638 25.067H50.8777C51.354 25.067 51.8297 24.8829 52.1155 24.6066C52.4965 24.3304 52.5917 23.87 52.5917 23.4096C52.5917 22.9492 52.4012 22.5809 52.1155 22.2126C51.7345 21.8443 51.354 21.7522 50.8777 21.7522H49.1638C48.7828 21.6602 48.4975 21.9364 48.4975 22.3047ZM65.6358 31.8807L63.3508 28.2897C63.2556 28.1056 63.0651 28.0135 62.7793 28.0135H62.2083C61.8273 28.0135 61.5416 28.2897 61.5416 28.658V31.6045C61.5416 31.9728 61.2563 32.249 60.8753 32.249H58.6851C58.3046 32.249 58.0189 31.9728 58.0189 31.6045V19.3582C58.0189 18.9899 58.3046 18.7137 58.6851 18.7137H64.1128C65.4458 18.7137 66.5883 19.1741 67.5403 20.0948C68.4923 21.0156 68.9685 22.1206 68.9685 23.4096C68.9685 24.3304 68.6827 25.1591 68.207 25.8957C67.826 26.4482 67.3498 26.9086 66.7787 27.1848C66.5883 27.2769 66.493 27.3689 66.493 27.5531C66.493 27.7373 66.493 27.9214 66.5883 28.0135L68.5875 31.1441C68.6828 31.3283 68.6828 31.6045 68.5875 31.7887C68.4923 31.9728 68.3022 32.0649 68.0165 32.0649H66.0168C65.9215 32.1569 65.731 32.0649 65.6358 31.8807ZM61.6369 22.3047V24.4225C61.6369 24.7908 61.9226 25.067 62.3036 25.067H64.0175C64.4933 25.067 64.9695 24.8829 65.2553 24.6066C65.6358 24.3304 65.731 23.87 65.731 23.4096C65.731 22.9492 65.541 22.5809 65.16 22.2126C64.8743 21.8443 64.3981 21.6602 63.9223 21.6602H62.2083C61.9226 21.6602 61.6369 21.9364 61.6369 22.3047ZM83.346 30.4075C81.9178 31.7887 80.2991 32.4332 78.2994 32.4332C76.3001 32.4332 74.5862 31.7887 73.2532 30.4075C71.8249 29.0263 71.0634 27.3689 71.0634 25.4353C71.0634 23.5017 71.7297 21.8443 73.1579 20.4632C74.5862 19.082 76.3001 18.4374 78.2046 18.4374C80.2038 18.4374 81.9178 19.082 83.2508 20.4632C84.679 21.8443 85.3457 23.5017 85.3457 25.4353C85.4405 27.3689 84.7743 29.0263 83.346 30.4075ZM80.9658 28.1056C81.6321 27.3689 82.013 26.4482 82.013 25.4353C82.013 24.3304 81.6321 23.4096 80.9658 22.7651C80.2991 22.0285 79.3471 21.6602 78.2994 21.6602C77.1569 21.6602 76.3001 22.0285 75.5382 22.7651C74.8719 23.5017 74.4909 24.4225 74.4909 25.4353C74.4909 26.5402 74.8719 27.461 75.5382 28.1056C76.2049 28.8422 77.1569 29.2105 78.2994 29.2105C79.4423 29.2105 80.2991 28.8422 80.9658 28.1056ZM91.7249 28.0135V19.3582C91.7249 18.9899 92.0106 18.7137 92.3916 18.7137H94.5814C94.9623 18.7137 95.2481 18.9899 95.2481 19.3582V27.6452C95.2481 30.8679 93.9146 32.4332 91.1534 32.4332C89.7252 32.4332 88.4875 32.0649 87.2497 31.3283C86.964 31.1441 86.8687 30.7758 87.0592 30.4996L87.8212 29.3025C88.0117 29.0263 88.3922 28.9343 88.678 29.1184C89.2494 29.4867 89.8204 29.5788 90.3919 29.5788C91.2487 29.5788 91.7249 29.0263 91.7249 28.0135ZM102.008 23.9621H105.531C105.912 23.9621 106.198 24.2383 106.198 24.6066V26.1719C106.198 26.5402 105.912 26.8165 105.531 26.8165H102.008C101.627 26.8165 101.342 27.0927 101.342 27.461V28.7501C101.342 29.1184 101.627 29.3947 102.008 29.3947H107.054C107.435 29.3947 107.721 29.6709 107.721 30.0392V31.6966C107.721 32.0649 107.435 32.3411 107.054 32.3411H98.6756C98.2946 32.3411 98.0093 32.0649 98.0093 31.6966V19.3582C98.0093 18.9899 98.2946 18.7137 98.6756 18.7137H107.054C107.435 18.7137 107.721 18.9899 107.721 19.3582V21.0156C107.721 21.3839 107.435 21.6602 107.054 21.6602H102.103C101.723 21.6602 101.437 21.9364 101.437 22.3047V23.4096C101.342 23.6859 101.627 23.9621 102.008 23.9621ZM111.72 30.4075C110.292 29.0263 109.625 27.3689 109.625 25.4353C109.625 23.5017 110.292 21.8443 111.72 20.4632C113.148 19.082 114.862 18.4374 116.862 18.4374C118.099 18.4374 119.147 18.7137 120.194 19.2662C121.051 19.7266 121.718 20.279 122.289 20.9236C122.384 21.0156 122.479 21.1998 122.479 21.3839C122.479 21.5681 122.384 21.6602 122.193 21.8443L120.48 23.0413C120.194 23.2255 119.813 23.1334 119.623 22.9492C119.337 22.673 119.052 22.3968 118.671 22.2126C118.099 21.9364 117.528 21.7522 116.862 21.7522C115.719 21.7522 114.767 22.1206 114.1 22.8572C113.434 23.5938 113.053 24.5146 113.053 25.5274C113.053 26.6323 113.434 27.5531 114.1 28.1976C114.767 28.9343 115.719 29.3025 116.862 29.3025C117.528 29.3025 118.195 29.1184 118.671 28.8422C119.052 28.658 119.337 28.3818 119.623 28.1056C119.813 27.8293 120.194 27.8293 120.48 28.0135L122.193 29.2105C122.384 29.3026 122.479 29.4867 122.479 29.6709C122.479 29.855 122.479 30.0392 122.289 30.1313C121.718 30.7758 120.956 31.3283 120.194 31.7887C119.147 32.3411 118.004 32.6173 116.862 32.6173C114.862 32.4332 113.148 31.7887 111.72 30.4075ZM131.811 22.3047V31.5124C131.811 31.8807 131.525 32.1569 131.144 32.1569H128.954C128.573 32.1569 128.287 31.8807 128.287 31.5124V22.3047C128.287 21.9364 128.002 21.6602 127.621 21.6602H124.765C124.384 21.6602 124.098 21.3839 124.098 21.0156V19.2662C124.098 18.8978 124.384 18.6216 124.765 18.6216H135.048C135.429 18.6216 135.714 18.8978 135.714 19.2662V21.0156C135.714 21.3839 135.429 21.6602 135.048 21.6602H132.191C132.096 21.6602 131.811 21.9364 131.811 22.3047Z" fill="#4D4D4D"/>
</svg>
