<svg width="20" height="20" viewBox="0 0 20 20" fill="none" xmlns="http://www.w3.org/2000/svg">
<path d="M10 0C8.02219 0 6.08879 0.58649 4.4443 1.6853C2.79981 2.78412 1.51809 4.3459 0.761209 6.17316C0.0043328 8.00043 -0.1937 10.0111 0.192152 11.9509C0.578004 13.8907 1.53041 15.6725 2.92894 17.0711C4.32746 18.4696 6.10929 19.422 8.0491 19.8078C9.98891 20.1937 11.9996 19.9957 13.8268 19.2388C15.6541 18.4819 17.2159 17.2002 18.3147 15.5557C19.4135 13.9112 20 11.9778 20 10C19.9973 7.34867 18.9428 4.80671 17.0681 2.93193C15.1933 1.05716 12.6513 0.00271514 10 0ZM14.5231 7.69231L9.5077 13.3333C9.4405 13.4096 9.35866 13.4716 9.26705 13.5157C9.17543 13.5597 9.0759 13.5849 8.97436 13.5897C8.87957 13.5911 8.78545 13.5737 8.69744 13.5385C8.60942 13.5033 8.52925 13.451 8.46154 13.3846L5.52821 10.759C5.38661 10.6135 5.30739 10.4184 5.30739 10.2154C5.30739 10.0123 5.38661 9.81732 5.52821 9.67179C5.67244 9.52774 5.86795 9.44683 6.0718 9.44683C6.27565 9.44683 6.47116 9.52774 6.61539 9.67179L8.92308 11.7231L13.4154 6.66667C13.5527 6.51655 13.7433 6.42608 13.9464 6.41458C14.1496 6.40309 14.3492 6.47147 14.5026 6.60513C14.6494 6.74662 14.734 6.94061 14.7378 7.14447C14.7417 7.34833 14.6644 7.54537 14.5231 7.69231Z" fill="#8BAC72"/>
</svg>
