<svg width="20" height="21" viewBox="0 0 20 21" fill="none" xmlns="http://www.w3.org/2000/svg">
<path d="M10 0.146729C8.02219 0.146729 6.08879 0.733218 4.4443 1.83203C2.79981 2.93085 1.51809 4.49263 0.761209 6.31989C0.0043328 8.14715 -0.1937 10.1578 0.192152 12.0976C0.578004 14.0374 1.53041 15.8193 2.92894 17.2178C4.32746 18.6163 6.10929 19.5687 8.0491 19.9546C9.98891 20.3404 11.9996 20.1424 13.8268 19.3855C15.6541 18.6286 17.2159 17.3469 18.3147 15.7024C19.4135 14.0579 20 12.1245 20 10.1467C19.9973 7.4954 18.9428 4.95343 17.0681 3.07866C15.1933 1.20388 12.6513 0.149444 10 0.146729ZM14.5231 7.83904L9.5077 13.4801C9.4405 13.5563 9.35866 13.6183 9.26705 13.6624C9.17543 13.7064 9.0759 13.7316 8.97436 13.7365C8.87957 13.7378 8.78545 13.7204 8.69744 13.6852C8.60942 13.65 8.52925 13.5977 8.46154 13.5313L5.52821 10.9057C5.38661 10.7602 5.30739 10.5652 5.30739 10.3621C5.30739 10.1591 5.38661 9.96404 5.52821 9.81852C5.67244 9.67447 5.86795 9.59356 6.0718 9.59356C6.27565 9.59356 6.47116 9.67447 6.61539 9.81852L8.92308 11.8698L13.4154 6.81339C13.5527 6.66328 13.7433 6.57281 13.9464 6.56131C14.1496 6.54981 14.3492 6.6182 14.5026 6.75185C14.6494 6.89335 14.734 7.08734 14.7378 7.2912C14.7417 7.49506 14.6644 7.6921 14.5231 7.83904Z" fill="white"/>
</svg>
