<svg width="20" height="21" viewBox="0 0 20 21" fill="none" xmlns="http://www.w3.org/2000/svg">
<path d="M10 0.0734863C8.02219 0.0734863 6.08879 0.659976 4.4443 1.75879C2.79981 2.8576 1.51809 4.41939 0.761209 6.24665C0.0043328 8.07391 -0.1937 10.0846 0.192152 12.0244C0.578004 13.9642 1.53041 15.746 2.92894 17.1446C4.32746 18.5431 6.10929 19.4955 8.0491 19.8813C9.98891 20.2672 11.9996 20.0692 13.8268 19.3123C15.6541 18.5554 17.2159 17.2737 18.3147 15.6292C19.4135 13.9847 20 12.0513 20 10.0735C19.9973 7.42215 18.9428 4.88019 17.0681 3.00542C15.1933 1.13064 12.6513 0.0762015 10 0.0734863ZM14.5231 7.76579L9.5077 13.4068C9.4405 13.4831 9.35866 13.5451 9.26705 13.5891C9.17543 13.6332 9.0759 13.6584 8.97436 13.6632C8.87957 13.6646 8.78545 13.6472 8.69744 13.612C8.60942 13.5767 8.52925 13.5245 8.46154 13.4581L5.52821 10.8325C5.38661 10.6869 5.30739 10.4919 5.30739 10.2889C5.30739 10.0858 5.38661 9.8908 5.52821 9.74528C5.67244 9.60123 5.86795 9.52032 6.0718 9.52032C6.27565 9.52032 6.47116 9.60123 6.61539 9.74528L8.92308 11.7966L13.4154 6.74015C13.5527 6.59004 13.7433 6.49957 13.9464 6.48807C14.1496 6.47657 14.3492 6.54495 14.5026 6.67861C14.6494 6.82011 14.734 7.0141 14.7378 7.21796C14.7417 7.42181 14.6644 7.61886 14.5231 7.76579Z" fill="#002424"/>
</svg>
