<svg width="13" height="13" viewBox="0 0 13 13" fill="none" xmlns="http://www.w3.org/2000/svg">
<path d="M5.22096 9.92002C5.30746 10.0375 5.44046 10.1115 5.58596 10.123C5.59896 10.124 5.61196 10.1245 5.62446 10.1245C5.75646 10.1245 5.88396 10.0725 5.97796 9.97802L8.85296 7.10301C9.04846 6.90751 9.04846 6.59151 8.85296 6.39601C8.65746 6.20051 8.34146 6.20051 8.14596 6.39601L5.68296 8.85902L4.65246 7.45402C4.48896 7.23151 4.17596 7.18301 3.95346 7.34651C3.73096 7.51002 3.68246 7.82301 3.84596 8.04552L5.22096 9.92002Z" fill="#E5F8C8"/>
<path d="M10.6245 1.62451H10.1245V0.624512C10.1245 0.348512 9.90051 0.124512 9.62451 0.124512H9.12451C8.84851 0.124512 8.62451 0.348512 8.62451 0.624512V1.62451H3.62451V0.624512C3.62451 0.348512 3.40051 0.124512 3.12451 0.124512H2.62451C2.34851 0.124512 2.12451 0.348512 2.12451 0.624512V1.62451H1.62451C0.797512 1.62451 0.124512 2.29751 0.124512 3.12451L0.124512 10.6245C0.124512 11.4515 0.797512 12.1245 1.62451 12.1245H10.6245C11.4515 12.1245 12.1245 11.4515 12.1245 10.6245V3.12451C12.1245 2.29751 11.4515 1.62451 10.6245 1.62451ZM11.1245 10.6245C11.1245 10.9 10.9 11.1245 10.6245 11.1245H1.62451C1.34901 11.1245 1.12451 10.9 1.12451 10.6245V5.14451H11.1245V10.6245Z" fill="#E5F8C8"/>
</svg>
