<svg width="13" height="17" viewBox="0 0 13 17" fill="none" xmlns="http://www.w3.org/2000/svg">
<path d="M10.6282 15.439L9.40732 15.1259L8.86471 16.2581C8.67166 16.6546 8.10819 16.6546 7.92036 16.2529L6.82471 13.9051C8.09253 13.7694 9.26123 13.2946 10.2369 12.5798L11.2282 14.7085C11.416 15.1103 11.056 15.5433 10.6282 15.439Z" fill="#E5F8C8"/>
<path d="M5.30126 13.9051L4.20561 16.2529C4.01778 16.6546 3.4543 16.6546 3.26126 16.2581L2.71865 15.1259L1.49778 15.439C1.06995 15.5433 0.709953 15.1103 0.897779 14.7085L1.88908 12.5798C2.86474 13.2946 4.03343 13.7694 5.30126 13.9051Z" fill="#E5F8C8"/>
<path d="M6.06299 0.0456543C2.74942 0.0456543 0.0629883 2.73209 0.0629883 6.04565C0.0629883 9.35922 2.74942 12.0457 6.06299 12.0457C9.37655 12.0457 12.063 9.35922 12.063 6.04565C12.063 2.73209 9.37655 0.0456543 6.06299 0.0456543ZM8.77029 5.90531L7.8056 6.84548L8.03307 8.17331C8.1082 8.61104 7.64855 8.94548 7.25516 8.73835L6.06299 8.11174L4.87081 8.73835C4.47742 8.94496 4.01777 8.61104 4.0929 8.17331L4.32038 6.84548L3.35568 5.90531C3.03742 5.59487 3.21325 5.05487 3.65307 4.9907L4.98612 4.79713L5.58247 3.58931C5.77916 3.1907 6.34734 3.1907 6.54403 3.58931L7.14038 4.79713L8.47342 4.9907C8.91325 5.05435 9.08855 5.59487 8.77081 5.90531H8.77029Z" fill="#E5F8C8"/>
</svg>
