<svg width="80" height="31" viewBox="0 0 80 31" fill="none" xmlns="http://www.w3.org/2000/svg">
<path d="M9.63776 2.66499H4.34429L3.85145 5.40299H8.70684L8.26876 7.75767H3.44988L2.93879 10.6234H8.32352L7.9037 13.0329H0L2.24516 0.255547H10.0576L9.63776 2.66499Z" fill="white"/>
<path d="M9.67926 13.0329L11.9244 0.255547H13.8228L17.9298 8.23226L19.317 0.255547H21.836L19.5908 13.0329H17.6925L13.6037 5.05618L12.1982 13.0329H9.67926Z" fill="white"/>
<path d="M35.7241 6.16963L35.5598 7.15531C35.2434 9.01715 34.4159 10.5078 33.0773 11.6274C31.7388 12.7347 30.1264 13.2884 28.2402 13.2884C26.2688 13.2884 24.7416 12.6252 23.6586 11.2988C22.5756 9.96024 22.1983 8.34178 22.5269 6.44343C22.8433 4.58159 23.7134 3.04222 25.1371 1.82533C26.5609 0.608445 28.2159 0 30.102 0C31.3676 0 32.4506 0.2738 33.3511 0.821401C34.2638 1.35683 34.9574 2.11739 35.432 3.10307L33.1321 4.30779C32.4871 3.06656 31.398 2.44595 29.8647 2.44595C28.6357 2.44595 27.5709 2.83535 26.6704 3.61416C25.7821 4.3808 25.2345 5.38474 25.0276 6.62596C24.8086 7.86719 25.0094 8.87721 25.63 9.65602C26.2628 10.4348 27.2119 10.8242 28.4775 10.8242C30.5705 10.8242 31.97 10.015 32.6758 8.39654H28.9338L29.3171 6.16963H35.7241Z" fill="white"/>
<path d="M39.2494 10.6234H44.123L43.7032 13.0329H36.3106L36.7304 10.6234L38.5558 0.255547H41.0747L39.2494 10.6234Z" fill="white"/>
<path d="M47.3794 0.255547H49.8984L47.6532 13.0329H45.1342L47.3794 0.255547Z" fill="white"/>
<path d="M54.3492 13.2884C53.0593 13.2884 52.0006 13.0085 51.1731 12.4488C50.3578 11.8768 49.8345 11.1041 49.6033 10.1306L51.885 8.96239C52.2014 10.228 53.0897 10.8607 54.55 10.8607C55.2192 10.8607 55.7425 10.739 56.1197 10.4957C56.5092 10.2523 56.7404 9.92982 56.8134 9.52824C56.9107 9.06583 56.7769 8.70684 56.4118 8.4513C56.0589 8.19575 55.4383 7.92195 54.55 7.6299C53.3574 7.22832 52.4569 6.72331 51.8485 6.11487C51.2522 5.49426 51.0514 4.62418 51.2461 3.50464C51.453 2.3486 51.9945 1.47852 52.8707 0.894414C53.759 0.298138 54.769 0 55.9007 0C56.9472 0 57.8416 0.249462 58.5839 0.748387C59.3262 1.24731 59.8617 1.94702 60.1902 2.84752L57.9816 4.01574C57.5313 2.95704 56.7708 2.42769 55.6999 2.42769C55.1888 2.42769 54.7629 2.53721 54.4222 2.75625C54.0936 2.97529 53.8868 3.27343 53.8016 3.65067C53.7042 4.10092 53.832 4.4599 54.1849 4.72762C54.5378 4.98316 55.1341 5.26305 55.9737 5.56727C56.1928 5.65245 56.3753 5.71938 56.5213 5.76806C56.6673 5.81673 56.8499 5.88975 57.0689 5.9871C57.288 6.07228 57.4644 6.15746 57.5983 6.24264C57.7443 6.31566 57.9086 6.41301 58.0911 6.5347C58.2736 6.64422 58.4258 6.75982 58.5474 6.88151C58.6691 6.99103 58.7908 7.12489 58.9125 7.28308C59.0464 7.42911 59.1437 7.58731 59.2046 7.75767C59.2776 7.92804 59.3384 8.11665 59.3871 8.32352C59.4358 8.51823 59.4601 8.73727 59.4601 8.98064C59.4601 9.22402 59.4358 9.47957 59.3871 9.74728C59.1802 10.8912 58.6205 11.7673 57.7078 12.3758C56.8073 12.9842 55.6878 13.2884 54.3492 13.2884Z" fill="white"/>
<path d="M69.9385 0.255547H72.4392L70.1941 13.0329H67.6934L68.6243 7.73942H63.8784L62.9475 13.0329H60.4285L62.6737 0.255547H65.1927L64.2982 5.32998H69.0441L69.9385 0.255547Z" fill="white"/>
<path d="M34.1411 20.3648H29.0484L28.519 23.3949H33.484L33.0459 25.8043H28.081L27.2231 30.7327H24.7041L26.9493 17.9554H34.5792L34.1411 20.3648Z" fill="#E5F8C8"/>
<path d="M40.2478 30.9883C38.3981 30.9883 36.9318 30.319 35.8488 28.9804C34.7657 27.6296 34.3946 26.0234 34.7353 24.1615C35.0517 22.2753 35.9218 20.7299 37.3455 19.5252C38.7815 18.3083 40.479 17.6998 42.4382 17.6998C44.2636 17.6998 45.7177 18.3752 46.8008 19.726C47.896 21.0767 48.2793 22.683 47.9507 24.5448C47.6222 26.431 46.746 27.9765 45.3222 29.1812C43.8985 30.3859 42.207 30.9883 40.2478 30.9883ZM40.5399 28.5241C41.7324 28.5241 42.7911 28.1347 43.716 27.3558C44.653 26.577 45.231 25.5792 45.45 24.3623C45.6569 23.1454 45.4379 22.1415 44.7929 21.3505C44.148 20.5474 43.2353 20.1458 42.0549 20.1458C40.8745 20.1458 39.828 20.5413 38.9153 21.3322C38.0148 22.1111 37.4551 23.115 37.236 24.344C37.017 25.5609 37.2178 26.5649 37.8384 27.3558C38.4712 28.1347 39.3717 28.5241 40.5399 28.5241Z" fill="#E5F8C8"/>
<path d="M59.5045 22.3727C59.3463 23.2245 58.9934 23.9668 58.4458 24.5996C57.9104 25.2324 57.2411 25.6887 56.438 25.9686L58.3728 30.7327H55.8173L54.0468 26.2972H51.9476L51.1627 30.7327H48.6438L50.8889 17.9554H55.8721C57.0282 17.9554 57.9712 18.3995 58.7014 19.2879C59.4437 20.1762 59.7114 21.2045 59.5045 22.3727ZM56.2737 23.5409C56.6631 23.1758 56.9065 22.7256 57.0038 22.1902C57.1012 21.6547 57.0038 21.2106 56.7118 20.8577C56.4197 20.4926 55.9999 20.3101 55.4523 20.3101H52.9881L52.331 24.0885H54.9229C55.434 24.0885 55.8843 23.906 56.2737 23.5409Z" fill="#E5F8C8"/>
<path d="M66.6645 17.9554H69.1835L66.9383 30.7327H64.4194L66.6645 17.9554Z" fill="#E5F8C8"/>
<path d="M80 17.9554L79.5802 20.3648H76.1303L74.305 30.7327H71.786L73.6114 20.3648H70.1797L70.5996 17.9554H80Z" fill="#E5F8C8"/>
</svg>
