<svg width="161" height="250" viewBox="0 0 161 250" fill="none" xmlns="http://www.w3.org/2000/svg">
<path fill-rule="evenodd" clip-rule="evenodd" d="M170.417 0H149.764V112.335L106.756 9.8494L93.8684 14.6403L141.528 128.21L54.4428 39.9569L44.6519 48.9492L134.808 140.314L14.6759 93.0871L9.64714 105.178L126.918 151.28H0.653809V164.322H126.628L9.48156 209.959L14.4708 222.064L132.575 176.055L41.1807 262.958L50.656 272.251L140.876 186.464L89.7692 299.077L102.462 304.214L149.764 199.986V313H170.417V197.05L216.035 305.756L228.923 300.965L181.262 187.392L268.351 275.649L278.142 266.657L187.98 175.286L308.115 222.514L313.143 210.423L195.876 164.322H322.139V151.28H196.17L313.31 105.646L308.321 93.5402L190.214 139.551L281.61 52.6454L272.135 43.3525L181.918 129.137L233.025 16.5239L220.332 11.3864L170.417 121.373V0Z" fill="#8BAC72" fill-opacity="0.2"/>
</svg>
