<svg width="13" height="13" viewBox="0 0 13 13" fill="none" xmlns="http://www.w3.org/2000/svg">
<path d="M6.06694 6.85665C7.96049 6.85665 9.49551 5.32163 9.49551 3.42808C9.49551 1.53454 7.96049 -0.000488281 6.06694 -0.000488281C4.17339 -0.000488281 2.63837 1.53454 2.63837 3.42808C2.63837 5.32163 4.17339 6.85665 6.06694 6.85665Z" fill="#E5F8C8"/>
<path d="M1.35261 12.8566H6.64975C5.89721 12.2534 5.39888 11.3895 5.2536 10.436C5.10832 9.4826 5.32672 8.5094 5.86547 7.70947C4.75751 7.65443 3.71354 7.1739 2.95118 6.36804C2.09657 6.7288 1.36721 7.3334 0.854231 8.1063C0.341254 8.87919 0.0674031 9.78612 0.0668945 10.7138V11.5709C0.067912 11.9116 0.203698 12.238 0.444595 12.4789C0.685493 12.7198 1.01193 12.8556 1.35261 12.8566Z" fill="#E5F8C8"/>
<path d="M6.06689 9.85669C6.06689 10.45 6.24284 11.0301 6.57249 11.5234C6.90213 12.0167 7.37067 12.4013 7.91884 12.6283C8.46702 12.8554 9.07022 12.9148 9.65217 12.799C10.2341 12.6833 10.7687 12.3976 11.1882 11.978C11.6078 11.5585 11.8935 11.0239 12.0092 10.442C12.125 9.86002 12.0656 9.25682 11.8385 8.70864C11.6115 8.16046 11.227 7.69192 10.7336 7.36228C10.2403 7.03264 9.66024 6.85669 9.06689 6.85669C8.27152 6.8576 7.50899 7.17396 6.94658 7.73637C6.38416 8.29878 6.0678 9.06132 6.06689 9.85669ZM9.49547 8.99955V9.42812H9.92404C10.0377 9.42812 10.1467 9.47327 10.2271 9.55364C10.3075 9.63402 10.3526 9.74302 10.3526 9.85669C10.3526 9.97035 10.3075 10.0794 10.2271 10.1597C10.1467 10.2401 10.0377 10.2853 9.92404 10.2853H9.49547V10.7138C9.49547 10.8275 9.45031 10.9365 9.36994 11.0169C9.28957 11.0973 9.18056 11.1424 9.06689 11.1424C8.95323 11.1424 8.84422 11.0973 8.76385 11.0169C8.68348 10.9365 8.63832 10.8275 8.63832 10.7138V10.2853H8.20975C8.09609 10.2853 7.98708 10.2401 7.90671 10.1597C7.82633 10.0794 7.78118 9.97035 7.78118 9.85669C7.78118 9.74302 7.82633 9.63402 7.90671 9.55364C7.98708 9.47327 8.09609 9.42812 8.20975 9.42812H8.63832V8.99955C8.63832 8.88588 8.68348 8.77687 8.76385 8.6965C8.84422 8.61613 8.95323 8.57097 9.06689 8.57097C9.18056 8.57097 9.28957 8.61613 9.36994 8.6965C9.45031 8.77687 9.49547 8.88588 9.49547 8.99955Z" fill="#E5F8C8"/>
</svg>
