<svg width="22" height="22" viewBox="0 0 22 22" fill="none" xmlns="http://www.w3.org/2000/svg">
<path d="M11 0C8.82441 0 6.69767 0.645139 4.88873 1.85383C3.07979 3.06253 1.66989 4.78049 0.83733 6.79048C0.00476623 8.80047 -0.213071 11.0122 0.211367 13.146C0.635804 15.2798 1.68345 17.2398 3.22183 18.7782C4.76021 20.3165 6.72022 21.3642 8.85401 21.7886C10.9878 22.2131 13.1995 21.9952 15.2095 21.1627C17.2195 20.3301 18.9375 18.9202 20.1462 17.1113C21.3549 15.3023 22 13.1756 22 11C22 8.08262 20.8411 5.28472 18.7782 3.22182C16.7153 1.15892 13.9174 0 11 0ZM11.4715 6.75693C12.4715 6.7581 13.4301 7.15583 14.1371 7.86287C14.8442 8.56992 15.2419 9.52855 15.2431 10.5285H14.3C14.2992 9.77855 14.001 9.05957 13.4707 8.52929C12.9404 7.99902 12.2215 7.70077 11.4715 7.7V6.75693ZM14.5259 17.6C14.4973 17.6 11.6659 17.5516 8.02487 13.9751C4.4484 10.3356 4.4 7.50273 4.4 7.47413C4.4 7.1214 6.6 4.4 7.0862 4.4C7.25487 4.4 7.38614 4.5144 7.52987 4.686C7.876 5.09813 9.40647 7.51373 9.33607 7.91633C9.30234 8.10553 9.14174 8.24926 8.6812 8.63573C8.45428 8.81412 8.24192 9.0103 8.04614 9.2224C8.1399 9.61048 8.27922 9.98611 8.4612 10.3415C9.13919 11.7355 10.2657 12.8614 11.66 13.5388C12.0154 13.7208 12.391 13.8601 12.7791 13.9539C12.9912 13.7581 13.1873 13.5457 13.3657 13.3188C13.7522 12.8583 13.8959 12.6977 14.0851 12.6639C14.4877 12.5906 16.9033 14.124 17.3155 14.4701C17.4871 14.6168 17.6015 14.7451 17.6015 14.9138C17.6 15.4 14.8786 17.6 14.5259 17.6ZM16.6569 10.5285C16.6554 9.15369 16.1086 7.83566 15.1365 6.86355C14.1643 5.89143 12.8463 5.34462 11.4715 5.34307V4.4C13.0963 4.40194 14.654 5.04824 15.8029 6.19713C16.9518 7.34602 17.5981 8.90369 17.6 10.5285H16.6569Z" fill="#002424"/>
</svg>
