<svg width="22" height="22" viewBox="0 0 22 22" fill="none" xmlns="http://www.w3.org/2000/svg">
<path d="M11 13.3099C12.2758 13.3099 13.31 12.2757 13.31 10.9999C13.31 9.72416 12.2758 8.68994 11 8.68994C9.72422 8.68994 8.69 9.72416 8.69 10.9999C8.69 12.2757 9.72422 13.3099 11 13.3099Z" fill="#E5F8C8"/>
<path d="M11 0C4.92488 0 0 4.92488 0 11C0 17.0751 4.92488 22 11 22C17.0751 22 22 17.0751 22 11C22 4.92488 17.0751 0 11 0ZM17.7962 13.7958C17.7434 14.8416 17.4495 15.8728 16.6874 16.6269C15.9178 17.3881 14.8817 17.6717 13.8258 17.7239H8.17423C7.11823 17.6717 6.08221 17.3882 5.31269 16.6269C4.55052 15.8728 4.25669 14.8416 4.20389 13.7958V8.20424C4.25669 7.15845 4.55057 6.12718 5.31269 5.3731C6.08221 4.6119 7.11836 4.32828 8.17423 4.27605H13.8258C14.8818 4.32828 15.9178 4.61177 16.6873 5.3731C17.4495 6.12718 17.7433 7.15845 17.7961 8.20424L17.7962 13.7958Z" fill="#E5F8C8"/>
<path d="M13.7544 5.55004C12.3778 5.51229 9.62252 5.51229 8.24594 5.55004C7.52958 5.56971 6.71747 5.74804 6.20707 6.2932C5.67669 6.85988 5.47627 7.54452 5.45594 8.31043C5.42021 9.65471 5.45594 13.6895 5.45594 13.6895C5.47922 14.4553 5.67669 15.1401 6.20707 15.7067C6.71747 16.2521 7.52958 16.4302 8.24594 16.4499C9.62252 16.4876 12.3778 16.4876 13.7544 16.4499C14.4708 16.4302 15.2829 16.2519 15.7933 15.7067C16.3236 15.1401 16.5241 14.4554 16.5444 13.6895V8.31043C16.5241 7.54452 16.3236 6.85988 15.7933 6.2932C15.2827 5.74787 14.4706 5.56971 13.7544 5.55004ZM11 14.5805C10.2918 14.5805 9.59958 14.3705 9.01077 13.977C8.42196 13.5836 7.96304 13.0244 7.69204 12.3702C7.42104 11.7159 7.35013 10.996 7.48829 10.3014C7.62644 9.6069 7.96745 8.96892 8.46819 8.46817C8.96893 7.96743 9.60692 7.62642 10.3015 7.48827C10.996 7.35011 11.7159 7.42102 12.3702 7.69202C13.0244 7.96302 13.5836 8.42194 13.9771 9.01075C14.3705 9.59956 14.5805 10.2918 14.5805 11C14.5805 11.9496 14.2033 12.8603 13.5318 13.5318C12.8603 14.2032 11.9496 14.5805 11 14.5805ZM14.5957 8.15854C14.4541 8.1585 14.3157 8.11648 14.1979 8.03777C14.0802 7.95906 13.9884 7.84721 13.9342 7.71636C13.8801 7.5855 13.8659 7.44152 13.8936 7.30263C13.9212 7.16373 13.9894 7.03615 14.0896 6.93602C14.1897 6.83589 14.3173 6.7677 14.4562 6.74009C14.5952 6.71247 14.7391 6.72666 14.87 6.78086C15.0008 6.83507 15.1126 6.92685 15.1913 7.04461C15.27 7.16237 15.312 7.30081 15.312 7.44244C15.312 7.53649 15.2935 7.62963 15.2575 7.71652C15.2215 7.80341 15.1687 7.88236 15.1022 7.94886C15.0357 8.01536 14.9567 8.0681 14.8698 8.10408C14.7829 8.14006 14.6898 8.15856 14.5957 8.15854Z" fill="#E5F8C8"/>
</svg>
