<svg width="21" height="21" viewBox="0 0 21 21" fill="none" xmlns="http://www.w3.org/2000/svg">
<path d="M10.3125 0C8.27288 0 6.27907 0.604818 4.58319 1.73797C2.8873 2.87112 1.56553 4.48171 0.784997 6.36608C0.00446834 8.25044 -0.199754 10.3239 0.198156 12.3244C0.596067 14.3248 1.57824 16.1623 3.02047 17.6045C4.4627 19.0468 6.30021 20.0289 8.30064 20.4268C10.3011 20.8248 12.3746 20.6205 14.2589 19.84C16.1433 19.0595 17.7539 17.7377 18.887 16.0418C20.0202 14.3459 20.625 12.3521 20.625 10.3125C20.625 7.57746 19.5385 4.95443 17.6045 3.02046C15.6706 1.08649 13.0475 0 10.3125 0ZM10.7546 6.33462C11.692 6.33572 12.5907 6.70859 13.2536 7.37145C13.9164 8.0343 14.2893 8.93302 14.2904 9.87044H13.4063C13.4055 9.16739 13.1259 8.49335 12.6288 7.99622C12.1317 7.49908 11.4576 7.21948 10.7546 7.21875V6.33462ZM13.618 16.5C13.5912 16.5 10.9368 16.4546 7.52332 13.1017C4.17038 9.68962 4.125 7.03381 4.125 7.007C4.125 6.67631 6.1875 4.125 6.64332 4.125C6.80144 4.125 6.9245 4.23225 7.05925 4.39313C7.38375 4.7795 8.81857 7.04413 8.75257 7.42156C8.72094 7.59894 8.57038 7.73369 8.13863 8.096C7.92589 8.26324 7.7268 8.44716 7.54325 8.646C7.63116 9.00982 7.76177 9.36198 7.93238 9.69513C8.568 11.002 9.62407 12.0576 10.9313 12.6926C11.2644 12.8632 11.6166 12.9938 11.9804 13.0817C12.1792 12.8982 12.3631 12.6991 12.5304 12.4864C12.8927 12.0546 13.0274 11.9041 13.2048 11.8724C13.5823 11.8037 15.8469 13.2413 16.2333 13.5658C16.3941 13.7032 16.5014 13.8236 16.5014 13.9817C16.5 14.4375 13.9487 16.5 13.618 16.5ZM15.6159 9.87044C15.6144 8.58158 15.1018 7.34594 14.1904 6.43458C13.2791 5.52322 12.0434 5.01058 10.7546 5.00913V4.125C12.2778 4.12682 13.7381 4.73272 14.8152 5.80981C15.8923 6.88689 16.4982 8.34721 16.5 9.87044H15.6159Z" fill="#E5F8C8"/>
</svg>
